<?xml version="1.0" encoding="UTF-8"?>
<svg id="Layer_1" xmlns="http://www.w3.org/2000/svg" version="1.1" viewBox="0 0 600 600">
  <!-- Generator: Adobe Illustrator 30.1.0, SVG Export Plug-In . SVG Version: 2.1.1 Build 136)  -->
  <defs>
    <style>
      .st0 {
        fill: #00853e;
      }

      .st1 {
        fill: #ef373e;
      }

      .st2 {
        fill: #203e96;
      }

      .st3 {
        fill: #f99d2a;
      }

      .st4 {
        fill: #a21c86;
      }

      .st5 {
        fill: #feef2f;
      }

      .st6 {
        fill: #002664;
      }
    </style>
  </defs>
  <polygon class="st6" points="137.5 385.7 195.6 469.8 219.3 469.8 219.3 344 192.8 344 192.8 424.9 137.2 344.3 137 344 111.1 344 111.1 469.8 137.5 469.8 137.5 385.7"/>
  <path class="st6" d="M327.7,413.2c-2.3-3.8-5.9-7.2-10.5-10.2s-10.9-5.3-18.6-6.8l-21.5-4.4c-6.5-1.4-11-3.2-13.3-5.4-2.3-2.1-3.4-4.9-3.4-8.4s.5-4.2,1.5-5.9c1-1.8,2.4-3.3,4.2-4.6,1.8-1.3,4.1-2.3,6.8-3.1,2.7-.7,5.7-1.1,9-1.1s8.2.6,11.6,1.7c3.3,1.1,6.1,3,8.2,5.5s3.4,6,3.8,10.2v.6h26.8v-.7c-.1-7.2-2.2-13.8-6.1-19.7-3.9-5.8-9.7-10.5-17.1-14-7.4-3.4-16.7-5.1-27.6-5.1s-17.5,1.6-24.9,4.8c-7.4,3.2-13.3,7.7-17.7,13.5-4.3,5.9-6.5,12.9-6.4,20.9.2,9.7,3.1,17.7,8.8,23.5,5.6,5.8,13.4,9.7,22.9,11.5l21.7,4.4c4,.8,7.6,1.8,10.7,3.1,3.1,1.2,5.5,2.8,7.3,4.8,1.7,1.9,2.6,4.4,2.6,7.4s-1.1,6.2-3.2,8.4c-2.2,2.3-5.2,4-8.9,5.1-3.8,1.1-8,1.7-12.5,1.7s-8.5-.7-12.1-2.1c-3.6-1.3-6.6-3.3-9-5.8-2.3-2.5-4-5.7-4.8-9.3v-.5h-27.4v.7c.7,6.4,2.7,12,6,16.8,3.3,4.7,7.4,8.8,12.4,11.9,5,3.1,10.5,5.5,16.5,7.1,6,1.6,12.2,2.4,18.4,2.4,10.2,0,19.2-1.6,26.9-4.8,7.7-3.2,13.7-7.6,18-13.1,4.3-5.5,6.5-11.8,6.5-18.7s-.4-6.9-1.1-10.8c-.7-3.9-2.3-7.8-4.6-11.6"/>
  <polygon class="st6" points="469.8 344 447.2 424.4 424.3 344 405.1 344 382.4 424.4 359.8 344 333.8 344 370.8 469.8 391.5 469.8 414.6 390.1 437.6 469.8 458.6 469.8 495.8 344 469.8 344"/>
  <path class="st1" d="M289.2,312.8c-31.1-3.8-61.3,6.2-114.5-8.3-5.4-1.5-7.4,4.3-4.5,9.1,14.3,23.4,86.4,5.1,119.1,1.7,1.4-.1,1.3-2.3-.1-2.4"/>
  <path class="st4" d="M425.4,304.5c-53.2,14.5-83.4,4.5-114.5,8.3-1.4.2-1.6,2.3-.1,2.4,32.7,3.4,104.8,21.7,119.1-1.7,2.9-4.8.9-10.5-4.5-9.1"/>
  <path class="st1" d="M190.9,271c-10.8-15.9-19.6-33.6-26.5-53.2-20.6,6-41.8,14.7-63.3,26.1-2.8,1.5-4.5,4.2-4.6,7.4,0,3.1,1.5,6,4.2,7.6,41.6,24.9,82.3,39.2,121.2,42.5-11.6-7.1-22.2-17.4-31-30.5"/>
  <path class="st1" d="M132.9,218c9.5-3.8,19-7.1,28.3-9.8-3.3-10.9-6.1-22.3-8.3-34.2-10.7-1.3-21.9-2.2-33.4-2.6-.1,0-.2,0-.3,0-3,0-5.7,1.5-7.3,4.1-1.6,2.7-1.7,5.9-.2,8.7,6.7,12.1,13.7,23.4,21.2,33.9"/>
  <path class="st3" d="M235.2,297c6.5,2.9,13.1,4.4,19.5,4.8-15.7-11.2-28-30.3-35.1-54.6-9.1-31.3-12.2-65.8-9.2-103-12.3-7.8-25.7-15.1-40.1-21.9-2.8-1.3-6-1.1-8.5.7-2.5,1.7-4,4.6-3.8,7.6,3.4,54,17.2,99.3,41.3,134.6,10.1,14.8,22.5,25.8,35.9,31.7"/>
  <path class="st3" d="M265.9,120.2c-7.4-9-15.4-17.8-24-26.6-1.7-1.7-3.8-2.6-6.1-2.6s-1.6.1-2.4.4c-3,.9-5.2,3.3-5.9,6.5-1.7,8.2-4.9,24.8-6.3,41.2,11,7.3,21.2,15,30.6,23.1,3.6-13.8,8.3-27.8,14.1-41.9"/>
  <path class="st4" d="M498.9,244c-21.5-11.4-42.6-20.1-63.2-26.1-6.8,19.5-15.7,37.3-26.5,53.2-8.9,13-19.5,23.4-31,30.5,38.8-3.3,79.5-17.6,121.2-42.5,2.7-1.6,4.3-4.5,4.2-7.6s-1.8-5.9-4.6-7.4"/>
  <path class="st4" d="M467.2,218c7.4-10.5,14.5-21.8,21.2-33.9,1.5-2.7,1.4-6-.2-8.7-1.6-2.6-4.3-4.1-7.3-4.1s-.2,0-.3,0c-11.5.4-22.6,1.3-33.4,2.6-2.2,11.9-4.9,23.3-8.3,34.2,9.4,2.7,18.8,6,28.3,9.8"/>
  <path class="st2" d="M380.5,247.2c-7.1,24.3-19.4,43.3-35.1,54.6,6.4-.3,13-1.9,19.5-4.8,13.4-5.9,25.8-16.9,35.9-31.7,24.1-35.3,38-80.6,41.3-134.6.2-3.1-1.2-5.9-3.8-7.6-2.6-1.7-5.7-2-8.5-.7-14.4,6.8-27.8,14.1-40.1,21.9,3,37.2,0,71.7-9.2,103"/>
  <path class="st0" d="M378.9,139.1c-1.4-16.4-4.6-33-6.3-41.2-.7-3.2-2.9-5.6-5.9-6.5-.8-.2-1.6-.4-2.4-.4-2.2,0-4.4.9-6.1,2.6-8.6,8.8-16.6,17.6-24,26.6,5.8,14.1,10.5,28.1,14.1,41.9,9.3-8.1,19.5-15.8,30.6-23.1"/>
  <path class="st5" d="M300,220.7c10.5-20.7,27.2-39.2,39.7-50.9-6.9-28.1-17.5-54.5-32.1-82.2-1.5-2.9-4.4-4.6-7.6-4.6s-6.1,1.7-7.6,4.6c-14.8,27.8-25.6,55.4-32.1,82.2,13.1,12.1,30.4,31.9,39.7,50.9"/>
  <path class="st0" d="M338.5,294c10.8-7.6,21.7-20.9,28.6-39.4,13.3-35.8,14.7-75.7,12.8-103.9-24.2,16.1-62.5,49.8-75.6,85.8-6.2,16.9-9,40-4.3,52.9,2,5.4,5.4,9.5,10,11.4,7,2.9,17.8.7,28.5-6.8"/>
  <path class="st5" d="M294.6,233.4c-3.2-7.5-6.7-14.5-12.2-22.4-15.4-22.4-36.3-42.5-62.2-60.3-.3,4.2-4.1,49.4,9.2,93.6,10.1,33.6,27.3,47.3,36.8,52.6,9.5,5.3,18.2,6.6,28.4,4-10.3-14.1-9.1-43,0-67.6"/>
</svg>