<?xml version="1.0" encoding="UTF-8"?>
<svg id="Layer_1" data-name="Layer 1" xmlns="http://www.w3.org/2000/svg" viewBox="0 0 540 540">
  <defs>
    <style>
      .cls-1 {
        fill: #202d60;
      }

      .cls-2 {
        fill: #d71e3b;
      }
    </style>
  </defs>
  <path class="cls-2" d="M259.88,278.21c-29.05-3.58-57.27,5.75-106.93-7.76-5.07-1.38-6.94,3.97-4.2,8.46,13.34,21.82,80.73,4.72,111.26,1.57,1.34-.14,1.2-2.1-.13-2.27"/>
  <path class="cls-2" d="M387.05,270.45c-49.66,13.51-77.88,4.18-106.93,7.76-1.33.16-1.47,2.13-.13,2.27,30.53,3.15,97.92,20.25,111.26-1.57,2.74-4.48.87-9.84-4.2-8.46"/>
  <path class="cls-2" d="M168.08,239.24c-10.1-14.83-18.35-31.41-24.74-49.65-19.27,5.63-39,13.77-59.07,24.42-2.6,1.38-4.19,3.95-4.27,6.88-.08,2.93,1.38,5.58,3.9,7.09,38.88,23.29,76.89,36.62,113.17,39.7-10.81-6.59-20.71-16.27-28.99-28.44"/>
  <path class="cls-2" d="M113.91,189.69c8.89-3.56,17.71-6.62,26.44-9.19-3.12-10.16-5.69-20.81-7.72-31.92-10.04-1.25-20.43-2.06-31.19-2.42-.09,0-.19,0-.28,0-2.82,0-5.36,1.42-6.84,3.84-1.53,2.49-1.59,5.51-.18,8.08,6.24,11.29,12.83,21.83,19.75,31.62"/>
  <path class="cls-2" d="M209.45,263.47c6.03,2.66,12.2,4.16,18.18,4.47-14.64-10.49-26.14-28.29-32.78-50.97-8.54-29.2-11.39-61.41-8.57-96.17-11.52-7.27-24.01-14.09-37.45-20.41-2.59-1.22-5.56-.98-7.95.63-2.37,1.61-3.69,4.28-3.51,7.13,3.13,50.44,16.11,92.73,38.58,125.72,9.42,13.84,21.01,24.07,33.51,29.59"/>
  <path class="cls-2" d="M238.11,98.39c-6.89-8.37-14.37-16.65-22.44-24.83-1.57-1.59-3.58-2.43-5.66-2.43-.75,0-1.5.1-2.24.33-2.83.84-4.88,3.11-5.49,6.06-1.58,7.61-4.57,23.13-5.9,38.47,10.31,6.8,19.84,13.99,28.57,21.55,3.39-12.9,7.78-25.98,13.16-39.15"/>
  <path class="cls-2" d="M455.73,214c-20.08-10.65-39.8-18.79-59.07-24.42-6.39,18.24-14.64,34.83-24.74,49.65-8.28,12.17-18.18,21.85-28.99,28.44,36.27-3.08,74.29-16.41,113.17-39.7,2.52-1.51,3.98-4.17,3.91-7.1-.08-2.93-1.67-5.51-4.27-6.88"/>
  <path class="cls-2" d="M426.08,189.69c6.92-9.79,13.51-20.33,19.75-31.62,1.42-2.56,1.35-5.58-.18-8.08-1.48-2.42-4.02-3.84-6.84-3.84-.09,0-.19,0-.28,0-10.75.36-21.14,1.17-31.19,2.42-2.02,11.11-4.59,21.76-7.72,31.92,8.73,2.57,17.55,5.63,26.44,9.19"/>
  <path class="cls-2" d="M345.14,216.97c-6.63,22.68-18.13,40.48-32.77,50.97,5.98-.31,12.15-1.8,18.18-4.47,12.5-5.52,24.08-15.75,33.5-29.59,22.47-32.99,35.45-75.29,38.58-125.72.18-2.85-1.14-5.52-3.51-7.13-2.38-1.62-5.35-1.86-7.95-.63-13.44,6.32-25.93,13.13-37.45,20.41,2.82,34.76-.04,66.97-8.58,96.17"/>
  <path class="cls-2" d="M343.63,116c-1.33-15.34-4.32-30.86-5.9-38.47-.62-2.96-2.67-5.23-5.49-6.06-.74-.22-1.5-.33-2.24-.33-2.08,0-4.1.84-5.66,2.43-8.07,8.18-15.55,16.46-22.44,24.83,5.38,13.18,9.77,26.26,13.16,39.15,8.73-7.56,18.26-14.75,28.58-21.55"/>
  <path class="cls-2" d="M269.97,192.22c9.77-19.3,25.37-36.6,37.08-47.52-6.43-26.2-16.34-50.93-30.01-76.79-1.41-2.67-4.06-4.26-7.07-4.26s-5.66,1.59-7.07,4.26c-13.81,25.95-23.88,51.77-29.97,76.79,12.23,11.33,28.36,29.81,37.05,47.53"/>
  <path class="cls-2" d="M305.86,260.69c10.13-7.12,20.26-19.54,26.69-36.8,12.44-33.43,13.73-70.67,11.95-97.02-22.55,15.05-58.34,46.5-70.57,80.12-5.75,15.82-8.44,37.37-4,49.39,1.85,5.03,5,8.84,9.33,10.66,6.56,2.75,16.64.67,26.61-6.34"/>
  <path class="cls-2" d="M264.92,204.06c-2.98-6.97-6.27-13.53-11.37-20.91-14.43-20.88-33.87-39.7-58.06-56.29-.25,3.91-3.79,46.13,8.61,87.41,9.42,31.4,25.53,44.19,34.36,49.13,8.88,4.97,17,6.14,26.54,3.77-9.66-13.16-8.46-40.19-.07-63.11"/>
  <polygon class="cls-1" points="118.15 346.3 172.45 424.87 194.54 424.87 194.54 307.37 169.83 307.37 169.83 382.96 117.87 307.63 117.69 307.37 93.51 307.37 93.51 424.87 118.15 424.87 118.15 346.3"/>
  <path class="cls-1" d="M295.79,372.05c-2.18-3.54-5.47-6.74-9.77-9.53-4.3-2.79-10.15-4.92-17.38-6.34l-20.12-4.14c-6.08-1.31-10.27-3.01-12.46-5.04-2.13-1.98-3.21-4.61-3.21-7.83,0-2.05.47-3.91,1.39-5.54.92-1.64,2.25-3.09,3.96-4.3,1.72-1.22,3.85-2.19,6.34-2.87,2.52-.69,5.35-1.04,8.41-1.04,4.03,0,7.66.53,10.8,1.59,3.1,1.05,5.67,2.78,7.64,5.13,1.97,2.35,3.18,5.56,3.59,9.53l.06.56h24.96v-.63c-.12-6.74-2.02-12.93-5.67-18.39-3.65-5.46-9.04-9.85-16.01-13.04-6.95-3.19-15.63-4.8-25.79-4.8-8.53,0-16.35,1.49-23.25,4.44-6.92,2.95-12.46,7.21-16.49,12.65-4.04,5.48-6.06,12.04-6,19.5.16,9.1,2.93,16.49,8.21,21.96,5.25,5.45,12.47,9.08,21.43,10.77l20.29,4.14c3.72.74,7.1,1.72,10.03,2.89,2.88,1.16,5.18,2.66,6.84,4.47,1.62,1.77,2.44,4.09,2.44,6.89,0,3.12-1.02,5.75-3.03,7.81-2.06,2.11-4.85,3.71-8.3,4.75-3.51,1.06-7.44,1.6-11.67,1.6s-7.93-.64-11.31-1.92c-3.35-1.25-6.17-3.08-8.37-5.44-2.19-2.35-3.69-5.28-4.47-8.73l-.11-.48h-25.45l.07.68c.6,5.96,2.45,11.25,5.5,15.71,3.04,4.43,6.94,8.18,11.58,11.13,4.63,2.94,9.82,5.18,15.44,6.65,5.6,1.46,11.39,2.21,17.2,2.21,9.51,0,17.95-1.5,25.08-4.47,7.16-2.98,12.83-7.09,16.84-12.2,4.05-5.15,6.1-11.02,6.1-17.46,0-3.04-.35-6.43-1.02-10.06-.69-3.66-2.14-7.3-4.31-10.8"/>
  <polygon class="cls-1" points="428.57 307.37 407.4 382.52 386 307.37 368.1 307.37 346.93 382.51 325.77 307.37 301.49 307.37 336.1 424.88 355.44 424.88 377.01 350.49 398.42 424.88 418.08 424.88 452.78 307.37 428.57 307.37"/>
  <path class="cls-1" d="M108.2,461.92h7.4l-.21,1.52c-.07.58-.27,1.18-.58,1.78-.31.6-.75,1.17-1.3,1.7-.55.51-1.22.94-1.99,1.28-.76.32-1.64.48-2.63.48-1.06,0-2.1-.18-3.07-.54-.96-.34-1.84-.94-2.61-1.8-.78-.86-1.4-2.05-1.86-3.54-.47-1.51-.71-3.46-.71-5.78,0-2.86.36-5.18,1.07-6.9.71-1.69,1.66-2.92,2.85-3.68,1.19-.76,2.55-1.14,4.03-1.14,1.22,0,2.3.26,3.2.78.91.52,1.67,1.23,2.27,2.11.6.88,1,1.87,1.19,2.92l.1.5h8.88l-.03-.64c-.08-1.7-.51-3.35-1.28-4.89-.77-1.56-1.86-2.97-3.22-4.21-1.35-1.22-2.97-2.21-4.82-2.93-1.83-.71-3.89-1.06-6.11-1.06-3.43,0-6.49.79-9.09,2.36-2.6,1.58-4.65,3.85-6.08,6.74-1.44,2.88-2.16,6.32-2.16,10.23s.69,7.26,2.05,10.1c1.37,2.87,3.36,5.12,5.9,6.69,2.53,1.57,5.56,2.36,8.99,2.36,2.02,0,3.75-.28,5.17-.83,1.39-.54,2.59-1.25,3.58-2.12.45-.41.88-.82,1.26-1.23v3.67h6.22v-20.15l-16.4-.08v6.3Z"/>
  <path class="cls-1" d="M155.41,440.22c-2.57-1.55-5.63-2.34-9.09-2.34s-6.55.79-9.14,2.36c-2.6,1.57-4.64,3.82-6.06,6.71-1.41,2.86-2.13,6.31-2.13,10.25s.71,7.35,2.1,10.19c1.42,2.87,3.45,5.1,6.03,6.64,2.58,1.55,5.67,2.33,9.2,2.33s6.57-.78,9.14-2.33c2.59-1.55,4.6-3.79,5.99-6.66,1.38-2.85,2.07-6.27,2.07-10.17s-.71-7.42-2.1-10.27c-1.41-2.88-3.43-5.14-6.01-6.7M150.58,467.94c-1.19.77-2.62,1.16-4.27,1.16s-3.06-.39-4.25-1.16c-1.19-.77-2.13-2.02-2.79-3.71-.69-1.74-1.04-4.08-1.04-6.95s.35-5.3,1.04-7.11c.67-1.75,1.61-3.05,2.8-3.85,1.2-.8,2.63-1.21,4.24-1.21s3.04.4,4.23,1.21c1.19.81,2.12,2.1,2.78,3.84.68,1.79,1.03,4.19,1.03,7.12s-.34,5.2-1.01,6.94c-.65,1.69-1.58,2.95-2.76,3.71"/>
  <polygon class="cls-1" points="181.27 464.78 172.2 438.51 163.97 438.51 176.71 475.72 185.81 475.72 198.65 438.51 190.41 438.51 181.27 464.78"/>
  <polygon class="cls-1" points="210.72 460.62 225.87 460.62 225.87 453.36 210.76 453.36 210.76 445.86 228.16 445.86 228.18 438.51 202.24 438.51 202.24 475.72 228.43 475.72 228.43 468.31 210.72 468.29 210.72 460.62"/>
  <path class="cls-1" d="M258.94,458.36c1.01-.91,1.84-2.07,2.47-3.45.62-1.37.93-3.07.93-5.04,0-2.2-.46-4.18-1.37-5.87-.91-1.72-2.35-3.09-4.29-4.06-1.91-.95-4.37-1.44-7.32-1.44h-15.79v37.21h8.47v-13.86h6.24l5.87,13.86h8.9l-6.84-15.41c.98-.53,1.9-1.18,2.73-1.94M253.77,450.05c0,1.47-.49,2.64-1.51,3.58-1.01.93-2.43,1.4-4.2,1.4h-6.02v-9.74h6.55c1.53,0,2.75.42,3.74,1.29.96.85,1.44,1.99,1.44,3.47"/>
  <polygon class="cls-1" points="291.56 460.96 276.07 438.51 267.94 438.51 267.94 475.72 276.41 475.72 276.41 452.35 292.57 475.72 300.05 475.72 300.05 438.51 291.56 438.51 291.56 460.96"/>
  <polygon class="cls-1" points="326 462.77 318.22 438.51 306.61 438.51 306.61 475.72 315.15 475.72 315.15 451.75 322.69 475.72 329.29 475.72 336.88 451.61 336.88 475.72 345.45 475.72 345.45 438.51 333.86 438.51 326 462.77"/>
  <polygon class="cls-1" points="360.47 460.62 375.62 460.62 375.62 453.36 360.52 453.36 360.52 445.86 377.91 445.86 377.94 438.51 352 438.51 352 475.72 378.19 475.72 378.19 468.31 360.47 468.29 360.47 460.62"/>
  <polygon class="cls-1" points="407.23 460.96 391.75 438.51 383.62 438.51 383.62 475.72 392.09 475.72 392.09 452.35 408.24 475.72 415.72 475.72 415.72 438.51 407.23 438.51 407.23 460.96"/>
  <polygon class="cls-1" points="419.29 446.21 430.16 446.21 430.16 475.72 438.69 475.72 438.69 446.21 449.31 446.21 449.31 438.51 419.29 438.51 419.29 446.21"/>
</svg>