<svg xmlns="http://www.w3.org/2000/svg" viewBox="0 0 259 280">
  <defs>
    <style>
      .rw-green {
        fill: #00853e;
      }

      .rw-red {
        fill: #ef373e;
      }

      .rw-blue {
        fill: #1e22aa;
      }

      .rw-orange {
        fill: #f99d2a;
      }

      .nsw-blue {
        fill: #FFFFFF;
        fill-rule: evenodd;
      }

      .rw-purple {
        fill: #a11f7f;
      }

      .rw-yellow {
        fill: #feef2f;
      }
    </style>
  </defs>
  <path class="nsw-blue" d="M24.2,270.2h-5v-4.3h11.1v13.7h-4.2v-2.5c-.3.3-.6.6-.9.8-.7.6-1.5,1.1-2.4,1.4-1,.4-2.1.6-3.5.6-2.3,0-4.4-.5-6.1-1.6-1.7-1.1-3.1-2.6-4-4.5-.9-1.9-1.4-4.2-1.4-6.9s.5-5,1.5-6.9c1-2,2.4-3.5,4.1-4.6,1.8-1.1,3.8-1.6,6.2-1.6s2.9.2,4.2.7c1.3.5,2.4,1.2,3.3,2,.9.8,1.6,1.8,2.2,2.9.5,1,.8,2.2.9,3.3v.4s-6,0-6,0v-.3c-.2-.7-.5-1.4-.9-2-.4-.6-.9-1.1-1.5-1.4-.6-.4-1.3-.5-2.2-.5s-1.9.3-2.7.8c-.8.5-1.5,1.4-1.9,2.5-.5,1.2-.7,2.7-.7,4.7s.2,2.9.5,3.9c.3,1,.7,1.8,1.3,2.4.5.6,1.1,1,1.8,1.2.7.2,1.4.4,2.1.4.7,0,1.3-.1,1.8-.3.5-.2,1-.5,1.4-.9.4-.4.7-.7.9-1.2.2-.4.3-.8.4-1.2v-1c.1,0,.1,0,.1,0ZM45.1,253.9c2.4,0,4.4.5,6.2,1.6,1.8,1.1,3.1,2.6,4.1,4.5.9,1.9,1.4,4.3,1.4,7s-.5,5-1.4,6.9c-.9,1.9-2.3,3.5-4.1,4.5-1.7,1.1-3.8,1.6-6.2,1.6s-4.5-.5-6.3-1.6c-1.8-1-3.1-2.6-4.1-4.5-.9-1.9-1.4-4.3-1.4-6.9s.5-5,1.4-7c1-2,2.4-3.5,4.1-4.6,1.8-1.1,3.9-1.6,6.2-1.6h0ZM45.1,275.1c1.1,0,2.1-.3,2.9-.8.8-.5,1.4-1.4,1.9-2.5.5-1.2.7-2.8.7-4.7s-.2-3.6-.7-4.8c-.4-1.2-1.1-2.1-1.9-2.6-.8-.5-1.8-.8-2.9-.8s-2.1.3-2.9.8c-.8.5-1.5,1.4-1.9,2.6-.5,1.2-.7,2.8-.7,4.8s.2,3.5.7,4.7c.5,1.1,1.1,2,1.9,2.5.8.5,1.8.8,2.9.8h0ZM68.8,272.2l-6.2-17.8h-5.6l8.7,25.3h6.2l8.7-25.3h-5.6l-6.2,17.8h0ZM99.2,269.3h-10.3v5.2h12v5h-17.8v-25.3h17.6v5h-11.8v5.1h10.3v4.9h0ZM121.6,267.8c.7-.6,1.2-1.4,1.7-2.3.4-.9.6-2.1.6-3.4s-.3-2.8-.9-4c-.6-1.2-1.6-2.1-2.9-2.8-1.3-.6-3-1-5-1h-10.7v25.2h5.8v-9.4h4.2l4,9.4h6l-4.7-10.5c.7-.4,1.3-.8,1.9-1.3ZM118.1,262.2c0,1-.3,1.8-1,2.4-.7.6-1.6.9-2.9.9h-4.1v-6.6h4.5c1,0,1.9.3,2.5.9.7.6,1,1.3,1,2.4h0ZM133.3,254.3l10.5,15.2v-15.2h5.8v25.3h-5.1l-11-15.9v15.9h-5.8v-25.3h5.5,0ZM167.2,270.8l-5.3-16.5h-7.9v25.3h5.8v-16.3l5.1,16.3h4.5l5.2-16.4v16.4h5.8v-25.3h-7.9l-5.3,16.5h0ZM201,269.3h-10.3v5.2h12v5h-17.8v-25.3h17.6v5h-11.8v5.1h10.3v4.9h0ZM222.5,269.6l-10.5-15.2h-5.5v25.3h5.8v-15.9l11,15.9h5.1v-25.3h-5.8v15.2h0ZM238,259.5h-7.4v-5.2h20.4v5.2h-7.2v20h-5.8v-20h0Z"/>
  <path class="nsw-blue" d="M146.7,209.2c-1.5-2.4-3.7-4.6-6.6-6.5-2.9-1.9-6.9-3.3-11.8-4.3l-13.7-2.8c-4.1-.9-7-2-8.5-3.4-1.4-1.3-2.2-3.1-2.2-5.3s.3-2.7.9-3.8c.6-1.1,1.5-2.1,2.7-2.9,1.2-.8,2.6-1.5,4.3-1.9,1.7-.5,3.6-.7,5.7-.7s5.2.4,7.3,1.1c2.1.7,3.9,1.9,5.2,3.5,1.3,1.6,2.2,3.8,2.4,6.5v.4h17v-.4c0-4.6-1.4-8.8-3.9-12.5-2.5-3.7-6.1-6.7-10.9-8.9-4.7-2.2-10.6-3.3-17.5-3.3s-11.1,1-15.8,3c-4.7,2-8.5,4.9-11.2,8.6-2.7,3.7-4.1,8.2-4.1,13.2.1,6.2,2,11.2,5.6,14.9,3.6,3.7,8.5,6.2,14.6,7.3l13.8,2.8c2.5.5,4.8,1.2,6.8,2,2,.8,3.5,1.8,4.7,3,1.1,1.2,1.7,2.8,1.7,4.7s-.7,3.9-2.1,5.3c-1.4,1.4-3.3,2.5-5.6,3.2-2.4.7-5.1,1.1-7.9,1.1s-5.4-.4-7.7-1.3c-2.3-.9-4.2-2.1-5.7-3.7-1.5-1.6-2.5-3.6-3-5.9v-.3h-17.4v.5c.5,4,1.7,7.6,3.8,10.7,2.1,3,4.7,5.5,7.9,7.6,3.1,2,6.7,3.5,10.5,4.5,3.8,1,7.7,1.5,11.7,1.5,6.5,0,12.2-1,17-3,4.9-2,8.7-4.8,11.4-8.3,2.8-3.5,4.1-7.5,4.1-11.8s-.2-4.4-.7-6.8c-.5-2.5-1.5-4.9-2.9-7.3h0ZM25.9,191.8l36.9,53.3h15v-79.7h-16.8v51.3l-35.3-51.1v-.2H9.2v79.7h16.7v-53.3h0ZM222.6,216.3l14.4-51h16.5l-23.6,79.7h-13.4l-14.6-50.5-14.7,50.5h-13.1l-23.5-79.7h16.5l14.4,51,14.4-51h12.2l14.6,51h0Z"/>
  <g>
    <path class="rw-red" d="M122.3,145.7c-19.7-2.4-38.9,3.9-72.7-5.3-3.4-.9-4.7,2.7-2.9,5.7,9.1,14.8,54.9,3.2,75.6,1.1.9,0,.8-1.4,0-1.5"/>
    <path class="rw-purple" d="M208.7,140.4c-33.8,9.2-52.9,2.8-72.7,5.3-.9.1-1,1.4,0,1.5,20.8,2.1,66.6,13.8,75.6-1.1,1.9-3,.6-6.7-2.9-5.7"/>
    <path class="rw-red" d="M59.9,119.2c-6.9-10.1-12.5-21.4-16.8-33.8-13.1,3.8-26.5,9.4-40.2,16.6C1.1,103,0,104.7,0,106.7c0,2,.9,3.8,2.7,4.8,26.4,15.8,52.3,24.9,76.9,27-7.3-4.5-14.1-11.1-19.7-19.3"/>
    <path class="rw-red" d="M23.1,85.5c6-2.4,12-4.5,18-6.2-2.1-6.9-3.9-14.1-5.2-21.7-6.8-.9-13.9-1.4-21.2-1.6,0,0-.1,0-.2,0-1.9,0-3.6,1-4.6,2.6-1,1.7-1.1,3.8-.1,5.5,4.2,7.7,8.7,14.8,13.4,21.5"/>
    <path class="rw-orange" d="M88,135.7c4.1,1.8,8.3,2.8,12.4,3-10-7.1-17.8-19.2-22.3-34.6-5.8-19.9-7.7-41.7-5.8-65.4-7.8-4.9-16.3-9.6-25.5-13.9-1.8-.8-3.8-.7-5.4.4-1.6,1.1-2.5,2.9-2.4,4.9,2.1,34.3,11,63,26.2,85.5,6.4,9.4,14.3,16.4,22.8,20.1"/>
    <path class="rw-orange" d="M107.5,23.5c-4.7-5.7-9.8-11.3-15.3-16.9-1.1-1.1-2.4-1.7-3.9-1.7s-1,0-1.5.2c-1.9.6-3.3,2.1-3.7,4.1-1.1,5.2-3.1,15.7-4,26.1,7,4.6,13.5,9.5,19.4,14.6,2.3-8.8,5.3-17.7,8.9-26.6"/>
    <path class="rw-purple" d="M255.4,102.1c-13.6-7.2-27.1-12.8-40.2-16.6-4.3,12.4-10,23.7-16.8,33.8-5.6,8.3-12.4,14.8-19.7,19.3,24.7-2.1,50.5-11.2,76.9-27,1.7-1,2.7-2.8,2.7-4.8s-1.1-3.7-2.9-4.7"/>
    <path class="rw-purple" d="M235.3,85.5c4.7-6.7,9.2-13.8,13.4-21.5,1-1.7.9-3.8-.1-5.5-1-1.6-2.7-2.6-4.6-2.6s-.1,0-.2,0c-7.3.2-14.4.8-21.2,1.6-1.4,7.6-3.1,14.8-5.2,21.7,5.9,1.7,11.9,3.8,18,6.2"/>
    <path class="rw-blue" d="M180.2,104.1c-4.5,15.4-12.3,27.5-22.3,34.6,4.1-.2,8.3-1.2,12.4-3,8.5-3.8,16.4-10.7,22.8-20.1,15.3-22.4,24.1-51.2,26.2-85.5.1-1.9-.8-3.8-2.4-4.9-1.6-1.1-3.6-1.3-5.4-.4-9.1,4.3-17.6,8.9-25.5,13.9,1.9,23.6,0,45.5-5.8,65.4"/>
    <path class="rw-green" d="M179.2,35.4c-.9-10.4-2.9-21-4-26.2-.4-2-1.8-3.6-3.7-4.1-.5-.1-1-.2-1.5-.2-1.4,0-2.8.6-3.9,1.7-5.5,5.6-10.6,11.2-15.3,16.9,3.7,9,6.6,17.8,8.9,26.6,5.9-5.1,12.4-10,19.4-14.6"/>
    <path class="rw-yellow" d="M129.1,87.2c6.6-13.1,17.2-24.9,25.2-32.3-4.4-17.8-11.1-34.6-20.4-52.2-1-1.8-2.8-2.9-4.8-2.9s-3.8,1.1-4.8,2.9c-9.4,17.6-16.2,35.2-20.4,52.2,8.3,7.7,19.3,20.3,25.2,32.3"/>
    <path class="rw-green" d="M153.5,133.8c6.9-4.8,13.8-13.3,18.1-25,8.5-22.7,9.3-48,8.1-66-15.3,10.2-39.7,31.6-48,54.5-3.9,10.8-5.7,25.4-2.7,33.6,1.3,3.4,3.4,6,6.3,7.2,4.5,1.9,11.3.5,18.1-4.3"/>
    <path class="rw-yellow" d="M125.7,95.3c-2-4.7-4.3-9.2-7.7-14.2-9.8-14.2-23-27-39.5-38.3-.2,2.7-2.6,31.4,5.9,59.4,6.4,21.3,17.4,30,23.4,33.4,6,3.4,11.6,4.2,18,2.6-6.6-8.9-5.8-27.3,0-42.9"/>
  </g>
</svg>