<?xml version="1.0" encoding="UTF-8"?>
<svg id="Layer_1" data-name="Layer 1" xmlns="http://www.w3.org/2000/svg" viewBox="0 0 400 90">
  <defs>
    <style>
      .cls-1 {
        fill: #fff;
      }

      .cls-2 {
        fill: #002664;
      }

      .cls-3 {
        fill: #d7153a;
      }

      .cls-4 {
        fill: #cbedfd;
      }

      .cls-5 {
        stroke: #cbedfd;
      }

      .cls-5, .cls-6 {
        fill: none;
        stroke-width: .5px;
      }

      .cls-7 {
        opacity: .4;
      }

      .cls-6 {
        stroke: #d7153a;
      }

      .cls-8 {
        fill: #146cfd;
      }
    </style>
  </defs>
  <g>
    <rect class="cls-2" x="-10.4" width="420.79" height="55.62"/>
    <rect class="cls-4" x="-10.4" y="55.62" width="420.79" height="34.38"/>
    <rect class="cls-8" x="-10.4" y="55.62" width="420.79" height="10"/>
  </g>
  <g>
    <path class="cls-2" d="M73.98,80.64c-.55,0-1.02-.13-1.41-.38-.39-.25-.69-.62-.9-1.08-.21-.47-.31-1.03-.31-1.69s.1-1.21.31-1.67c.21-.46.51-.81.9-1.06.39-.24.86-.37,1.42-.37.44,0,.83.09,1.16.27.34.18.61.42.82.72.21.3.33.64.37,1h-.96c-.04-.23-.12-.44-.24-.62s-.28-.33-.47-.44c-.2-.11-.43-.16-.7-.16-.34,0-.64.08-.88.24-.24.16-.42.42-.55.76-.12.34-.19.79-.19,1.33,0,.82.14,1.42.42,1.8.28.38.68.57,1.2.57.27,0,.5-.06.7-.17s.35-.27.47-.47c.12-.19.2-.41.24-.64h.96c-.03.27-.1.52-.21.77-.11.25-.25.46-.44.66-.19.19-.42.34-.7.46-.28.11-.61.17-.99.17Z"/>
    <path class="cls-2" d="M77.38,80.55v-4.35h.86v.89c.07-.21.17-.39.3-.54s.28-.25.46-.33.36-.11.55-.11c.06,0,.11,0,.17.01.05,0,.1.02.13.04v.87s-.08-.03-.14-.03c-.06,0-.11,0-.15-.01-.19-.01-.36,0-.52.03-.16.03-.29.09-.41.17-.11.08-.2.18-.26.31-.06.13-.09.27-.09.45v2.62h-.9Z"/>
    <path class="cls-2" d="M82.59,80.64c-.41,0-.77-.09-1.09-.27-.31-.18-.56-.43-.73-.76-.17-.33-.26-.72-.26-1.18s.08-.85.24-1.2c.16-.35.39-.62.69-.81s.67-.29,1.09-.29.77.09,1.06.27c.29.18.51.43.66.75.15.32.22.71.22,1.15v.3h-3.06c0,.26.04.49.13.7s.22.37.39.49.39.18.65.18.49-.06.67-.18c.19-.12.31-.29.37-.53h.84c-.05.3-.17.55-.36.76-.19.21-.41.36-.68.47-.26.11-.54.16-.82.16ZM81.41,78.01h2.2c0-.23-.04-.43-.12-.62-.08-.19-.2-.33-.36-.44s-.36-.16-.61-.16-.46.06-.62.18c-.17.12-.29.27-.37.46-.08.19-.12.38-.12.58Z"/>
    <path class="cls-2" d="M86.74,80.64c-.28,0-.53-.05-.75-.15s-.39-.25-.51-.44-.19-.42-.19-.69c0-.48.17-.84.51-1.08.34-.24.89-.36,1.64-.38l.71-.02v-.32c0-.25-.07-.45-.22-.59-.15-.14-.38-.21-.69-.21-.23,0-.44.05-.62.16s-.3.28-.36.53h-.78c.02-.29.1-.53.25-.73.15-.2.36-.35.62-.45.26-.1.57-.15.93-.15.4,0,.72.05.98.16.25.11.44.27.57.47.12.21.19.46.19.76v3.04h-.77l-.07-.8c-.16.33-.37.56-.62.69s-.53.19-.84.19ZM87.02,80.01c.14,0,.27-.02.41-.07.13-.05.26-.12.37-.2.11-.08.2-.18.26-.29.07-.11.1-.22.1-.33v-.71h-.59c-.3.01-.55.04-.76.1-.21.06-.37.15-.48.27s-.17.29-.17.49c0,.23.08.41.24.54.16.13.37.2.62.2Z"/>
    <path class="cls-2" d="M91.85,80.58c-.32,0-.57-.04-.75-.13-.18-.09-.3-.21-.37-.38-.07-.16-.11-.36-.11-.59v-2.63h-.71v-.65h.74l.22-1.28h.66v1.27h.98v.65h-.98v2.59c0,.14.02.25.05.31.03.07.08.11.15.13.07.02.17.03.29.03h.5v.58c-.05.02-.14.04-.25.06-.11.02-.25.03-.43.03Z"/>
    <path class="cls-2" d="M93.51,75.37v-.89h.9v.89h-.9ZM93.53,80.55v-4.35h.87v4.35h-.87Z"/>
    <path class="cls-2" d="M95.64,80.55v-4.35h.88v.63c.07-.12.16-.23.28-.33.12-.1.27-.19.44-.25.18-.06.38-.1.61-.1.27,0,.52.05.75.16.23.11.42.28.56.5.14.23.21.52.21.88v2.85h-.9v-2.75c0-.31-.08-.54-.25-.69-.17-.15-.38-.23-.64-.23-.18,0-.34.03-.5.09-.16.06-.29.15-.39.27-.1.12-.15.27-.15.45v2.87h-.9Z"/>
    <path class="cls-2" d="M102.41,81.99c-.71,0-1.25-.1-1.64-.3-.39-.2-.58-.47-.58-.83,0-.15.04-.29.11-.39.07-.11.16-.2.27-.27.1-.07.2-.13.28-.17.09-.04.14-.07.17-.09-.05-.03-.11-.06-.18-.11-.07-.04-.14-.1-.2-.18s-.09-.17-.09-.29c0-.14.07-.27.2-.39s.33-.21.6-.26c-.26-.13-.47-.31-.61-.53-.14-.22-.22-.45-.22-.7,0-.28.08-.53.24-.73.16-.21.38-.36.67-.47s.63-.16,1.02-.16c.29,0,.53.03.72.1s.37.15.53.27c.05-.02.13-.05.23-.09.1-.04.21-.08.33-.13.12-.05.23-.09.34-.14.11-.04.2-.08.26-.11v.78s-.76.14-.76.14c.04.08.07.18.09.28.02.1.04.19.04.28,0,.25-.07.48-.21.7-.14.21-.34.38-.62.51-.27.13-.62.19-1.03.19-.04,0-.09,0-.15,0-.06,0-.11,0-.16-.01-.26,0-.44.04-.54.09-.1.05-.15.11-.15.17,0,.08.06.13.19.16.13.03.33.05.62.07.1,0,.24.02.4.02.16,0,.34.02.54.03.48.03.84.15,1.09.36s.38.49.38.84c0,.4-.18.72-.54.98-.36.25-.91.38-1.65.38ZM102.57,81.44c.38,0,.67-.06.87-.17s.29-.28.29-.49c0-.16-.06-.3-.19-.4-.12-.1-.31-.16-.57-.18l-1.16-.07c-.11,0-.23.02-.34.07-.11.06-.21.13-.28.23-.07.1-.11.21-.11.33,0,.22.12.39.36.5.24.12.62.17,1.12.17ZM102.41,78.35c.29,0,.53-.07.7-.21.18-.14.27-.34.27-.61s-.09-.49-.27-.64c-.18-.15-.41-.23-.7-.23s-.53.08-.71.23c-.18.15-.27.36-.27.63s.09.46.26.61.41.22.73.22Z"/>
    <path class="cls-2" d="M108.72,80.55l-1.36-4.35h.82l.95,3.17h.06l.93-3.17h.67l.96,3.16h.06l.92-3.16h.83l-1.35,4.35h-.82l-.94-3.05-.9,3.05h-.81Z"/>
    <path class="cls-2" d="M116.13,80.64c-.41,0-.76-.09-1.06-.26-.3-.18-.54-.43-.71-.76-.17-.33-.25-.74-.25-1.21s.08-.86.24-1.2c.16-.34.39-.61.69-.8.3-.19.67-.28,1.1-.28s.76.09,1.06.27c.3.18.53.44.7.78.17.34.25.75.25,1.23,0,.44-.08.83-.23,1.17-.15.34-.38.6-.68.79-.3.19-.67.28-1.1.28ZM116.14,79.94c.25,0,.46-.06.62-.2.17-.13.29-.31.37-.55.08-.24.13-.51.13-.82,0-.29-.04-.55-.11-.79-.07-.24-.19-.42-.36-.57-.16-.14-.38-.21-.65-.21-.25,0-.46.06-.63.19-.17.13-.3.31-.38.54-.08.23-.13.51-.13.83,0,.28.04.54.11.78s.2.43.36.57c.17.14.39.21.66.21Z"/>
    <path class="cls-2" d="M119.13,80.55v-4.35h.86v.89c.07-.21.17-.39.3-.54s.28-.25.46-.33.36-.11.55-.11c.06,0,.11,0,.17.01.05,0,.1.02.13.04v.87s-.08-.03-.14-.03c-.06,0-.11,0-.15-.01-.19-.01-.36,0-.52.03-.16.03-.29.09-.41.17-.11.08-.2.18-.26.31-.06.13-.09.27-.09.45v2.62h-.9Z"/>
    <path class="cls-2" d="M123.64,80.61c-.26,0-.46-.03-.62-.1-.16-.07-.27-.16-.35-.27-.08-.11-.14-.24-.16-.39-.03-.14-.04-.29-.04-.45v-5.1h.89v5.01c0,.2.04.36.12.46.08.11.2.17.37.18h.23v.58c-.07.02-.14.04-.22.05-.07.01-.14.02-.21.02Z"/>
    <path class="cls-2" d="M126.67,80.64c-.57,0-1.02-.2-1.35-.59-.33-.39-.49-.96-.49-1.69,0-.45.07-.84.2-1.18.13-.33.33-.59.59-.78.26-.18.59-.28.98-.28.19,0,.37.02.52.07.15.05.29.11.4.19.12.08.21.16.29.24.08.09.14.17.18.24v-2.56h.91v6.25h-.68l-.1-.89c-.03.1-.08.2-.14.31-.06.11-.15.22-.26.32-.11.1-.25.18-.42.25s-.38.1-.62.1ZM126.84,79.96c.4,0,.7-.13.87-.38s.27-.67.27-1.25c0-.33-.04-.61-.12-.83-.08-.23-.2-.4-.36-.52-.16-.12-.38-.17-.65-.17-.33,0-.61.12-.82.36-.21.24-.32.63-.32,1.16s.1.93.29,1.21c.19.28.47.42.83.42Z"/>
    <path class="cls-2" d="M130.02,78.73v-.69h2.18s0,.68,0,.68h-2.18Z"/>
    <path class="cls-2" d="M135.11,80.64c-.39,0-.74-.09-1.05-.26-.31-.17-.55-.43-.72-.76-.17-.33-.26-.74-.26-1.22,0-.45.08-.85.24-1.19s.39-.61.7-.8.67-.29,1.09-.29c.33,0,.62.06.87.19.25.13.46.3.62.53.16.23.25.49.29.79h-.78c-.02-.14-.08-.28-.16-.4-.08-.12-.19-.22-.33-.3-.14-.07-.3-.11-.49-.11-.35,0-.63.13-.85.38-.22.26-.33.65-.33,1.17,0,.48.1.87.31,1.15s.5.43.89.43c.19,0,.35-.04.49-.12.14-.08.25-.18.33-.3.08-.12.14-.25.16-.38h.77c-.03.29-.13.55-.29.77-.16.22-.36.39-.62.52-.25.12-.54.19-.86.19Z"/>
    <path class="cls-2" d="M139.08,80.61c-.26,0-.46-.03-.62-.1-.16-.07-.27-.16-.35-.27-.08-.11-.14-.24-.16-.39-.03-.14-.04-.29-.04-.45v-5.1h.89v5.01c0,.2.04.36.12.46.08.11.2.17.37.18h.23v.58c-.07.02-.14.04-.22.05-.07.01-.14.02-.21.02Z"/>
    <path class="cls-2" d="M141.75,80.64c-.28,0-.53-.05-.75-.15s-.39-.25-.51-.44-.19-.42-.19-.69c0-.48.17-.84.51-1.08.34-.24.89-.36,1.64-.38l.71-.02v-.32c0-.25-.07-.45-.22-.59-.15-.14-.38-.21-.69-.21-.23,0-.44.05-.62.16s-.3.28-.36.53h-.78c.02-.29.1-.53.25-.73.15-.2.36-.35.62-.45.26-.1.57-.15.93-.15.4,0,.72.05.98.16.25.11.44.27.57.47.12.21.19.46.19.76v3.04h-.77l-.07-.8c-.16.33-.37.56-.62.69s-.53.19-.84.19ZM142.03,80.01c.14,0,.27-.02.41-.07.13-.05.26-.12.37-.2.11-.08.2-.18.26-.29.07-.11.1-.22.1-.33v-.71h-.59c-.3.01-.55.04-.76.1-.21.06-.37.15-.48.27s-.17.29-.17.49c0,.23.08.41.24.54.16.13.37.2.62.2Z"/>
    <path class="cls-2" d="M146.8,80.64c-.3,0-.59-.05-.85-.14-.27-.09-.49-.25-.66-.45-.18-.21-.29-.47-.33-.79h.8c.04.17.11.3.21.41.1.11.23.19.37.24.14.05.3.08.46.08.27,0,.5-.05.67-.15.17-.1.25-.25.25-.46,0-.15-.05-.27-.14-.36-.09-.09-.23-.16-.43-.2l-.87-.21c-.36-.08-.65-.22-.86-.4s-.33-.44-.33-.77c0-.25.06-.48.19-.68.13-.2.32-.35.57-.47.25-.11.57-.17.94-.17.49,0,.89.11,1.18.33s.45.54.46.95h-.78c-.03-.2-.12-.36-.27-.47s-.35-.17-.6-.17-.47.05-.63.15c-.17.1-.25.26-.25.47,0,.14.06.26.18.34.12.08.3.15.54.2l.82.21c.21.06.39.13.53.22.14.09.25.19.32.3.08.11.13.22.17.34.03.12.05.23.05.33,0,.27-.07.51-.21.7-.14.19-.34.34-.59.45-.26.11-.56.16-.92.16Z"/>
    <path class="cls-2" d="M151.1,80.64c-.3,0-.59-.05-.85-.14-.27-.09-.49-.25-.66-.45-.18-.21-.29-.47-.33-.79h.8c.04.17.11.3.21.41.1.11.23.19.37.24.14.05.3.08.46.08.27,0,.5-.05.67-.15.17-.1.25-.25.25-.46,0-.15-.05-.27-.14-.36-.09-.09-.23-.16-.43-.2l-.87-.21c-.36-.08-.65-.22-.86-.4s-.33-.44-.33-.77c0-.25.06-.48.19-.68.13-.2.32-.35.57-.47.25-.11.57-.17.94-.17.49,0,.89.11,1.18.33s.45.54.46.95h-.78c-.03-.2-.12-.36-.27-.47s-.35-.17-.6-.17-.47.05-.63.15c-.17.1-.25.26-.25.47,0,.14.06.26.18.34.12.08.3.15.54.2l.82.21c.21.06.39.13.53.22.14.09.25.19.32.3.08.11.13.22.17.34.03.12.05.23.05.33,0,.27-.07.51-.21.7-.14.19-.34.34-.59.45-.26.11-.56.16-.92.16Z"/>
    <path class="cls-2" d="M157.39,80.64c-.57,0-1.02-.2-1.35-.59-.33-.39-.49-.96-.49-1.69,0-.45.07-.84.2-1.18.13-.33.33-.59.59-.78.26-.18.59-.28.98-.28.19,0,.37.02.52.07.15.05.29.11.4.19.12.08.21.16.29.24.08.09.14.17.18.24v-2.56h.91v6.25h-.68l-.1-.89c-.03.1-.08.2-.14.31-.06.11-.15.22-.26.32-.11.1-.25.18-.42.25s-.38.1-.62.1ZM157.56,79.96c.4,0,.7-.13.87-.38s.27-.67.27-1.25c0-.33-.04-.61-.12-.83-.08-.23-.2-.4-.36-.52-.16-.12-.38-.17-.65-.17-.33,0-.61.12-.82.36-.21.24-.32.63-.32,1.16s.1.93.29,1.21c.19.28.47.42.83.42Z"/>
    <path class="cls-2" d="M160.83,75.37v-.89h.9v.89h-.9ZM160.85,80.55v-4.35h.87v4.35h-.87Z"/>
    <path class="cls-2" d="M164.84,81.99c-.71,0-1.25-.1-1.64-.3-.39-.2-.58-.47-.58-.83,0-.15.04-.29.11-.39.07-.11.16-.2.27-.27.1-.07.2-.13.28-.17.09-.04.14-.07.17-.09-.05-.03-.11-.06-.18-.11-.07-.04-.14-.1-.2-.18s-.09-.17-.09-.29c0-.14.07-.27.2-.39s.33-.21.6-.26c-.26-.13-.47-.31-.61-.53-.14-.22-.22-.45-.22-.7,0-.28.08-.53.24-.73.16-.21.38-.36.67-.47s.63-.16,1.02-.16c.29,0,.53.03.72.1s.37.15.53.27c.05-.02.13-.05.23-.09.1-.04.21-.08.33-.13.12-.05.23-.09.34-.14.11-.04.2-.08.26-.11v.78s-.76.14-.76.14c.04.08.07.18.09.28.02.1.04.19.04.28,0,.25-.07.48-.21.7-.14.21-.34.38-.62.51-.27.13-.62.19-1.03.19-.04,0-.09,0-.15,0-.06,0-.11,0-.16-.01-.26,0-.44.04-.54.09-.1.05-.15.11-.15.17,0,.08.06.13.19.16.13.03.33.05.62.07.1,0,.24.02.4.02.16,0,.34.02.54.03.48.03.84.15,1.09.36s.38.49.38.84c0,.4-.18.72-.54.98-.36.25-.91.38-1.65.38ZM165,81.44c.38,0,.67-.06.87-.17s.29-.28.29-.49c0-.16-.06-.3-.19-.4-.12-.1-.31-.16-.57-.18l-1.16-.07c-.11,0-.23.02-.34.07-.11.06-.21.13-.28.23-.07.1-.11.21-.11.33,0,.22.12.39.36.5.24.12.62.17,1.12.17ZM164.84,78.35c.29,0,.53-.07.7-.21.18-.14.27-.34.27-.61s-.09-.49-.27-.64c-.18-.15-.41-.23-.7-.23s-.53.08-.71.23c-.18.15-.27.36-.27.63s.09.46.26.61.41.22.73.22Z"/>
    <path class="cls-2" d="M168.2,75.37v-.89h.9v.89h-.9ZM168.22,80.55v-4.35h.87v4.35h-.87Z"/>
    <path class="cls-2" d="M172,80.58c-.32,0-.57-.04-.75-.13-.18-.09-.3-.21-.37-.38-.07-.16-.11-.36-.11-.59v-2.63h-.71v-.65h.74l.22-1.28h.66v1.27h.98v.65h-.98v2.59c0,.14.02.25.05.31.03.07.08.11.15.13.07.02.17.03.29.03h.5v.58c-.05.02-.14.04-.25.06-.11.02-.25.03-.43.03Z"/>
    <path class="cls-2" d="M174.9,80.64c-.28,0-.53-.05-.75-.15s-.39-.25-.51-.44-.19-.42-.19-.69c0-.48.17-.84.51-1.08.34-.24.89-.36,1.64-.38l.71-.02v-.32c0-.25-.07-.45-.22-.59-.15-.14-.38-.21-.69-.21-.23,0-.44.05-.62.16s-.3.28-.36.53h-.78c.02-.29.1-.53.25-.73.15-.2.36-.35.62-.45.26-.1.57-.15.93-.15.4,0,.72.05.98.16.25.11.44.27.57.47.12.21.19.46.19.76v3.04h-.77l-.07-.8c-.16.33-.37.56-.62.69s-.53.19-.84.19ZM175.18,80.01c.14,0,.27-.02.41-.07.13-.05.26-.12.37-.2.11-.08.2-.18.26-.29.07-.11.1-.22.1-.33v-.71h-.59c-.3.01-.55.04-.76.1-.21.06-.37.15-.48.27s-.17.29-.17.49c0,.23.08.41.24.54.16.13.37.2.62.2Z"/>
    <path class="cls-2" d="M179.52,80.61c-.26,0-.46-.03-.62-.1-.16-.07-.27-.16-.35-.27-.08-.11-.14-.24-.16-.39-.03-.14-.04-.29-.04-.45v-5.1h.89v5.01c0,.2.04.36.12.46.08.11.2.17.37.18h.23v.58c-.07.02-.14.04-.22.05-.07.01-.14.02-.21.02Z"/>
    <path class="cls-2" d="M184.83,80.64c-.41,0-.77-.09-1.09-.27-.31-.18-.56-.43-.73-.76-.17-.33-.26-.72-.26-1.18s.08-.85.24-1.2c.16-.35.39-.62.69-.81s.67-.29,1.09-.29.77.09,1.06.27c.29.18.51.43.66.75.15.32.22.71.22,1.15v.3h-3.06c0,.26.04.49.13.7s.22.37.39.49.39.18.65.18.49-.06.67-.18c.19-.12.31-.29.37-.53h.84c-.05.3-.17.55-.36.76-.19.21-.41.36-.68.47-.26.11-.54.16-.82.16ZM183.65,78.01h2.2c0-.23-.04-.43-.12-.62-.08-.19-.2-.33-.36-.44s-.36-.16-.61-.16-.46.06-.62.18c-.17.12-.29.27-.37.46-.08.19-.12.38-.12.58Z"/>
    <path class="cls-2" d="M187.36,80.55l1.67-2.26-1.53-2.09h.97l1.07,1.44,1.06-1.44h.97l-1.55,2.09,1.68,2.26h-.97l-1.2-1.62-1.2,1.62h-.97Z"/>
    <path class="cls-2" d="M192.54,81.91v-5.7h.9v.72c.06-.1.13-.19.21-.28.08-.09.18-.18.3-.26s.25-.14.4-.19.32-.07.5-.07c.34,0,.64.08.91.24s.47.4.61.73.22.74.22,1.24-.07.93-.22,1.27c-.15.34-.36.6-.63.78-.27.17-.59.26-.97.26-.18,0-.34-.03-.48-.08-.14-.05-.27-.12-.38-.2s-.2-.17-.28-.27c-.08-.1-.14-.19-.19-.29v2.1h-.9ZM194.58,79.95c.33,0,.61-.13.82-.39.21-.26.32-.66.32-1.21,0-.48-.1-.85-.3-1.13s-.48-.41-.85-.41-.66.14-.86.43-.29.66-.29,1.11c0,.29.04.56.13.8s.21.44.38.58c.17.15.38.22.63.22Z"/>
    <path class="cls-2" d="M199.45,80.64c-.41,0-.77-.09-1.09-.27-.31-.18-.56-.43-.73-.76-.17-.33-.26-.72-.26-1.18s.08-.85.24-1.2c.16-.35.39-.62.69-.81s.67-.29,1.09-.29.77.09,1.06.27c.29.18.51.43.66.75.15.32.22.71.22,1.15v.3h-3.06c0,.26.04.49.13.7s.22.37.39.49.39.18.65.18.49-.06.67-.18c.19-.12.31-.29.37-.53h.84c-.05.3-.17.55-.36.76-.19.21-.41.36-.68.47-.26.11-.54.16-.82.16ZM198.27,78.01h2.2c0-.23-.04-.43-.12-.62-.08-.19-.2-.33-.36-.44s-.36-.16-.61-.16-.46.06-.62.18c-.17.12-.29.27-.37.46-.08.19-.12.38-.12.58Z"/>
    <path class="cls-2" d="M202.36,80.55v-4.35h.86v.89c.07-.21.17-.39.3-.54s.28-.25.46-.33.36-.11.55-.11c.06,0,.11,0,.17.01.05,0,.1.02.13.04v.87s-.08-.03-.14-.03c-.06,0-.11,0-.15-.01-.19-.01-.36,0-.52.03-.16.03-.29.09-.41.17-.11.08-.2.18-.26.31-.06.13-.09.27-.09.45v2.62h-.9Z"/>
    <path class="cls-2" d="M205.69,75.37v-.89h.9v.89h-.9ZM205.71,80.55v-4.35h.87v4.35h-.87Z"/>
    <path class="cls-2" d="M209.7,80.64c-.41,0-.77-.09-1.09-.27-.31-.18-.56-.43-.73-.76-.17-.33-.26-.72-.26-1.18s.08-.85.24-1.2c.16-.35.39-.62.69-.81s.67-.29,1.09-.29.77.09,1.06.27c.29.18.51.43.66.75.15.32.22.71.22,1.15v.3h-3.06c0,.26.04.49.13.7s.22.37.39.49.39.18.65.18.49-.06.67-.18c.19-.12.31-.29.37-.53h.84c-.05.3-.17.55-.36.76-.19.21-.41.36-.68.47-.26.11-.54.16-.82.16ZM208.52,78.01h2.2c0-.23-.04-.43-.12-.62-.08-.19-.2-.33-.36-.44s-.36-.16-.61-.16-.46.06-.62.18c-.17.12-.29.27-.37.46-.08.19-.12.38-.12.58Z"/>
    <path class="cls-2" d="M212.6,80.55v-4.35h.88v.63c.07-.12.16-.23.28-.33.12-.1.27-.19.44-.25.18-.06.38-.1.61-.1.27,0,.52.05.75.16.23.11.42.28.56.5.14.23.21.52.21.88v2.85h-.9v-2.75c0-.31-.08-.54-.25-.69-.17-.15-.38-.23-.64-.23-.18,0-.34.03-.5.09-.16.06-.29.15-.39.27-.1.12-.15.27-.15.45v2.87h-.9Z"/>
    <path class="cls-2" d="M219.28,80.64c-.39,0-.74-.09-1.05-.26-.31-.17-.55-.43-.72-.76-.17-.33-.26-.74-.26-1.22,0-.45.08-.85.24-1.19s.39-.61.7-.8.67-.29,1.09-.29c.33,0,.62.06.87.19.25.13.46.3.62.53.16.23.25.49.29.79h-.78c-.02-.14-.08-.28-.16-.4-.08-.12-.19-.22-.33-.3-.14-.07-.3-.11-.49-.11-.35,0-.63.13-.85.38-.22.26-.33.65-.33,1.17,0,.48.1.87.31,1.15s.5.43.89.43c.19,0,.35-.04.49-.12.14-.08.25-.18.33-.3.08-.12.14-.25.16-.38h.77c-.03.29-.13.55-.29.77-.16.22-.36.39-.62.52-.25.12-.54.19-.86.19Z"/>
    <path class="cls-2" d="M223.96,80.64c-.41,0-.77-.09-1.09-.27-.31-.18-.56-.43-.73-.76-.17-.33-.26-.72-.26-1.18s.08-.85.24-1.2c.16-.35.39-.62.69-.81s.67-.29,1.09-.29.77.09,1.06.27c.29.18.51.43.66.75.15.32.22.71.22,1.15v.3h-3.06c0,.26.04.49.13.7s.22.37.39.49.39.18.65.18.49-.06.67-.18c.19-.12.31-.29.37-.53h.84c-.05.3-.17.55-.36.76-.19.21-.41.36-.68.47-.26.11-.54.16-.82.16ZM222.77,78.01h2.2c0-.23-.04-.43-.12-.62-.08-.19-.2-.33-.36-.44s-.36-.16-.61-.16-.46.06-.62.18c-.17.12-.29.27-.37.46-.08.19-.12.38-.12.58Z"/>
    <path class="cls-2" d="M228.48,80.64c-.3,0-.59-.05-.85-.14-.27-.09-.49-.25-.66-.45-.18-.21-.29-.47-.33-.79h.8c.04.17.11.3.21.41.1.11.23.19.37.24.14.05.3.08.46.08.27,0,.5-.05.67-.15.17-.1.25-.25.25-.46,0-.15-.05-.27-.14-.36-.09-.09-.23-.16-.43-.2l-.87-.21c-.36-.08-.65-.22-.86-.4s-.33-.44-.33-.77c0-.25.06-.48.19-.68.13-.2.32-.35.57-.47.25-.11.57-.17.94-.17.49,0,.89.11,1.18.33s.45.54.46.95h-.78c-.03-.2-.12-.36-.27-.47s-.35-.17-.6-.17-.47.05-.63.15c-.17.1-.25.26-.25.47,0,.14.06.26.18.34.12.08.3.15.54.2l.82.21c.21.06.39.13.53.22.14.09.25.19.32.3.08.11.13.22.17.34.03.12.05.23.05.33,0,.27-.07.51-.21.7-.14.19-.34.34-.59.45-.26.11-.56.16-.92.16Z"/>
    <path class="cls-2" d="M230.93,81.64l.48-1.07-.38-.03v-1h1.04v.87l-.75,1.22h-.39Z"/>
    <path class="cls-2" d="M235.27,81.91v-5.7h.9v.72c.06-.1.13-.19.21-.28.08-.09.18-.18.3-.26s.25-.14.4-.19.32-.07.5-.07c.34,0,.64.08.91.24s.47.4.61.73.22.74.22,1.24-.07.93-.22,1.27c-.15.34-.36.6-.63.78-.27.17-.59.26-.97.26-.18,0-.34-.03-.48-.08-.14-.05-.27-.12-.38-.2s-.2-.17-.28-.27c-.08-.1-.14-.19-.19-.29v2.1h-.9ZM237.32,79.95c.33,0,.61-.13.82-.39.21-.26.32-.66.32-1.21,0-.48-.1-.85-.3-1.13s-.48-.41-.85-.41-.66.14-.86.43-.29.66-.29,1.11c0,.29.04.56.13.8s.21.44.38.58c.17.15.38.22.63.22Z"/>
    <path class="cls-2" d="M241.48,80.61c-.26,0-.46-.03-.62-.1-.16-.07-.27-.16-.35-.27-.08-.11-.14-.24-.16-.39-.03-.14-.04-.29-.04-.45v-5.1h.89v5.01c0,.2.04.36.12.46.08.11.2.17.37.18h.23v.58c-.07.02-.14.04-.22.05-.07.01-.14.02-.21.02Z"/>
    <path class="cls-2" d="M244.15,80.64c-.28,0-.53-.05-.75-.15s-.39-.25-.51-.44-.19-.42-.19-.69c0-.48.17-.84.51-1.08.34-.24.89-.36,1.64-.38l.71-.02v-.32c0-.25-.07-.45-.22-.59-.15-.14-.38-.21-.69-.21-.23,0-.44.05-.62.16s-.3.28-.36.53h-.78c.02-.29.1-.53.25-.73.15-.2.36-.35.62-.45.26-.1.57-.15.93-.15.4,0,.72.05.98.16.25.11.44.27.57.47.12.21.19.46.19.76v3.04h-.77l-.07-.8c-.16.33-.37.56-.62.69s-.53.19-.84.19ZM244.44,80.01c.14,0,.27-.02.41-.07.13-.05.26-.12.37-.2.11-.08.2-.18.26-.29.07-.11.1-.22.1-.33v-.71h-.59c-.3.01-.55.04-.76.1-.21.06-.37.15-.48.27s-.17.29-.17.49c0,.23.08.41.24.54.16.13.37.2.62.2Z"/>
    <path class="cls-2" d="M249.26,80.58c-.32,0-.57-.04-.75-.13-.18-.09-.3-.21-.37-.38-.07-.16-.11-.36-.11-.59v-2.63h-.71v-.65h.74l.22-1.28h.66v1.27h.98v.65h-.98v2.59c0,.14.02.25.05.31.03.07.08.11.15.13.07.02.17.03.29.03h.5v.58c-.05.02-.14.04-.25.06-.11.02-.25.03-.43.03Z"/>
    <path class="cls-2" d="M251.48,80.55v-3.7h-.89v-.65h.89v-.66c0-.35.09-.61.28-.8s.45-.28.81-.28h.87v.63s-.63,0-.63,0c-.17,0-.29.04-.35.13-.06.09-.09.23-.09.42v.55h1.03v.65h-1.02v3.7h-.9Z"/>
    <path class="cls-2" d="M256.04,80.64c-.41,0-.76-.09-1.06-.26-.3-.18-.54-.43-.71-.76-.17-.33-.25-.74-.25-1.21s.08-.86.24-1.2c.16-.34.39-.61.69-.8.3-.19.67-.28,1.1-.28s.76.09,1.06.27c.3.18.53.44.7.78.17.34.25.75.25,1.23,0,.44-.08.83-.23,1.17-.15.34-.38.6-.68.79-.3.19-.67.28-1.1.28ZM256.04,79.94c.25,0,.46-.06.62-.2.17-.13.29-.31.37-.55.08-.24.13-.51.13-.82,0-.29-.04-.55-.11-.79-.07-.24-.19-.42-.36-.57-.16-.14-.38-.21-.65-.21-.25,0-.46.06-.63.19-.17.13-.3.31-.38.54-.08.23-.13.51-.13.83,0,.28.04.54.11.78s.2.43.36.57c.17.14.39.21.66.21Z"/>
    <path class="cls-2" d="M259.03,80.55v-4.35h.86v.89c.07-.21.17-.39.3-.54s.28-.25.46-.33.36-.11.55-.11c.06,0,.11,0,.17.01.05,0,.1.02.13.04v.87s-.08-.03-.14-.03c-.06,0-.11,0-.15-.01-.19-.01-.36,0-.52.03-.16.03-.29.09-.41.17-.11.08-.2.18-.26.31-.06.13-.09.27-.09.45v2.62h-.9Z"/>
    <path class="cls-2" d="M262.37,80.55v-4.35h.87v.63c.12-.19.29-.36.5-.5.21-.14.49-.21.82-.21.16,0,.32.03.48.08.16.05.31.13.45.24.14.11.24.23.32.39.14-.21.32-.38.55-.51s.49-.2.77-.2c.15,0,.31.02.48.07.17.05.32.13.46.25s.26.28.34.48c.09.21.13.46.13.78v2.85h-.9v-2.75c0-.24-.04-.42-.12-.56-.08-.13-.18-.23-.31-.28-.13-.05-.26-.08-.41-.08-.13,0-.26.02-.4.08s-.26.13-.36.25c-.1.12-.15.28-.15.48v2.87h-.9v-2.95c0-.16-.04-.29-.13-.4-.09-.11-.19-.19-.32-.25s-.25-.08-.38-.08c-.14,0-.28.03-.42.08-.14.06-.26.14-.35.26-.09.12-.14.27-.14.46v2.87h-.9Z"/>
    <path class="cls-2" d="M271.33,80.64c-.3,0-.59-.05-.85-.14-.27-.09-.49-.25-.66-.45-.18-.21-.29-.47-.33-.79h.8c.04.17.11.3.21.41.1.11.23.19.37.24.14.05.3.08.46.08.27,0,.5-.05.67-.15.17-.1.25-.25.25-.46,0-.15-.05-.27-.14-.36-.09-.09-.23-.16-.43-.2l-.87-.21c-.36-.08-.65-.22-.86-.4s-.33-.44-.33-.77c0-.25.06-.48.19-.68.13-.2.32-.35.57-.47.25-.11.57-.17.94-.17.49,0,.89.11,1.18.33s.45.54.46.95h-.78c-.03-.2-.12-.36-.27-.47s-.35-.17-.6-.17-.47.05-.63.15c-.17.1-.25.26-.25.47,0,.14.06.26.18.34.12.08.3.15.54.2l.82.21c.21.06.39.13.53.22.14.09.25.19.32.3.08.11.13.22.17.34.03.12.05.23.05.33,0,.27-.07.51-.21.7-.14.19-.34.34-.59.45-.26.11-.56.16-.92.16Z"/>
    <path class="cls-2" d="M277.25,80.64c-.28,0-.53-.05-.75-.15s-.39-.25-.51-.44-.19-.42-.19-.69c0-.48.17-.84.51-1.08.34-.24.89-.36,1.64-.38l.71-.02v-.32c0-.25-.07-.45-.22-.59-.15-.14-.38-.21-.69-.21-.23,0-.44.05-.62.16s-.3.28-.36.53h-.78c.02-.29.1-.53.25-.73.15-.2.36-.35.62-.45.26-.1.57-.15.93-.15.4,0,.72.05.98.16.25.11.44.27.57.47.12.21.19.46.19.76v3.04h-.77l-.07-.8c-.16.33-.37.56-.62.69s-.53.19-.84.19ZM277.53,80.01c.14,0,.27-.02.41-.07.13-.05.26-.12.37-.2.11-.08.2-.18.26-.29.07-.11.1-.22.1-.33v-.71h-.59c-.3.01-.55.04-.76.1-.21.06-.37.15-.48.27s-.17.29-.17.49c0,.23.08.41.24.54.16.13.37.2.62.2Z"/>
    <path class="cls-2" d="M280.69,80.55v-4.35h.88v.63c.07-.12.16-.23.28-.33.12-.1.27-.19.44-.25.18-.06.38-.1.61-.1.27,0,.52.05.75.16.23.11.42.28.56.5.14.23.21.52.21.88v2.85h-.9v-2.75c0-.31-.08-.54-.25-.69-.17-.15-.38-.23-.64-.23-.18,0-.34.03-.5.09-.16.06-.29.15-.39.27-.1.12-.15.27-.15.45v2.87h-.9Z"/>
    <path class="cls-2" d="M287.18,80.64c-.57,0-1.02-.2-1.35-.59-.33-.39-.49-.96-.49-1.69,0-.45.07-.84.2-1.18.13-.33.33-.59.59-.78.26-.18.59-.28.98-.28.19,0,.37.02.52.07.15.05.29.11.4.19.12.08.21.16.29.24.08.09.14.17.18.24v-2.56h.91v6.25h-.68l-.1-.89c-.03.1-.08.2-.14.31-.06.11-.15.22-.26.32-.11.1-.25.18-.42.25s-.38.1-.62.1ZM287.35,79.96c.4,0,.7-.13.87-.38s.27-.67.27-1.25c0-.33-.04-.61-.12-.83-.08-.23-.2-.4-.36-.52-.16-.12-.38-.17-.65-.17-.33,0-.61.12-.82.36-.21.24-.32.63-.32,1.16s.1.93.29,1.21c.19.28.47.42.83.42Z"/>
    <path class="cls-2" d="M294.24,80.64c-.3,0-.59-.05-.85-.14-.27-.09-.49-.25-.66-.45-.18-.21-.29-.47-.33-.79h.8c.04.17.11.3.21.41.1.11.23.19.37.24.14.05.3.08.46.08.27,0,.5-.05.67-.15.17-.1.25-.25.25-.46,0-.15-.05-.27-.14-.36-.09-.09-.23-.16-.43-.2l-.87-.21c-.36-.08-.65-.22-.86-.4s-.33-.44-.33-.77c0-.25.06-.48.19-.68.13-.2.32-.35.57-.47.25-.11.57-.17.94-.17.49,0,.89.11,1.18.33s.45.54.46.95h-.78c-.03-.2-.12-.36-.27-.47s-.35-.17-.6-.17-.47.05-.63.15c-.17.1-.25.26-.25.47,0,.14.06.26.18.34.12.08.3.15.54.2l.82.21c.21.06.39.13.53.22.14.09.25.19.32.3.08.11.13.22.17.34.03.12.05.23.05.33,0,.27-.07.51-.21.7-.14.19-.34.34-.59.45-.26.11-.56.16-.92.16Z"/>
    <path class="cls-2" d="M298.71,80.64c-.41,0-.76-.09-1.06-.26-.3-.18-.54-.43-.71-.76-.17-.33-.25-.74-.25-1.21s.08-.86.24-1.2c.16-.34.39-.61.69-.8.3-.19.67-.28,1.1-.28s.76.09,1.06.27c.3.18.53.44.7.78.17.34.25.75.25,1.23,0,.44-.08.83-.23,1.17-.15.34-.38.6-.68.79-.3.19-.67.28-1.1.28ZM298.71,79.94c.25,0,.46-.06.62-.2.17-.13.29-.31.37-.55.08-.24.13-.51.13-.82,0-.29-.04-.55-.11-.79-.07-.24-.19-.42-.36-.57-.16-.14-.38-.21-.65-.21-.25,0-.46.06-.63.19-.17.13-.3.31-.38.54-.08.23-.13.51-.13.83,0,.28.04.54.11.78s.2.43.36.57c.17.14.39.21.66.21Z"/>
    <path class="cls-2" d="M302.88,80.61c-.26,0-.46-.03-.62-.1-.16-.07-.27-.16-.35-.27-.08-.11-.14-.24-.16-.39-.03-.14-.04-.29-.04-.45v-5.1h.89v5.01c0,.2.04.36.12.46.08.11.2.17.37.18h.23v.58c-.07.02-.14.04-.22.05-.07.01-.14.02-.21.02Z"/>
    <path class="cls-2" d="M305.91,80.64c-.22,0-.43-.04-.63-.1-.2-.06-.38-.15-.53-.28-.16-.12-.28-.28-.37-.46-.09-.18-.14-.39-.14-.63v-2.97h.9v2.87c0,.26.08.47.24.63.16.16.41.24.74.24.3,0,.54-.08.71-.23s.27-.38.27-.68v-2.83h.9v4.35h-.7l-.1-.84c-.05.23-.14.41-.27.54s-.28.23-.46.29c-.18.06-.37.09-.57.09Z"/>
    <path class="cls-2" d="M310.89,80.58c-.32,0-.57-.04-.75-.13-.18-.09-.3-.21-.37-.38-.07-.16-.11-.36-.11-.59v-2.63h-.71v-.65h.74l.22-1.28h.66v1.27h.98v.65h-.98v2.59c0,.14.02.25.05.31.03.07.08.11.15.13.07.02.17.03.29.03h.5v.58c-.05.02-.14.04-.25.06-.11.02-.25.03-.43.03Z"/>
    <path class="cls-2" d="M312.56,75.37v-.89h.9v.89h-.9ZM312.58,80.55v-4.35h.87v4.35h-.87Z"/>
    <path class="cls-2" d="M316.46,80.64c-.41,0-.76-.09-1.06-.26-.3-.18-.54-.43-.71-.76-.17-.33-.25-.74-.25-1.21s.08-.86.24-1.2c.16-.34.39-.61.69-.8.3-.19.67-.28,1.1-.28s.76.09,1.06.27c.3.18.53.44.7.78.17.34.25.75.25,1.23,0,.44-.08.83-.23,1.17-.15.34-.38.6-.68.79-.3.19-.67.28-1.1.28ZM316.47,79.94c.25,0,.46-.06.62-.2.17-.13.29-.31.37-.55.08-.24.13-.51.13-.82,0-.29-.04-.55-.11-.79-.07-.24-.19-.42-.36-.57-.16-.14-.38-.21-.65-.21-.25,0-.46.06-.63.19-.17.13-.3.31-.38.54-.08.23-.13.51-.13.83,0,.28.04.54.11.78s.2.43.36.57c.17.14.39.21.66.21Z"/>
    <path class="cls-2" d="M319.46,80.55v-4.35h.88v.63c.07-.12.16-.23.28-.33.12-.1.27-.19.44-.25.18-.06.38-.1.61-.1.27,0,.52.05.75.16.23.11.42.28.56.5.14.23.21.52.21.88v2.85h-.9v-2.75c0-.31-.08-.54-.25-.69-.17-.15-.38-.23-.64-.23-.18,0-.34.03-.5.09-.16.06-.29.15-.39.27-.1.12-.15.27-.15.45v2.87h-.9Z"/>
    <path class="cls-2" d="M325.96,80.64c-.3,0-.59-.05-.85-.14-.27-.09-.49-.25-.66-.45-.18-.21-.29-.47-.33-.79h.8c.04.17.11.3.21.41.1.11.23.19.37.24.14.05.3.08.46.08.27,0,.5-.05.67-.15.17-.1.25-.25.25-.46,0-.15-.05-.27-.14-.36-.09-.09-.23-.16-.43-.2l-.87-.21c-.36-.08-.65-.22-.86-.4s-.33-.44-.33-.77c0-.25.06-.48.19-.68.13-.2.32-.35.57-.47.25-.11.57-.17.94-.17.49,0,.89.11,1.18.33s.45.54.46.95h-.78c-.03-.2-.12-.36-.27-.47s-.35-.17-.6-.17-.47.05-.63.15c-.17.1-.25.26-.25.47,0,.14.06.26.18.34.12.08.3.15.54.2l.82.21c.21.06.39.13.53.22.14.09.25.19.32.3.08.11.13.22.17.34.03.12.05.23.05.33,0,.27-.07.51-.21.7-.14.19-.34.34-.59.45-.26.11-.56.16-.92.16Z"/>
  </g>
  <g class="cls-7">
    <path class="cls-6" d="M54.67,77.15v-3.94c0-.95.22-1.83.67-2.63.45-.81,1.03-1.42,1.74-1.85.71-.42,1.47-.55,2.28-.39v1.4l-.34.04c-.49.04-.95.31-1.38.81s-.64,1.07-.64,1.71v.26l2.37.15v4.43h-4.7Z"/>
    <path class="cls-6" d="M61.25,77.15v-3.94c0-.95.22-1.83.67-2.63.45-.81,1.03-1.42,1.74-1.85.71-.42,1.47-.55,2.28-.39v1.4l-.34.04c-.49.04-.95.31-1.38.81s-.64,1.07-.64,1.71v.26l2.37.15v4.43h-4.7Z"/>
  </g>
  <g class="cls-7">
    <path class="cls-6" d="M345.33,77.19v3.75c0,.9-.21,1.73-.64,2.5-.43.77-.98,1.35-1.66,1.76-.68.4-1.4.53-2.17.37v-1.33l.32-.04c.47-.04.91-.29,1.31-.77s.61-1.02.61-1.63v-.25l-2.25-.14v-4.21h4.46Z"/>
    <path class="cls-6" d="M339.08,77.19v3.75c0,.9-.21,1.73-.64,2.5-.43.77-.98,1.35-1.66,1.76-.68.4-1.4.53-2.17.37v-1.33l.32-.04c.47-.04.91-.29,1.31-.77s.61-1.02.61-1.63v-.25l-2.25-.14v-4.21h4.46Z"/>
  </g>
  <g>
    <g>
      <path class="cls-1" d="M27.67,33.27c-.99,0-1.84-.22-2.57-.67-.73-.45-1.29-1.08-1.68-1.91-.39-.82-.59-1.79-.59-2.92s.21-2.13.62-2.96c.41-.83.99-1.47,1.74-1.92.74-.45,1.61-.68,2.6-.68.64,0,1.22.1,1.75.3.53.2.98.48,1.37.83.39.35.69.75.92,1.19.22.44.34.9.36,1.38h-2.29c-.06-.34-.19-.65-.38-.94-.19-.28-.44-.51-.73-.68s-.64-.26-1.04-.26c-.48,0-.91.12-1.29.37-.39.25-.69.64-.91,1.17-.22.54-.33,1.24-.33,2.12,0,.71.07,1.3.22,1.77.15.47.34.84.59,1.12.25.28.53.47.85.58s.64.17.97.17.6-.05.85-.16.46-.24.64-.41c.18-.17.32-.35.42-.55.1-.2.17-.4.2-.59l.08-.65h-2.22v-1.5l4.5.02v5.62h-1.48v-1.41c-.18.24-.41.48-.68.72-.27.24-.6.44-1,.6-.4.16-.89.23-1.47.23Z"/>
      <path class="cls-1" d="M37.69,33.27c-.75,0-1.41-.16-1.97-.48-.56-.32-.99-.78-1.29-1.37-.31-.59-.46-1.29-.46-2.1s.15-1.51.46-2.12c.3-.6.74-1.08,1.29-1.41.56-.34,1.22-.51,1.98-.51s1.42.17,1.97.49c.56.33.98.8,1.29,1.4.3.61.45,1.32.45,2.14,0,.77-.15,1.46-.44,2.05-.3.59-.72,1.06-1.27,1.4-.55.34-1.22.51-2,.51ZM37.7,31.65c.38,0,.69-.11.92-.33.23-.22.4-.52.51-.88.1-.36.16-.76.16-1.19,0-.41-.05-.79-.14-1.15-.09-.36-.26-.65-.49-.88-.23-.22-.55-.33-.95-.33s-.69.11-.93.32c-.24.21-.41.5-.52.86-.11.36-.16.76-.16,1.19,0,.4.05.79.15,1.16.1.37.27.67.5.9.23.23.55.35.96.35Z"/>
      <path class="cls-1" d="M44.83,33.12l-2.89-7.69h1.96l1.68,4.9h.06l1.66-4.9h1.99l-2.89,7.69h-1.58Z"/>
      <path class="cls-1" d="M53.72,33.27c-.76,0-1.43-.16-2.01-.48-.58-.32-1.03-.77-1.35-1.36-.32-.58-.48-1.27-.48-2.07s.15-1.46.44-2.08c.29-.62.72-1.11,1.28-1.47.56-.36,1.23-.54,2.02-.54s1.44.17,1.97.49c.53.33.93.79,1.21,1.38.27.59.41,1.27.41,2.03v.59h-5.17c0,.39.06.73.19,1.02s.32.51.56.67c.25.16.54.23.89.23.37,0,.7-.08.97-.24.28-.16.47-.42.59-.78h1.96c-.09.55-.31,1.01-.65,1.4s-.77.68-1.26.88c-.5.2-1.01.31-1.55.31ZM52.02,28.48h3.14c0-.31-.06-.59-.17-.85-.12-.26-.29-.46-.52-.61-.23-.15-.52-.22-.87-.22s-.62.08-.85.24c-.24.16-.42.37-.54.63s-.19.53-.18.81Z"/>
      <path class="cls-1" d="M58.76,33.12v-7.69h2.09v1.82c.12-.39.3-.73.52-1.03.23-.29.5-.53.82-.69.32-.17.69-.25,1.09-.25.07,0,.14,0,.2.01.06,0,.11.02.14.03v2.07s-.1-.03-.16-.04-.12,0-.17-.01c-.43-.04-.79-.02-1.09.04-.3.06-.55.16-.74.3-.19.14-.33.32-.41.53-.08.21-.13.44-.13.7v4.21h-2.17Z"/>
      <path class="cls-1" d="M64.89,33.12v-7.69h2.14v1.09c.12-.19.27-.37.46-.55.19-.18.43-.32.73-.43s.64-.17,1.04-.17c.47,0,.91.09,1.32.27.41.18.74.47.99.87s.38.91.38,1.54v5.07h-2.17v-4.8c0-.42-.12-.73-.37-.94-.25-.21-.55-.31-.91-.31-.24,0-.47.04-.69.13-.22.08-.4.21-.54.38s-.21.38-.21.62v4.92h-2.17Z"/>
      <path class="cls-1" d="M73.71,33.12v-7.69h2.13v1.09c.23-.34.55-.63.94-.87.39-.24.89-.36,1.49-.36.26,0,.53.05.8.14.27.09.53.23.77.41.24.18.44.41.58.68.25-.35.57-.65.98-.88.4-.24.85-.35,1.35-.35.29,0,.58.05.87.14.29.09.57.25.81.46s.45.5.6.85c.15.35.23.79.23,1.31v5.07h-2.17v-4.8c0-.31-.06-.55-.18-.74-.12-.19-.28-.32-.46-.4-.19-.08-.38-.12-.59-.12-.19,0-.39.04-.59.12-.2.08-.37.2-.51.37-.14.17-.21.39-.21.66v4.92h-2.16v-5c0-.23-.06-.43-.19-.59-.12-.16-.28-.28-.46-.36-.19-.08-.38-.12-.57-.12s-.4.04-.59.12c-.2.08-.36.21-.5.38s-.2.39-.2.64v4.92h-2.17Z"/>
      <path class="cls-1" d="M90.57,33.27c-.76,0-1.43-.16-2.01-.48-.58-.32-1.03-.77-1.35-1.36-.32-.58-.48-1.27-.48-2.07s.15-1.46.44-2.08c.29-.62.72-1.11,1.28-1.47.56-.36,1.23-.54,2.02-.54s1.44.17,1.97.49c.53.33.93.79,1.21,1.38.27.59.41,1.27.41,2.03v.59h-5.17c0,.39.06.73.19,1.02s.32.51.56.67c.25.16.54.23.89.23.37,0,.7-.08.97-.24.28-.16.47-.42.59-.78h1.96c-.09.55-.31,1.01-.65,1.4s-.77.68-1.26.88c-.5.2-1.01.31-1.55.31ZM88.87,28.48h3.14c0-.31-.06-.59-.17-.85-.12-.26-.29-.46-.52-.61-.23-.15-.52-.22-.87-.22s-.62.08-.85.24c-.24.16-.42.37-.54.63s-.19.53-.18.81Z"/>
      <path class="cls-1" d="M95.61,33.12v-7.69h2.14v1.09c.12-.19.27-.37.46-.55.19-.18.43-.32.73-.43s.64-.17,1.04-.17c.47,0,.91.09,1.32.27.41.18.74.47.99.87s.38.91.38,1.54v5.07h-2.17v-4.8c0-.42-.12-.73-.37-.94-.25-.21-.55-.31-.91-.31-.24,0-.47.04-.69.13-.22.08-.4.21-.54.38s-.21.38-.21.62v4.92h-2.17Z"/>
      <path class="cls-1" d="M107.48,33.2c-.68,0-1.2-.09-1.57-.26-.37-.17-.62-.42-.77-.73-.14-.31-.21-.67-.21-1.09v-4.19h-1.25v-1.51h1.32l.55-2.32h1.55v2.31h1.71v1.52h-1.71v4.1c.01.19.04.33.09.42.05.09.12.15.22.18s.23.04.39.04h1.03v1.34c-.1.04-.26.09-.47.13-.21.04-.5.06-.88.06Z"/>
      <path class="cls-1" d="M116.32,33.12v-8.82h-3.25v-1.93h8.61v1.93h-3.18v8.82h-2.18Z"/>
      <path class="cls-1" d="M125.28,33.27c-.76,0-1.43-.16-2.01-.48-.58-.32-1.03-.77-1.35-1.36-.32-.58-.48-1.27-.48-2.07s.15-1.46.44-2.08c.29-.62.72-1.11,1.28-1.47.56-.36,1.23-.54,2.02-.54s1.44.17,1.97.49c.53.33.93.79,1.21,1.38.27.59.41,1.27.41,2.03v.59h-5.17c0,.39.06.73.19,1.02s.32.51.56.67c.25.16.54.23.89.23.37,0,.7-.08.97-.24.28-.16.47-.42.59-.78h1.96c-.09.55-.31,1.01-.65,1.4s-.77.68-1.26.88c-.5.2-1.01.31-1.55.31ZM123.59,28.48h3.14c0-.31-.06-.59-.17-.85-.12-.26-.29-.46-.52-.61-.23-.15-.52-.22-.87-.22s-.62.08-.85.24c-.24.16-.42.37-.54.63s-.19.53-.18.81Z"/>
      <path class="cls-1" d="M133.67,33.27c-.71,0-1.35-.16-1.91-.48-.56-.32-1-.77-1.32-1.37-.32-.59-.48-1.3-.48-2.12s.15-1.49.46-2.1c.31-.61.74-1.08,1.3-1.42.56-.34,1.21-.51,1.95-.51.64,0,1.2.13,1.67.39.47.26.84.62,1.11,1.06.27.45.42.94.46,1.5h-1.81c-.03-.2-.11-.41-.22-.61s-.26-.37-.46-.5c-.2-.13-.45-.2-.74-.2-.51,0-.92.19-1.23.58-.31.39-.47.98-.47,1.77,0,.75.15,1.34.46,1.78.31.44.74.66,1.29.66.29,0,.54-.07.73-.22s.35-.32.46-.52c.11-.2.18-.39.21-.56h1.76c-.03.53-.19,1.01-.46,1.44-.27.43-.64.77-1.11,1.02s-1.02.38-1.65.38Z"/>
      <path class="cls-1" d="M138.42,33.12v-11.05h2.16v4.47c.12-.18.28-.36.47-.53.19-.18.42-.32.71-.44s.63-.18,1.03-.18c.49,0,.94.1,1.34.29.4.19.73.47.97.83.25.36.37.8.37,1.32v5.3h-2.18v-4.98c0-.35-.13-.61-.38-.8-.25-.19-.55-.28-.91-.28-.23,0-.46.04-.68.13-.22.08-.4.21-.53.38-.14.17-.2.38-.2.64v4.91h-2.17Z"/>
      <path class="cls-1" d="M147.23,33.12v-7.69h2.14v1.09c.12-.19.27-.37.46-.55.19-.18.43-.32.73-.43s.64-.17,1.04-.17c.47,0,.91.09,1.32.27.41.18.74.47.99.87s.38.91.38,1.54v5.07h-2.17v-4.8c0-.42-.12-.73-.37-.94-.25-.21-.55-.31-.91-.31-.24,0-.47.04-.69.13-.22.08-.4.21-.54.38s-.21.38-.21.62v4.92h-2.17Z"/>
      <path class="cls-1" d="M159.41,33.27c-.75,0-1.41-.16-1.97-.48-.56-.32-.99-.78-1.29-1.37-.31-.59-.46-1.29-.46-2.1s.15-1.51.46-2.12c.3-.6.74-1.08,1.29-1.41.56-.34,1.22-.51,1.98-.51s1.42.17,1.97.49c.56.33.98.8,1.29,1.4.3.61.45,1.32.45,2.14,0,.77-.15,1.46-.44,2.05-.3.59-.72,1.06-1.27,1.4-.55.34-1.22.51-2,.51ZM159.42,31.65c.38,0,.69-.11.92-.33.23-.22.4-.52.51-.88.1-.36.16-.76.16-1.19,0-.41-.05-.79-.14-1.15-.09-.36-.26-.65-.49-.88-.23-.22-.55-.33-.95-.33s-.69.11-.93.32c-.24.21-.41.5-.52.86-.11.36-.16.76-.16,1.19,0,.4.05.79.15,1.16.1.37.27.67.5.9.23.23.55.35.96.35Z"/>
      <path class="cls-1" d="M167.07,33.25c-.57,0-1.01-.07-1.35-.2s-.58-.31-.74-.53-.26-.47-.31-.74c-.04-.27-.07-.54-.07-.82v-8.9h2.13v8.63c0,.28.06.51.18.69.12.18.35.28.69.32l.36.02v1.34c-.15.05-.3.09-.45.13s-.31.06-.45.06Z"/>
      <path class="cls-1" d="M172.41,33.27c-.75,0-1.41-.16-1.97-.48-.56-.32-.99-.78-1.29-1.37-.31-.59-.46-1.29-.46-2.1s.15-1.51.46-2.12c.3-.6.74-1.08,1.29-1.41.56-.34,1.22-.51,1.98-.51s1.42.17,1.97.49c.56.33.98.8,1.29,1.4.3.61.45,1.32.45,2.14,0,.77-.15,1.46-.44,2.05-.3.59-.72,1.06-1.27,1.4-.55.34-1.22.51-2,.51ZM172.42,31.65c.38,0,.69-.11.92-.33.23-.22.4-.52.51-.88.1-.36.16-.76.16-1.19,0-.41-.05-.79-.14-1.15-.09-.36-.26-.65-.49-.88-.23-.22-.55-.33-.95-.33s-.69.11-.93.32c-.24.21-.41.5-.52.86-.11.36-.16.76-.16,1.19,0,.4.05.79.15,1.16.1.37.27.67.5.9.23.23.55.35.96.35Z"/>
      <path class="cls-1" d="M181.09,35.66c-1.37,0-2.41-.17-3.12-.52-.71-.35-1.07-.8-1.07-1.37,0-.26.07-.48.2-.66.14-.18.3-.32.48-.43s.36-.19.51-.25c.16-.06.25-.09.29-.12-.08-.04-.19-.11-.35-.2-.15-.09-.29-.21-.41-.36s-.19-.35-.19-.59c0-.27.13-.53.39-.76.26-.23.66-.39,1.19-.48-.51-.24-.89-.56-1.16-.97-.27-.41-.4-.82-.4-1.25,0-.51.16-.94.48-1.3.32-.36.75-.64,1.3-.83s1.17-.28,1.87-.28c.53,0,.96.06,1.3.17.34.11.65.26.94.43.11-.04.26-.1.45-.17.19-.07.39-.15.61-.24.22-.09.44-.17.64-.26.21-.09.39-.17.56-.23v1.68s-1.34.22-1.34.22c.05.13.09.28.12.43.03.15.04.28.04.38,0,.45-.13.86-.39,1.25-.26.39-.65.7-1.16.94-.52.24-1.16.36-1.93.36-.09,0-.21,0-.37,0s-.29-.01-.39-.02c-.29.01-.49.05-.6.11-.11.06-.17.13-.17.21,0,.12.11.2.33.23s.56.07,1.01.1c.16.01.39.02.67.04.28.01.59.03.93.06.94.06,1.65.3,2.11.7.46.4.7.9.7,1.51,0,.72-.34,1.31-1.02,1.78-.68.47-1.71.7-3.08.7ZM181.44,34.45c.6,0,1.03-.07,1.29-.22.26-.15.39-.36.39-.64,0-.23-.1-.42-.3-.57-.2-.15-.49-.23-.87-.26l-1.76-.12c-.23,0-.44.02-.61.1-.17.08-.31.19-.41.33-.1.14-.15.29-.15.45,0,.32.2.56.59.71.39.15,1,.22,1.82.22ZM181.03,29.04c.41,0,.74-.11.99-.34.25-.23.37-.53.37-.92s-.12-.72-.37-.97c-.25-.24-.58-.37-.99-.37s-.74.12-1,.37c-.25.24-.38.56-.38.97s.12.69.37.92c.25.23.58.34,1.01.34Z"/>
      <path class="cls-1" d="M188.23,35.57c-.53,0-1.01-.09-1.44-.26v-1.38l.77.03c.33.02.6,0,.8-.05.2-.05.36-.12.46-.2.1-.08.18-.17.23-.26.05-.09.08-.17.1-.22l.14-.42-2.99-7.37h2.15l1.84,5.01,1.86-5.01h2.13l-3.12,7.74c-.27.65-.55,1.16-.85,1.5-.3.35-.62.58-.97.71s-.72.19-1.11.19Z"/>
      <path class="cls-1" d="M198.92,33.12v-10.76h3.96c.78,0,1.48.13,2.1.41.62.27,1.11.67,1.47,1.19.36.53.54,1.17.54,1.93,0,.71-.16,1.32-.48,1.83s-.76.89-1.33,1.16c-.57.27-1.25.4-2.02.4h-2.05v3.84h-2.19ZM201.09,27.6h2.02c.55,0,.99-.17,1.34-.52s.52-.78.52-1.3-.18-.96-.55-1.28c-.37-.32-.81-.47-1.34-.47h-1.99v3.57Z"/>
      <path class="cls-1" d="M210.81,33.25c-.57,0-1.01-.07-1.35-.2s-.58-.31-.74-.53-.26-.47-.31-.74c-.04-.27-.07-.54-.07-.82v-8.9h2.13v8.63c0,.28.06.51.18.69.12.18.35.28.69.32l.36.02v1.34c-.15.05-.3.09-.45.13s-.31.06-.45.06Z"/>
      <path class="cls-1" d="M215.46,33.27c-.49,0-.93-.09-1.32-.28-.39-.18-.71-.45-.93-.8s-.34-.77-.34-1.28c0-.84.31-1.48.94-1.92.63-.44,1.62-.67,2.98-.68l.97-.02v-.46c0-.35-.1-.62-.31-.81-.21-.19-.53-.28-.96-.28-.31,0-.61.08-.9.22s-.48.39-.59.75h-1.81c.03-.55.19-1.01.49-1.37.29-.36.69-.63,1.19-.8.5-.18,1.07-.26,1.72-.26.78,0,1.41.1,1.89.29.48.2.82.48,1.04.84.22.37.32.8.32,1.3v5.41h-1.81l-.18-1.32c-.26.56-.59.94-.99,1.15-.39.21-.86.32-1.4.32ZM216.2,31.84c.19,0,.38-.04.57-.11.19-.07.35-.17.5-.29.15-.12.27-.26.35-.41.09-.15.13-.31.14-.48v-1.14h-.78c-.36.02-.7.06-1.01.14-.31.08-.56.21-.75.4s-.29.43-.29.74c0,.36.12.64.37.84.25.2.55.3.9.3Z"/>
      <path class="cls-1" d="M224.65,33.2c-.68,0-1.2-.09-1.57-.26-.37-.17-.62-.42-.77-.73-.14-.31-.21-.67-.21-1.09v-4.19h-1.25v-1.51h1.32l.55-2.32h1.55v2.31h1.71v1.52h-1.71v4.1c.01.19.04.33.09.42.05.09.12.15.22.18s.23.04.39.04h1.03v1.34c-.1.04-.26.09-.47.13-.21.04-.5.06-.88.06Z"/>
      <path class="cls-1" d="M227.96,33.12v-6.18h-1.42v-1.51h1.42v-1.11c0-.62.18-1.1.55-1.44.37-.34.88-.51,1.55-.51h1.76v1.44s-1,0-1,0c-.27,0-.46.07-.56.2-.1.14-.16.36-.16.67v.74h1.67v1.51h-1.62v6.18h-2.18Z"/>
      <path class="cls-1" d="M236.3,33.27c-.75,0-1.41-.16-1.97-.48-.56-.32-.99-.78-1.29-1.37-.31-.59-.46-1.29-.46-2.1s.15-1.51.46-2.12c.3-.6.74-1.08,1.29-1.41.56-.34,1.22-.51,1.98-.51s1.42.17,1.97.49c.56.33.98.8,1.29,1.4.3.61.45,1.32.45,2.14,0,.77-.15,1.46-.44,2.05-.3.59-.72,1.06-1.27,1.4-.55.34-1.22.51-2,.51ZM236.31,31.65c.38,0,.69-.11.92-.33.23-.22.4-.52.51-.88.1-.36.16-.76.16-1.19,0-.41-.05-.79-.14-1.15-.09-.36-.26-.65-.49-.88-.23-.22-.55-.33-.95-.33s-.69.11-.93.32c-.24.21-.41.5-.52.86-.11.36-.16.76-.16,1.19,0,.4.05.79.15,1.16.1.37.27.67.5.9.23.23.55.35.96.35Z"/>
      <path class="cls-1" d="M241.51,33.12v-7.69h2.09v1.82c.12-.39.3-.73.52-1.03.23-.29.5-.53.82-.69.32-.17.69-.25,1.09-.25.07,0,.14,0,.2.01.06,0,.11.02.14.03v2.07s-.1-.03-.16-.04-.12,0-.17-.01c-.43-.04-.79-.02-1.09.04-.3.06-.55.16-.74.3-.19.14-.33.32-.41.53-.08.21-.13.44-.13.7v4.21h-2.17Z"/>
      <path class="cls-1" d="M247.64,33.12v-7.69h2.13v1.09c.23-.34.55-.63.94-.87.39-.24.89-.36,1.49-.36.26,0,.53.05.8.14.27.09.53.23.77.41.24.18.44.41.58.68.25-.35.57-.65.98-.88.4-.24.85-.35,1.35-.35.29,0,.58.05.87.14.29.09.57.25.81.46s.45.5.6.85c.15.35.23.79.23,1.31v5.07h-2.17v-4.8c0-.31-.06-.55-.18-.74-.12-.19-.28-.32-.46-.4-.19-.08-.38-.12-.59-.12-.19,0-.39.04-.59.12-.2.08-.37.2-.51.37-.14.17-.21.39-.21.66v4.92h-2.16v-5c0-.23-.06-.43-.19-.59-.12-.16-.28-.28-.46-.36-.19-.08-.38-.12-.57-.12s-.4.04-.59.12c-.2.08-.36.21-.5.38s-.2.39-.2.64v4.92h-2.17Z"/>
      <path class="cls-1" d="M263.98,33.27c-.54,0-1.05-.09-1.54-.26-.49-.18-.91-.45-1.26-.83-.34-.38-.56-.87-.65-1.48h1.87c.07.27.19.49.36.65.17.16.37.27.58.34.22.07.43.1.62.1.42,0,.75-.07,1.01-.2.26-.13.38-.33.38-.61,0-.21-.08-.38-.23-.5-.15-.12-.4-.22-.75-.28l-1.35-.28c-.68-.14-1.23-.39-1.64-.73s-.62-.83-.63-1.47c0-.46.12-.88.36-1.24.25-.37.61-.66,1.09-.87.48-.21,1.07-.32,1.77-.32.95,0,1.7.21,2.27.62.57.42.86,1,.87,1.76h-1.81c-.05-.3-.2-.53-.44-.69-.24-.16-.54-.24-.91-.24s-.68.07-.92.2c-.24.13-.36.34-.36.61,0,.2.1.36.3.48.2.12.51.22.92.3l1.25.28c.43.1.78.25,1.05.43.27.18.48.38.63.59.15.21.25.43.31.64.06.22.09.41.09.58,0,.51-.14.95-.41,1.3-.27.36-.65.63-1.14.82s-1.05.28-1.7.28Z"/>
    </g>
    <line class="cls-5" x1="293.17" y1="9.34" x2="293.17" y2="46.28"/>
    <g>
      <rect class="cls-4" x="319.87" y="17.47" width="57.3" height="20.67" rx="3.15" ry="3.15"/>
      <g>
        <path class="cls-2" d="M329.89,30.33v-5.11h1.04v4.24h2.22v.87h-3.26Z"/>
        <path class="cls-2" d="M335.45,30.4c-.36,0-.68-.08-.96-.23-.27-.15-.49-.37-.64-.64-.15-.28-.23-.61-.23-.98s.07-.69.21-.99c.14-.29.34-.52.61-.7.26-.17.58-.26.96-.26s.68.08.94.23c.25.16.44.38.57.65.13.28.19.6.19.97v.28h-2.46c0,.19.03.35.09.49.06.14.15.24.27.32.12.07.26.11.42.11.18,0,.33-.04.46-.11.13-.08.23-.2.28-.37h.93c-.04.26-.15.48-.31.66-.17.18-.37.32-.6.42s-.48.14-.73.14ZM334.65,28.13h1.49c0-.15-.03-.28-.08-.4-.06-.12-.14-.22-.25-.29-.11-.07-.25-.11-.41-.11s-.29.04-.4.11-.2.18-.26.3c-.06.12-.09.25-.09.38Z"/>
        <path class="cls-2" d="M338.91,30.4c-.23,0-.44-.04-.63-.13-.19-.09-.33-.21-.44-.38s-.16-.37-.16-.61c0-.4.15-.7.45-.91.3-.21.77-.32,1.42-.32h.46v-.23c0-.17-.05-.3-.15-.39s-.25-.13-.46-.13c-.15,0-.29.04-.43.11-.14.07-.23.19-.28.36h-.86c.01-.26.09-.48.23-.65.14-.17.33-.3.57-.38.24-.08.51-.12.82-.12.37,0,.67.05.9.14.23.09.39.23.49.4.1.17.15.38.15.62v2.57h-.86l-.08-.63c-.12.26-.28.45-.47.55-.19.1-.41.15-.67.15ZM339.26,29.72c.09,0,.18-.02.27-.05s.17-.08.24-.14.13-.12.17-.2c.04-.07.06-.15.06-.23v-.54h-.37c-.17,0-.33.03-.48.07s-.27.1-.36.19c-.09.09-.14.21-.14.35,0,.17.06.3.17.4.12.1.26.14.43.14Z"/>
        <path class="cls-2" d="M341.83,30.33v-3.65h.99v.87c.06-.19.14-.35.25-.49.11-.14.24-.25.39-.33.15-.08.33-.12.52-.12.03,0,.06,0,.09,0,.03,0,.05,0,.06.02v.98s-.05-.02-.08-.02c-.03,0-.06,0-.08,0-.2-.02-.38-.01-.52.02-.14.03-.26.08-.35.14-.09.07-.15.15-.19.25-.04.1-.06.21-.06.33v2h-1.03Z"/>
        <path class="cls-2" d="M344.74,30.33v-3.65h1.01v.52c.06-.09.13-.18.22-.26.09-.08.21-.15.34-.21.14-.05.3-.08.49-.08.22,0,.43.04.63.13s.35.22.47.41c.12.19.18.43.18.73v2.41h-1.03v-2.28c0-.2-.06-.35-.18-.44-.12-.1-.26-.15-.43-.15-.11,0-.22.02-.33.06-.1.04-.19.1-.26.18s-.1.18-.1.3v2.34h-1.03Z"/>
        <path class="cls-2" d="M350.52,30.33v-3.65h1.01v.52c.11-.16.26-.3.45-.41.19-.12.42-.17.71-.17.12,0,.25.02.38.07.13.04.25.11.37.2s.21.19.28.32c.12-.17.27-.31.46-.42.19-.11.41-.17.64-.17.14,0,.27.02.42.07.14.04.27.12.39.22.12.1.21.24.28.4.07.17.11.38.11.62v2.41h-1.03v-2.28c0-.15-.03-.26-.09-.35-.06-.09-.13-.15-.22-.19s-.18-.06-.28-.06c-.09,0-.19.02-.28.06-.09.04-.17.09-.24.17s-.1.18-.1.31v2.34h-1.03v-2.37c0-.11-.03-.2-.09-.28-.06-.08-.13-.13-.22-.17s-.18-.06-.27-.06-.19.02-.28.06c-.09.04-.17.1-.24.18-.06.08-.1.18-.1.31v2.34h-1.03Z"/>
        <path class="cls-2" d="M358.44,30.4c-.36,0-.67-.08-.93-.23-.26-.15-.47-.37-.61-.65-.15-.28-.22-.61-.22-1s.07-.72.22-1.01c.14-.29.35-.51.61-.67.27-.16.58-.24.94-.24s.67.08.94.23c.26.16.47.38.61.67.14.29.22.63.22,1.02,0,.37-.07.69-.21.97s-.34.5-.6.66c-.26.16-.58.24-.95.24ZM358.44,29.63c.18,0,.33-.05.44-.16.11-.11.19-.25.24-.42s.07-.36.07-.57c0-.19-.02-.38-.07-.55-.04-.17-.12-.31-.23-.42-.11-.11-.26-.16-.45-.16s-.33.05-.44.15c-.11.1-.19.24-.25.41s-.08.36-.08.57c0,.19.02.37.07.55.05.18.13.32.24.43.11.11.26.17.46.17Z"/>
        <path class="cls-2" d="M360.91,30.33v-3.65h.99v.87c.06-.19.14-.35.25-.49.11-.14.24-.25.39-.33.15-.08.33-.12.52-.12.03,0,.06,0,.09,0,.03,0,.05,0,.06.02v.98s-.05-.02-.08-.02c-.03,0-.06,0-.08,0-.2-.02-.38-.01-.52.02-.14.03-.26.08-.35.14-.09.07-.15.15-.19.25-.04.1-.06.21-.06.33v2h-1.03Z"/>
        <path class="cls-2" d="M365.49,30.4c-.36,0-.68-.08-.96-.23-.27-.15-.49-.37-.64-.64-.15-.28-.23-.61-.23-.98s.07-.69.21-.99c.14-.29.34-.52.61-.7.26-.17.58-.26.96-.26s.68.08.94.23c.25.16.44.38.57.65.13.28.19.6.19.97v.28h-2.46c0,.19.03.35.09.49.06.14.15.24.27.32.12.07.26.11.42.11.18,0,.33-.04.46-.11.13-.08.23-.2.28-.37h.93c-.04.26-.15.48-.31.66-.17.18-.37.32-.6.42s-.48.14-.73.14ZM364.69,28.13h1.49c0-.15-.03-.28-.08-.4-.06-.12-.14-.22-.25-.29-.11-.07-.25-.11-.41-.11s-.29.04-.4.11-.2.18-.26.3c-.06.12-.09.25-.09.38Z"/>
      </g>
      <polygon class="cls-3" points="324.49 24.8 324.2 24.92 323.91 25.04 323.62 25.16 323.34 25.28 323.05 25.4 322.76 25.52 322.47 25.65 322.18 25.77 321.89 25.89 321.6 26.01 321.31 26.13 321.02 26.25 320.74 26.37 320.45 26.49 320.16 26.61 319.87 26.73 319.58 26.85 319.29 26.98 319 27.1 318.71 27.22 318.43 27.34 318.14 27.46 317.85 27.58 317.56 27.7 317.27 27.82 316.98 27.94 316.69 28.06 316.4 28.18 316.12 28.3 315.83 28.43 315.54 28.55 315.25 28.67 315.36 28.7 315.47 28.74 315.58 28.77 315.69 28.81 315.8 28.84 315.91 28.88 316.02 28.91 316.13 28.94 316.24 28.98 316.35 29.01 316.46 29.05 316.57 29.08 316.68 29.12 316.79 29.15 316.9 29.19 317.01 29.22 317.12 29.26 317.23 29.29 317.34 29.33 317.45 29.36 317.56 29.4 317.67 29.43 317.78 29.46 317.89 29.5 318 29.53 318.11 29.57 318.22 29.6 318.33 29.64 318.44 29.67 318.56 29.71 318.67 29.74 318.78 29.78 318.67 29.89 318.57 30 318.47 30.11 318.37 30.22 318.27 30.33 318.17 30.44 318.07 30.55 317.97 30.66 317.87 30.77 317.77 30.88 317.67 30.99 317.57 31.1 317.46 31.21 317.36 31.32 317.26 31.43 317.16 31.54 317.06 31.65 316.96 31.76 316.86 31.87 316.76 31.98 316.66 32.09 316.56 32.2 316.46 32.31 316.36 32.42 316.25 32.53 316.15 32.64 316.05 32.75 315.95 32.87 315.85 32.98 315.75 33.09 315.65 33.2 315.55 33.31 315.59 33.34 315.63 33.38 315.67 33.42 315.71 33.45 315.75 33.49 315.79 33.52 315.83 33.56 315.87 33.6 315.91 33.63 315.95 33.67 315.99 33.71 316.03 33.74 316.07 33.78 316.1 33.81 316.14 33.85 316.18 33.89 316.22 33.92 316.26 33.96 316.3 34 316.34 34.03 316.38 34.07 316.42 34.11 316.46 34.14 316.5 34.18 316.54 34.21 316.58 34.25 316.62 34.29 316.66 34.32 316.7 34.36 316.74 34.4 316.78 34.43 316.82 34.47 316.92 34.36 317.02 34.25 317.12 34.14 317.22 34.03 317.32 33.92 317.42 33.81 317.53 33.7 317.63 33.59 317.73 33.48 317.83 33.36 317.93 33.25 318.03 33.14 318.13 33.03 318.23 32.92 318.33 32.81 318.43 32.7 318.53 32.59 318.63 32.48 318.74 32.37 318.84 32.26 318.94 32.15 319.04 32.04 319.14 31.93 319.24 31.82 319.34 31.71 319.44 31.6 319.54 31.49 319.64 31.38 319.74 31.27 319.84 31.16 319.95 31.05 320.05 30.94 320.09 31.04 320.14 31.15 320.18 31.26 320.22 31.36 320.27 31.47 320.31 31.58 320.36 31.68 320.4 31.79 320.45 31.9 320.49 32 320.53 32.11 320.58 32.22 320.62 32.32 320.67 32.43 320.71 32.54 320.76 32.64 320.8 32.75 320.85 32.86 320.89 32.96 320.93 33.07 320.98 33.18 321.02 33.28 321.07 33.39 321.11 33.5 321.16 33.6 321.2 33.71 321.25 33.82 321.29 33.92 321.33 34.03 321.38 34.14 321.42 34.24 321.47 34.35 321.56 34.05 321.66 33.75 321.75 33.46 321.84 33.16 321.94 32.86 322.03 32.56 322.13 32.26 322.22 31.96 322.32 31.66 322.41 31.37 322.51 31.07 322.6 30.77 322.7 30.47 322.79 30.17 322.88 29.87 322.98 29.58 323.07 29.28 323.17 28.98 323.26 28.68 323.36 28.38 323.45 28.08 323.55 27.78 323.64 27.49 323.73 27.19 323.83 26.89 323.92 26.59 324.02 26.29 324.11 25.99 324.21 25.69 324.3 25.4 324.4 25.1 324.49 24.8"/>
    </g>
  </g>
</svg>