<?xml version="1.0" encoding="UTF-8"?>
<svg id="Layer_1" data-name="Layer 1" xmlns="http://www.w3.org/2000/svg" viewBox="0 0 600 135">
  <defs>
    <style>
      .cls-1 {
        fill: #fff;
      }

      .cls-2, .cls-3 {
        fill: #002664;
      }

      .cls-3 {
        font-family: PublicSansRoman-Medium, 'Public Sans';
        font-size: 12.61px;
        font-variation-settings: 'wght' 500;
        font-weight: 500;
      }

      .cls-4 {
        fill: #d7153a;
      }

      .cls-5 {
        fill: #cbedfd;
      }

      .cls-6 {
        stroke: #cbedfd;
      }

      .cls-6, .cls-7 {
        fill: none;
        stroke-width: .5px;
      }

      .cls-8 {
        opacity: .4;
      }

      .cls-7 {
        stroke: #d7153a;
      }

      .cls-9 {
        fill: #146cfd;
      }
    </style>
  </defs>
  <g>
    <rect class="cls-2" width="600" height="83.43"/>
    <rect class="cls-5" y="83.43" width="600" height="51.57"/>
    <rect class="cls-9" y="83.43" width="600" height="15"/>
  </g>
  <text class="cls-3" transform="translate(106.37 120.83)"><tspan x="0" y="0">Creating world-class digital experiences, platforms and solutions</tspan></text>
  <g class="cls-8">
    <path class="cls-7" d="M82.01,115.73v-5.91c0-1.42.34-2.74,1.01-3.95.67-1.21,1.54-2.14,2.61-2.77,1.07-.63,2.21-.83,3.42-.58v2.1l-.51.06c-.74.06-1.43.46-2.07,1.21s-.97,1.61-.97,2.57v.4l3.55.23v6.65h-7.05Z"/>
    <path class="cls-7" d="M91.88,115.73v-5.91c0-1.42.34-2.74,1.01-3.95.67-1.21,1.54-2.14,2.61-2.77,1.07-.63,2.21-.83,3.42-.58v2.1l-.51.06c-.74.06-1.43.46-2.07,1.21s-.97,1.61-.97,2.57v.4l3.55.23v6.65h-7.05Z"/>
  </g>
  <g class="cls-8">
    <path class="cls-7" d="M517.99,115.79v5.62c0,1.35-.32,2.6-.96,3.75-.64,1.15-1.47,2.03-2.48,2.63-1.02.6-2.1.79-3.25.55v-2l.49-.05c.7-.05,1.36-.44,1.97-1.15s.92-1.53.92-2.44v-.38l-3.38-.22v-6.32h6.7Z"/>
    <path class="cls-7" d="M508.61,115.79v5.62c0,1.35-.32,2.6-.96,3.75-.64,1.15-1.47,2.03-2.48,2.63-1.02.6-2.1.79-3.25.55v-2l.49-.05c.7-.05,1.36-.44,1.97-1.15s.92-1.53.92-2.44v-.38l-3.38-.22v-6.32h6.7Z"/>
  </g>
  <g>
    <path class="cls-1" d="M41.51,49.9c-1.48,0-2.77-.34-3.85-1.01-1.09-.67-1.93-1.63-2.52-2.86-.59-1.23-.89-2.69-.89-4.37s.31-3.19.93-4.44c.62-1.25,1.49-2.21,2.61-2.88,1.12-.68,2.42-1.02,3.91-1.02.96,0,1.83.15,2.62.46.79.3,1.47.72,2.06,1.25.58.53,1.04,1.12,1.37,1.79.33.67.51,1.35.54,2.07h-3.44c-.1-.51-.29-.98-.57-1.4-.29-.42-.65-.76-1.1-1.02s-.97-.39-1.56-.39c-.71,0-1.36.18-1.94.55-.58.37-1.04.95-1.37,1.76-.34.8-.5,1.86-.5,3.18,0,1.06.11,1.95.33,2.65.22.71.52,1.27.89,1.68.37.41.8.7,1.27.88s.96.26,1.46.26.9-.08,1.28-.24.7-.37.97-.62c.27-.25.48-.53.64-.83.16-.3.26-.6.3-.89l.12-.98h-3.34v-2.25l6.75.03v8.42h-2.22v-2.11c-.28.36-.62.73-1.02,1.09-.41.36-.91.66-1.51.89-.6.23-1.33.35-2.2.35Z"/>
    <path class="cls-1" d="M56.54,49.9c-1.13,0-2.11-.24-2.95-.73-.84-.48-1.48-1.17-1.94-2.05-.46-.88-.69-1.93-.69-3.15s.23-2.27.69-3.18c.46-.91,1.1-1.61,1.94-2.12.84-.51,1.82-.76,2.96-.76s2.12.25,2.96.74c.83.5,1.48,1.2,1.93,2.1.45.91.68,1.98.68,3.21,0,1.16-.22,2.19-.66,3.07-.44.89-1.08,1.59-1.91,2.09-.83.51-1.83.76-3.01.76ZM56.55,47.48c.57,0,1.03-.17,1.38-.5.35-.34.6-.77.76-1.32.16-.55.23-1.14.23-1.79,0-.61-.07-1.19-.21-1.73-.14-.54-.39-.98-.74-1.32-.35-.33-.83-.5-1.43-.5s-1.04.16-1.39.47c-.35.32-.61.74-.77,1.28-.16.54-.25,1.14-.25,1.79,0,.6.07,1.18.22,1.73.15.56.4,1.01.75,1.36.35.35.83.52,1.44.52Z"/>
    <path class="cls-1" d="M67.24,49.68l-4.33-11.54h2.95l2.52,7.35h.09l2.49-7.35h2.98l-4.33,11.54h-2.37Z"/>
    <path class="cls-1" d="M80.58,49.9c-1.15,0-2.15-.24-3.02-.72-.87-.48-1.54-1.16-2.03-2.04-.48-.88-.73-1.91-.73-3.1s.22-2.19.66-3.12c.44-.93,1.08-1.66,1.91-2.2.83-.54,1.84-.81,3.02-.81s2.16.25,2.96.74c.8.5,1.4,1.18,1.81,2.07.41.88.61,1.9.61,3.05v.88h-7.75c0,.59.1,1.1.29,1.53s.47.77.84,1c.37.23.81.35,1.33.35.56,0,1.05-.12,1.46-.36.42-.24.71-.63.88-1.17h2.93c-.13.82-.46,1.52-.98,2.1s-1.15,1.02-1.9,1.33c-.74.3-1.52.46-2.32.46ZM78.03,42.72h4.71c0-.46-.09-.88-.26-1.27-.18-.39-.44-.69-.78-.92-.35-.22-.78-.33-1.3-.33s-.92.12-1.28.36c-.35.24-.62.56-.81.94s-.28.79-.27,1.22Z"/>
    <path class="cls-1" d="M88.14,49.68v-11.54h3.14v2.73c.19-.59.45-1.1.79-1.55.34-.44.75-.79,1.23-1.04.48-.25,1.03-.37,1.64-.37.1,0,.2,0,.3.02.09.01.16.03.21.05v3.1c-.07-.03-.15-.05-.24-.06s-.18-.01-.25-.02c-.64-.05-1.19-.03-1.64.06-.45.09-.82.24-1.1.46-.28.22-.49.48-.61.79-.13.31-.19.66-.19,1.05v6.31h-3.26Z"/>
    <path class="cls-1" d="M97.33,49.68v-11.54h3.2v1.63c.18-.28.41-.56.7-.82.29-.26.65-.48,1.09-.65s.96-.26,1.56-.26c.71,0,1.37.14,1.98.41.61.28,1.11.71,1.49,1.3s.57,1.36.57,2.31v7.61h-3.26v-7.21c0-.63-.19-1.09-.56-1.41-.37-.31-.83-.47-1.36-.47-.36,0-.7.06-1.03.19-.33.13-.6.32-.81.57s-.31.57-.31.94v7.39h-3.26Z"/>
    <path class="cls-1" d="M110.57,49.68v-11.54h3.19v1.63c.35-.51.82-.94,1.41-1.31.59-.36,1.34-.55,2.24-.55.39,0,.8.07,1.2.21.41.14.79.35,1.16.62.36.27.65.61.88,1.02.37-.53.86-.97,1.47-1.32.61-.35,1.28-.53,2.03-.53.43,0,.87.07,1.31.21.44.14.85.37,1.22.69s.67.75.9,1.28c.23.53.34,1.19.34,1.97v7.61h-3.26v-7.21c0-.46-.09-.83-.27-1.11-.18-.28-.41-.48-.69-.6-.28-.12-.57-.18-.89-.18-.29,0-.58.06-.88.17-.3.12-.55.3-.76.55-.21.25-.31.58-.31.99v7.39h-3.25v-7.5c0-.35-.09-.64-.28-.88-.19-.24-.42-.42-.7-.54-.28-.12-.56-.18-.85-.18s-.59.06-.89.18c-.3.12-.55.31-.75.57s-.3.58-.3.97v7.39h-3.26Z"/>
    <path class="cls-1" d="M135.85,49.9c-1.15,0-2.15-.24-3.02-.72-.87-.48-1.54-1.16-2.03-2.04-.48-.88-.73-1.91-.73-3.1s.22-2.19.66-3.12c.44-.93,1.08-1.66,1.91-2.2.83-.54,1.84-.81,3.02-.81s2.16.25,2.96.74c.8.5,1.4,1.18,1.81,2.07.41.88.61,1.9.61,3.05v.88h-7.75c0,.59.1,1.1.29,1.53s.47.77.84,1c.37.23.81.35,1.33.35.56,0,1.05-.12,1.46-.36.42-.24.71-.63.88-1.17h2.93c-.13.82-.46,1.52-.98,2.1s-1.15,1.02-1.9,1.33c-.74.3-1.52.46-2.32.46ZM133.31,42.72h4.71c0-.46-.09-.88-.26-1.27-.18-.39-.44-.69-.78-.92-.35-.22-.78-.33-1.3-.33s-.92.12-1.28.36c-.35.24-.62.56-.81.94s-.28.79-.27,1.22Z"/>
    <path class="cls-1" d="M143.41,49.68v-11.54h3.2v1.63c.18-.28.41-.56.7-.82.29-.26.65-.48,1.09-.65s.96-.26,1.56-.26c.71,0,1.37.14,1.98.41.61.28,1.11.71,1.49,1.3s.57,1.36.57,2.31v7.61h-3.26v-7.21c0-.63-.19-1.09-.56-1.41-.37-.31-.83-.47-1.36-.47-.36,0-.7.06-1.03.19-.33.13-.6.32-.81.57s-.31.57-.31.94v7.39h-3.26Z"/>
    <path class="cls-1" d="M161.22,49.8c-1.02,0-1.81-.13-2.36-.39-.55-.26-.94-.62-1.15-1.09-.21-.47-.32-1.01-.32-1.63v-6.28h-1.87v-2.26h1.98l.83-3.48h2.32v3.47h2.57v2.27h-2.57l.02,6.15c0,.28.04.49.11.63.07.14.18.23.33.27s.35.06.59.06h1.55v2.01c-.16.07-.39.13-.7.19-.31.06-.75.09-1.32.09Z"/>
    <path class="cls-1" d="M174.48,49.68v-13.23h-4.88v-2.9h12.91v2.9h-4.76v13.23h-3.27Z"/>
    <path class="cls-1" d="M187.92,49.9c-1.15,0-2.15-.24-3.02-.72-.87-.48-1.54-1.16-2.03-2.04-.48-.88-.73-1.91-.73-3.1s.22-2.19.66-3.12c.44-.93,1.08-1.66,1.91-2.2.83-.54,1.84-.81,3.02-.81s2.16.25,2.96.74c.8.5,1.4,1.18,1.81,2.07.41.88.61,1.9.61,3.05v.88h-7.75c0,.59.1,1.1.29,1.53s.47.77.84,1c.37.23.81.35,1.33.35.56,0,1.05-.12,1.46-.36.42-.24.71-.63.88-1.17h2.93c-.13.82-.46,1.52-.98,2.1s-1.15,1.02-1.9,1.33c-.74.3-1.52.46-2.32.46ZM185.38,42.72h4.71c0-.46-.09-.88-.26-1.27-.18-.39-.44-.69-.78-.92-.35-.22-.78-.33-1.3-.33s-.92.12-1.28.36c-.35.24-.62.56-.81.94s-.28.79-.27,1.22Z"/>
    <path class="cls-1" d="M200.51,49.9c-1.07,0-2.03-.24-2.87-.71-.84-.48-1.5-1.16-1.98-2.05-.48-.89-.72-1.95-.72-3.18s.23-2.24.69-3.15c.46-.91,1.11-1.62,1.95-2.13.84-.51,1.81-.76,2.93-.76.97,0,1.8.2,2.5.59.7.39,1.26.93,1.66,1.6.41.67.64,1.42.7,2.24h-2.71c-.05-.3-.16-.61-.32-.91s-.39-.55-.69-.75c-.3-.2-.67-.3-1.12-.3-.76,0-1.37.29-1.85.88-.47.58-.71,1.47-.71,2.66,0,1.12.23,2.01.69,2.67.46.66,1.1.99,1.93.99.44,0,.8-.11,1.1-.32s.52-.47.69-.77c.16-.3.27-.58.31-.84h2.64c-.05.8-.28,1.52-.69,2.16-.41.64-.97,1.15-1.67,1.53s-1.53.56-2.47.56Z"/>
    <path class="cls-1" d="M207.63,49.68v-16.58h3.24v6.71c.19-.27.42-.53.7-.8.28-.26.64-.48,1.06-.66s.94-.27,1.55-.27c.74,0,1.41.14,2.01.43.61.29,1.09.7,1.46,1.24.37.54.55,1.21.55,1.99v7.94h-3.27v-7.46c0-.52-.19-.92-.56-1.2-.38-.28-.83-.42-1.37-.42-.35,0-.69.06-1.02.19-.33.13-.59.32-.8.58-.21.26-.31.57-.31.95v7.36h-3.26Z"/>
    <path class="cls-1" d="M220.85,49.68v-11.54h3.2v1.63c.18-.28.41-.56.7-.82.29-.26.65-.48,1.09-.65s.96-.26,1.56-.26c.71,0,1.37.14,1.98.41.61.28,1.11.71,1.49,1.3s.57,1.36.57,2.31v7.61h-3.26v-7.21c0-.63-.19-1.09-.56-1.41-.37-.31-.83-.47-1.36-.47-.36,0-.7.06-1.03.19-.33.13-.6.32-.81.57s-.31.57-.31.94v7.39h-3.26Z"/>
    <path class="cls-1" d="M239.12,49.9c-1.13,0-2.11-.24-2.95-.73-.84-.48-1.48-1.17-1.94-2.05-.46-.88-.69-1.93-.69-3.15s.23-2.27.69-3.18c.46-.91,1.1-1.61,1.94-2.12.84-.51,1.82-.76,2.96-.76s2.12.25,2.96.74c.83.5,1.48,1.2,1.93,2.1.45.91.68,1.98.68,3.21,0,1.16-.22,2.19-.66,3.07-.44.89-1.08,1.59-1.91,2.09-.83.51-1.83.76-3.01.76ZM239.13,47.48c.57,0,1.03-.17,1.38-.5.35-.34.6-.77.76-1.32.16-.55.23-1.14.23-1.79,0-.61-.07-1.19-.21-1.73-.14-.54-.39-.98-.74-1.32-.35-.33-.83-.5-1.43-.5s-1.04.16-1.39.47c-.35.32-.61.74-.77,1.28-.16.54-.25,1.14-.25,1.79,0,.6.07,1.18.22,1.73.15.56.4,1.01.75,1.36.35.35.83.52,1.44.52Z"/>
    <path class="cls-1" d="M250.61,49.88c-.85,0-1.52-.1-2.02-.3s-.87-.47-1.1-.8-.39-.7-.46-1.1c-.07-.41-.1-.82-.1-1.23v-13.34h3.19v12.94c0,.42.09.77.27,1.03.18.26.53.42,1.03.48l.55.03v2.01c-.22.07-.45.14-.68.19s-.46.08-.68.08Z"/>
    <path class="cls-1" d="M258.62,49.9c-1.13,0-2.11-.24-2.95-.73-.84-.48-1.48-1.17-1.94-2.05-.46-.88-.69-1.93-.69-3.15s.23-2.27.69-3.18c.46-.91,1.1-1.61,1.94-2.12.84-.51,1.82-.76,2.96-.76s2.12.25,2.96.74c.83.5,1.48,1.2,1.93,2.1.45.91.68,1.98.68,3.21,0,1.16-.22,2.19-.66,3.07-.44.89-1.08,1.59-1.91,2.09-.83.51-1.83.76-3.01.76ZM258.63,47.48c.57,0,1.03-.17,1.38-.5.35-.34.6-.77.76-1.32.16-.55.23-1.14.23-1.79,0-.61-.07-1.19-.21-1.73-.14-.54-.39-.98-.74-1.32-.35-.33-.83-.5-1.43-.5s-1.04.16-1.39.47c-.35.32-.61.74-.77,1.28-.16.54-.25,1.14-.25,1.79,0,.6.07,1.18.22,1.73.15.56.4,1.01.75,1.36.35.35.83.52,1.44.52Z"/>
    <path class="cls-1" d="M271.63,53.49c-2.05,0-3.61-.26-4.68-.78-1.07-.52-1.6-1.21-1.6-2.05,0-.4.1-.73.31-.99.2-.27.45-.48.73-.64s.54-.28.77-.37c.23-.08.38-.14.44-.17-.12-.07-.29-.17-.52-.3-.23-.13-.43-.31-.62-.53s-.28-.52-.28-.89c0-.41.2-.79.59-1.14.39-.35.98-.59,1.78-.73-.76-.36-1.34-.84-1.74-1.45-.4-.61-.6-1.23-.6-1.88,0-.76.24-1.41.71-1.95.48-.54,1.13-.96,1.95-1.24s1.76-.42,2.8-.42c.79,0,1.44.08,1.95.25.51.17.98.38,1.41.65.17-.07.4-.15.68-.26.28-.11.58-.23.91-.36.33-.13.65-.26.97-.39.31-.13.59-.25.84-.35l-.02,2.52-1.99.32c.07.2.13.42.18.65.04.23.07.42.07.57,0,.67-.19,1.29-.59,1.87-.39.58-.97,1.05-1.75,1.41-.77.36-1.74.54-2.89.54-.13,0-.32,0-.56-.01s-.43-.02-.58-.03c-.43.02-.73.08-.9.17-.17.09-.25.19-.25.31,0,.18.17.3.5.35s.84.11,1.52.15c.25.02.58.03,1,.06.42.02.89.05,1.39.09,1.41.1,2.47.44,3.16,1.04.7.6,1.04,1.35,1.04,2.26,0,1.08-.51,1.97-1.53,2.67-1.02.7-2.56,1.05-4.61,1.05ZM272.15,51.68c.9,0,1.55-.11,1.94-.34.39-.22.59-.54.59-.96,0-.35-.15-.63-.45-.85-.3-.22-.73-.35-1.3-.38l-2.64-.18c-.35-.01-.65.04-.91.16-.26.12-.46.28-.61.49-.15.21-.22.43-.22.67,0,.48.29.84.88,1.06.59.22,1.5.34,2.73.34ZM271.54,43.56c.62,0,1.11-.17,1.48-.51.37-.34.56-.8.56-1.38s-.19-1.09-.56-1.45c-.37-.36-.87-.55-1.48-.55s-1.12.18-1.5.55c-.38.36-.57.85-.57,1.45s.18,1.03.55,1.37c.37.34.87.51,1.51.51Z"/>
    <path class="cls-1" d="M282.34,53.36c-.79,0-1.51-.13-2.16-.39v-2.07l1.15.04c.5.03.9,0,1.2-.07.31-.08.54-.18.69-.31.16-.13.27-.26.34-.4.07-.14.12-.25.15-.33l.21-.64-4.49-11.06h3.22l2.77,7.52,2.79-7.52h3.19l-4.68,11.6c-.4.98-.83,1.73-1.28,2.25-.45.52-.93.88-1.45,1.07s-1.07.29-1.67.29Z"/>
    <path class="cls-1" d="M298.39,49.68v-16.13h5.94c1.17,0,2.23.2,3.16.61.93.41,1.66,1,2.2,1.79.54.79.81,1.75.81,2.89,0,1.07-.24,1.99-.71,2.75s-1.14,1.34-2,1.74c-.86.4-1.87.6-3.03.6h-3.08v5.76h-3.28ZM301.63,41.4h3.02c.82,0,1.49-.26,2.01-.79s.78-1.17.78-1.95-.28-1.44-.83-1.91c-.55-.47-1.22-.71-2.01-.71h-2.98v5.36Z"/>
    <path class="cls-1" d="M316.22,49.88c-.85,0-1.52-.1-2.02-.3s-.87-.47-1.1-.8-.39-.7-.46-1.1c-.07-.41-.1-.82-.1-1.23v-13.34h3.19v12.94c0,.42.09.77.27,1.03.18.26.53.42,1.03.48l.55.03v2.01c-.22.07-.45.14-.68.19s-.46.08-.68.08Z"/>
    <path class="cls-1" d="M323.19,49.9c-.73,0-1.39-.14-1.98-.41-.59-.28-1.06-.68-1.4-1.2s-.51-1.16-.51-1.91c0-1.27.47-2.23,1.42-2.88.94-.66,2.44-1,4.47-1.02l1.45-.02v-.69c0-.53-.15-.93-.46-1.22-.31-.29-.79-.43-1.44-.42-.47,0-.92.12-1.34.34s-.72.59-.89,1.13h-2.71c.04-.83.29-1.52.73-2.06.44-.54,1.04-.94,1.79-1.21.75-.26,1.61-.4,2.58-.4,1.17,0,2.12.15,2.83.44.71.29,1.23.71,1.56,1.26.32.55.49,1.2.49,1.95v8.11h-2.72l-.27-1.99c-.39.83-.89,1.41-1.48,1.73-.59.32-1.29.48-2.1.48ZM324.29,47.76c.29,0,.57-.05.85-.16.28-.11.53-.25.75-.44.22-.18.4-.39.53-.62.13-.23.2-.47.21-.71v-1.71l-1.17.02c-.54,0-1.05.07-1.52.19-.47.12-.85.32-1.13.6s-.43.65-.43,1.12c0,.53.18.95.55,1.26.37.3.82.45,1.36.45Z"/>
    <path class="cls-1" d="M336.98,49.8c-1.02,0-1.81-.13-2.36-.39-.55-.26-.94-.62-1.15-1.09-.21-.47-.32-1.01-.32-1.63v-6.28h-1.87v-2.26h1.98l.83-3.48h2.32v3.47h2.57v2.27h-2.57l.02,6.15c0,.28.04.49.11.63.07.14.18.23.33.27s.35.06.59.06h1.55v2.01c-.16.07-.39.13-.7.19-.31.06-.75.09-1.32.09Z"/>
    <path class="cls-1" d="M341.93,49.68v-9.27h-2.13v-2.26h2.13v-1.66c0-.93.28-1.65.83-2.17.55-.51,1.32-.77,2.32-.77h2.64l.02,2.17h-1.53c-.41,0-.69.1-.85.31-.16.21-.23.54-.23,1.01v1.12h2.5v2.26h-2.43v9.27h-3.27Z"/>
    <path class="cls-1" d="M354.45,49.9c-1.13,0-2.11-.24-2.95-.73-.84-.48-1.48-1.17-1.94-2.05-.46-.88-.69-1.93-.69-3.15s.23-2.27.69-3.18c.46-.91,1.1-1.61,1.94-2.12.84-.51,1.82-.76,2.96-.76s2.12.25,2.96.74c.83.5,1.48,1.2,1.93,2.1.45.91.68,1.98.68,3.21,0,1.16-.22,2.19-.66,3.07-.44.89-1.08,1.59-1.91,2.09-.83.51-1.83.76-3.01.76ZM354.47,47.48c.57,0,1.03-.17,1.38-.5.35-.34.6-.77.76-1.32.16-.55.23-1.14.23-1.79,0-.61-.07-1.19-.21-1.73-.14-.54-.39-.98-.74-1.32-.35-.33-.83-.5-1.43-.5s-1.04.16-1.39.47c-.35.32-.61.74-.77,1.28-.16.54-.25,1.14-.25,1.79,0,.6.07,1.18.22,1.73.15.56.4,1.01.75,1.36.35.35.83.52,1.44.52Z"/>
    <path class="cls-1" d="M362.26,49.68v-11.54h3.14v2.73c.19-.59.45-1.1.79-1.55.34-.44.75-.79,1.23-1.04.48-.25,1.03-.37,1.64-.37.1,0,.2,0,.3.02.09.01.16.03.21.05v3.1c-.07-.03-.15-.05-.24-.06s-.18-.01-.25-.02c-.64-.05-1.19-.03-1.64.06-.45.09-.82.24-1.1.46-.28.22-.49.48-.61.79-.13.31-.19.66-.19,1.05v6.31h-3.26Z"/>
    <path class="cls-1" d="M371.46,49.68v-11.54h3.19v1.63c.35-.51.82-.94,1.41-1.31.59-.36,1.34-.55,2.24-.55.39,0,.8.07,1.2.21.41.14.79.35,1.16.62.36.27.65.61.88,1.02.37-.53.86-.97,1.47-1.32.61-.35,1.28-.53,2.03-.53.43,0,.87.07,1.31.21.44.14.85.37,1.22.69s.67.75.9,1.28c.23.53.34,1.19.34,1.97v7.61h-3.26v-7.21c0-.46-.09-.83-.27-1.11-.18-.28-.41-.48-.69-.6-.28-.12-.57-.18-.89-.18-.29,0-.58.06-.88.17-.3.12-.55.3-.76.55-.21.25-.31.58-.31.99v7.39h-3.25v-7.5c0-.35-.09-.64-.28-.88-.19-.24-.42-.42-.7-.54-.28-.12-.56-.18-.85-.18s-.59.06-.89.18c-.3.12-.55.31-.75.57s-.3.58-.3.97v7.39h-3.26Z"/>
    <path class="cls-1" d="M395.97,49.9c-.8,0-1.58-.13-2.32-.4-.74-.26-1.37-.68-1.89-1.25-.52-.57-.84-1.31-.98-2.21h2.81c.1.41.28.73.54.97.26.24.55.41.88.51.33.1.64.15.94.15.63,0,1.13-.1,1.51-.3.38-.2.57-.5.57-.91,0-.31-.11-.56-.34-.75-.23-.19-.6-.33-1.12-.42l-2.03-.42c-1.02-.22-1.84-.58-2.46-1.1s-.94-1.25-.94-2.2c0-.69.17-1.31.54-1.86.37-.55.92-.99,1.64-1.31.73-.32,1.61-.48,2.66-.48,1.42,0,2.56.31,3.41.94.85.62,1.29,1.51,1.3,2.64h-2.72c-.08-.45-.3-.79-.66-1.03-.36-.24-.82-.36-1.37-.36s-1.02.1-1.38.3c-.36.2-.55.51-.55.92,0,.3.15.54.45.72.3.18.76.33,1.38.45l1.88.42c.65.16,1.17.37,1.58.64.41.27.72.57.94.89.22.32.38.64.46.97.08.32.13.62.13.88,0,.77-.21,1.42-.61,1.96-.41.54-.98.95-1.71,1.23s-1.58.42-2.54.42Z"/>
  </g>
  <line class="cls-6" x1="439.75" y1="14.02" x2="439.75" y2="69.42"/>
  <rect class="cls-5" x="468.04" y="26.68" width="103.17" height="31.01" rx="5.17" ry="5.17"/>
  <g>
    <path class="cls-2" d="M491.69,45.97v-7.66h1.56v6.35h3.33v1.31h-4.89Z"/>
    <path class="cls-2" d="M500.02,46.07c-.54,0-1.02-.11-1.43-.34-.41-.23-.73-.55-.96-.97-.23-.42-.34-.91-.34-1.47s.11-1.04.32-1.48c.21-.44.51-.79.91-1.04.4-.26.87-.38,1.44-.38s1.03.12,1.4.35c.38.24.66.56.86.98.19.42.29.9.29,1.45v.42h-3.68c0,.28.05.52.14.73.09.21.23.36.4.48.18.11.39.17.63.17.27,0,.5-.06.69-.17.2-.11.34-.3.42-.56h1.39c-.06.39-.22.72-.47,1-.25.28-.55.48-.9.63s-.72.22-1.1.22ZM498.82,42.66h2.24c0-.22-.04-.42-.12-.6-.08-.18-.21-.33-.37-.44-.16-.11-.37-.16-.62-.16s-.44.06-.61.17-.3.26-.39.45c-.09.18-.13.38-.13.58Z"/>
    <path class="cls-2" d="M505.21,46.07c-.35,0-.66-.06-.94-.19-.28-.13-.5-.32-.67-.57s-.24-.55-.24-.91c0-.6.22-1.06.67-1.37.45-.31,1.16-.47,2.12-.48h.69v-.34c0-.25-.07-.44-.22-.58s-.38-.2-.69-.2c-.22,0-.44.06-.64.16-.2.1-.34.28-.42.53h-1.29c.02-.4.14-.72.35-.98.21-.26.49-.45.85-.57.36-.13.76-.19,1.22-.19.56,0,1.01.07,1.35.21.34.14.59.34.74.6.15.26.23.57.23.92v3.85h-1.29l-.13-.94c-.19.4-.42.67-.7.82-.28.15-.61.23-1,.23ZM505.74,45.06c.14,0,.27-.03.41-.08s.25-.12.36-.21.19-.18.25-.29c.06-.11.09-.22.1-.34v-.81h-.56c-.26.01-.5.04-.72.1s-.4.15-.54.28c-.14.13-.2.31-.2.53,0,.25.09.45.26.6.18.14.39.22.64.22Z"/>
    <path class="cls-2" d="M509.59,45.97v-5.48h1.49v1.3c.09-.28.21-.52.37-.73.16-.21.36-.37.59-.49.23-.12.49-.18.78-.18.05,0,.1,0,.14,0,.04,0,.08.01.1.02v1.47s-.07-.02-.11-.03c-.04,0-.08,0-.12-.01-.3-.02-.56-.02-.78.03-.22.04-.39.11-.53.22-.13.1-.23.23-.29.38-.06.15-.09.31-.09.5v3h-1.55Z"/>
    <path class="cls-2" d="M513.95,45.97v-5.48h1.52v.77c.08-.13.2-.26.33-.39.14-.12.31-.23.52-.31.21-.08.46-.12.74-.12.34,0,.65.07.94.2s.53.34.71.62c.18.28.27.65.27,1.1v3.61h-1.55v-3.42c0-.3-.09-.52-.27-.67-.18-.15-.39-.22-.65-.22-.17,0-.33.03-.49.09-.16.06-.29.15-.38.27s-.15.27-.15.45v3.51h-1.55Z"/>
    <path class="cls-2" d="M522.63,45.97v-5.48h1.52v.77c.17-.24.39-.45.67-.62.28-.17.64-.26,1.06-.26.19,0,.38.03.57.1.19.07.38.17.55.29s.31.29.42.48c.18-.25.41-.46.7-.63.29-.17.61-.25.96-.25.21,0,.41.03.62.1.21.07.4.18.58.33.18.15.32.35.43.61.11.25.16.56.16.93v3.61h-1.55v-3.42c0-.22-.04-.39-.13-.53-.09-.13-.2-.23-.33-.29s-.27-.09-.42-.09c-.14,0-.28.03-.42.08-.14.05-.26.14-.36.26s-.15.28-.15.47v3.51h-1.54v-3.56c0-.17-.04-.3-.13-.42-.09-.11-.2-.2-.33-.26s-.27-.09-.41-.09-.28.03-.42.09c-.14.06-.26.15-.36.27-.1.12-.14.27-.14.46v3.51h-1.55Z"/>
    <path class="cls-2" d="M534.51,46.07c-.54,0-1-.11-1.4-.34-.4-.23-.7-.55-.92-.97-.22-.42-.33-.92-.33-1.49s.11-1.08.33-1.51c.22-.43.52-.77.92-1.01.4-.24.87-.36,1.41-.36s1.01.12,1.4.35c.4.24.7.57.92,1,.22.43.32.94.32,1.53,0,.55-.11,1.04-.32,1.46s-.51.75-.91.99c-.39.24-.87.36-1.43.36ZM534.51,44.92c.27,0,.49-.08.66-.24.17-.16.29-.37.36-.63s.11-.54.11-.85c0-.29-.03-.56-.1-.82-.07-.26-.18-.47-.35-.63-.17-.16-.39-.24-.68-.24s-.49.08-.66.23c-.17.15-.29.35-.37.61s-.12.54-.12.85c0,.29.04.56.11.82.07.26.19.48.36.64.17.17.39.25.68.25Z"/>
    <path class="cls-2" d="M538.22,45.97v-5.48h1.49v1.3c.09-.28.21-.52.37-.73.16-.21.36-.37.59-.49.23-.12.49-.18.78-.18.05,0,.1,0,.14,0,.04,0,.08.01.1.02v1.47s-.07-.02-.11-.03c-.04,0-.08,0-.12-.01-.3-.02-.56-.02-.78.03-.22.04-.39.11-.53.22-.13.1-.23.23-.29.38-.06.15-.09.31-.09.5v3h-1.55Z"/>
    <path class="cls-2" d="M545.09,46.07c-.54,0-1.02-.11-1.43-.34-.41-.23-.73-.55-.96-.97-.23-.42-.34-.91-.34-1.47s.11-1.04.32-1.48c.21-.44.51-.79.91-1.04.4-.26.87-.38,1.44-.38s1.03.12,1.4.35c.38.24.66.56.86.98.19.42.29.9.29,1.45v.42h-3.68c0,.28.05.52.14.73.09.21.23.36.4.48.18.11.39.17.63.17.27,0,.5-.06.69-.17.2-.11.34-.3.42-.56h1.39c-.06.39-.22.72-.47,1-.25.28-.55.48-.9.63s-.72.22-1.1.22ZM543.88,42.66h2.24c0-.22-.04-.42-.12-.6-.08-.18-.21-.33-.37-.44-.16-.11-.37-.16-.62-.16s-.44.06-.61.17-.3.26-.39.45c-.09.18-.13.38-.13.58Z"/>
  </g>
  <polygon class="cls-4" points="479.97 46.24 479.54 46.42 479.11 46.61 478.68 46.79 478.24 46.97 477.81 47.15 477.38 47.33 476.94 47.51 476.51 47.69 476.08 47.87 475.64 48.06 475.21 48.24 474.78 48.42 474.34 48.6 473.91 48.78 473.48 48.96 473.04 49.14 472.61 49.33 472.18 49.51 471.74 49.69 471.31 49.87 470.88 50.05 470.44 50.23 470.01 50.41 469.58 50.59 469.14 50.78 468.71 50.96 468.28 51.14 467.84 51.32 467.41 51.5 466.98 51.68 466.54 51.86 466.11 52.04 466.28 52.1 466.44 52.15 466.61 52.2 466.77 52.25 466.94 52.3 467.1 52.36 467.27 52.41 467.43 52.46 467.6 52.51 467.76 52.56 467.93 52.62 468.1 52.67 468.26 52.72 468.43 52.77 468.59 52.82 468.76 52.88 468.92 52.93 469.09 52.98 469.25 53.03 469.42 53.08 469.58 53.14 469.75 53.19 469.91 53.24 470.08 53.29 470.24 53.34 470.41 53.4 470.58 53.45 470.74 53.5 470.91 53.55 471.07 53.6 471.24 53.66 471.4 53.71 471.25 53.87 471.1 54.04 470.95 54.2 470.8 54.37 470.65 54.54 470.49 54.7 470.34 54.87 470.19 55.03 470.04 55.2 469.89 55.36 469.74 55.53 469.59 55.69 469.44 55.86 469.28 56.03 469.13 56.19 468.98 56.36 468.83 56.52 468.68 56.69 468.53 56.85 468.38 57.02 468.23 57.18 468.07 57.35 467.92 57.51 467.77 57.68 467.62 57.85 467.47 58.01 467.32 58.18 467.17 58.34 467.02 58.51 466.86 58.67 466.71 58.84 466.56 59 466.62 59.06 466.68 59.11 466.74 59.17 466.8 59.22 466.86 59.28 466.92 59.33 466.98 59.38 467.04 59.44 467.1 59.49 467.16 59.55 467.22 59.6 467.28 59.66 467.34 59.71 467.4 59.77 467.46 59.82 467.51 59.87 467.57 59.93 467.63 59.98 467.69 60.04 467.75 60.09 467.81 60.15 467.87 60.2 467.93 60.26 467.99 60.31 468.05 60.36 468.11 60.42 468.17 60.47 468.23 60.53 468.29 60.58 468.35 60.64 468.41 60.69 468.47 60.75 468.62 60.58 468.77 60.42 468.92 60.25 469.07 60.08 469.22 59.92 469.38 59.75 469.53 59.59 469.68 59.42 469.83 59.26 469.98 59.09 470.13 58.93 470.28 58.76 470.43 58.59 470.59 58.43 470.74 58.26 470.89 58.1 471.04 57.93 471.19 57.77 471.34 57.6 471.49 57.44 471.64 57.27 471.8 57.11 471.95 56.94 472.1 56.77 472.25 56.61 472.4 56.44 472.55 56.28 472.7 56.11 472.85 55.95 473.01 55.78 473.16 55.62 473.31 55.45 473.37 55.61 473.44 55.77 473.51 55.93 473.57 56.09 473.64 56.25 473.71 56.41 473.77 56.57 473.84 56.73 473.91 56.89 473.97 57.05 474.04 57.21 474.11 57.37 474.17 57.53 474.24 57.69 474.31 57.85 474.37 58.01 474.44 58.17 474.51 58.33 474.57 58.49 474.64 58.65 474.71 58.81 474.77 58.97 474.84 59.13 474.91 59.29 474.97 59.45 475.04 59.61 475.11 59.77 475.17 59.93 475.24 60.09 475.31 60.25 475.37 60.41 475.44 60.57 475.58 60.12 475.72 59.68 475.86 59.23 476.01 58.78 476.15 58.33 476.29 57.88 476.43 57.44 476.57 56.99 476.71 56.54 476.86 56.09 477 55.65 477.14 55.2 477.28 54.75 477.42 54.3 477.57 53.85 477.71 53.41 477.85 52.96 477.99 52.51 478.13 52.06 478.27 51.62 478.42 51.17 478.56 50.72 478.7 50.27 478.84 49.83 478.98 49.38 479.12 48.93 479.27 48.48 479.41 48.03 479.55 47.59 479.69 47.14 479.83 46.69 479.97 46.24"/>
</svg>