<?xml version="1.0" encoding="UTF-8"?>
<svg id="Layer_1" data-name="Layer 1" xmlns="http://www.w3.org/2000/svg" viewBox="0 0 600 135">
  <defs>
    <style>
      .cls-1 {
        font-family: PublicSans-Bold, 'Public Sans';
        font-size: 22.32px;
        font-weight: 700;
      }

      .cls-1, .cls-2 {
        fill: #fff;
      }

      .cls-2 {
        font-size: 12.61px;
      }

      .cls-2, .cls-3 {
        font-family: PublicSansRoman-Medium, 'Public Sans';
        font-variation-settings: 'wght' 500;
        font-weight: 500;
      }

      .cls-4 {
        fill: none;
        opacity: .6;
        stroke: #fff;
        stroke-width: .5px;
      }

      .cls-5 {
        letter-spacing: 0em;
      }

      .cls-6, .cls-3 {
        fill: #002664;
      }

      .cls-7 {
        fill: #d7153a;
      }

      .cls-8 {
        fill: #cbedfd;
      }

      .cls-9 {
        letter-spacing: 0em;
      }

      .cls-10 {
        opacity: .4;
      }

      .cls-11 {
        letter-spacing: -.08em;
      }

      .cls-12 {
        letter-spacing: -.02em;
      }

      .cls-13 {
        letter-spacing: -.02em;
      }

      .cls-14 {
        letter-spacing: -.02em;
      }

      .cls-15 {
        fill: #146cfd;
      }

      .cls-16 {
        letter-spacing: -.03em;
      }

      .cls-17 {
        letter-spacing: -.03em;
      }

      .cls-18 {
        letter-spacing: 0em;
      }

      .cls-19 {
        letter-spacing: 0em;
      }

      .cls-20 {
        letter-spacing: 0em;
      }

      .cls-3 {
        font-size: 11.4px;
      }

      .cls-21 {
        letter-spacing: .01em;
      }
    </style>
  </defs>
  <g>
    <rect class="cls-6" width="600" height="83.43"/>
    <rect class="cls-8" y="83.43" width="600" height="51.57"/>
    <rect class="cls-15" y="83.43" width="600" height="15"/>
  </g>
  <text class="cls-3" transform="translate(250.83 120.98)"><tspan x="0" y="0">digital.nsw.gov.au/delivery/government-technology-platforms</tspan></text>
  <polygon class="cls-7" points="242.16 109.22 241.73 109.4 241.29 109.58 240.86 109.76 240.43 109.94 239.99 110.12 239.56 110.31 239.13 110.49 238.7 110.67 238.26 110.85 237.83 111.03 237.4 111.21 236.96 111.39 236.53 111.57 236.1 111.76 235.66 111.94 235.23 112.12 234.8 112.3 234.36 112.48 233.93 112.66 233.5 112.84 233.06 113.02 232.63 113.21 232.2 113.39 231.76 113.57 231.33 113.75 230.9 113.93 230.46 114.11 230.03 114.29 229.6 114.48 229.16 114.66 228.73 114.84 228.3 115.02 228.46 115.07 228.63 115.12 228.79 115.17 228.96 115.23 229.12 115.28 229.29 115.33 229.45 115.38 229.62 115.43 229.79 115.49 229.95 115.54 230.12 115.59 230.28 115.64 230.45 115.69 230.61 115.75 230.78 115.8 230.94 115.85 231.11 115.9 231.27 115.95 231.44 116.01 231.6 116.06 231.77 116.11 231.93 116.16 232.1 116.21 232.27 116.27 232.43 116.32 232.6 116.37 232.76 116.42 232.93 116.47 233.09 116.53 233.26 116.58 233.42 116.63 233.59 116.68 233.44 116.85 233.29 117.01 233.13 117.18 232.98 117.34 232.83 117.51 232.68 117.68 232.53 117.84 232.38 118.01 232.23 118.17 232.08 118.34 231.92 118.5 231.77 118.67 231.62 118.83 231.47 119 231.32 119.16 231.17 119.33 231.02 119.5 230.87 119.66 230.71 119.83 230.56 119.99 230.41 120.16 230.26 120.32 230.11 120.49 229.96 120.65 229.81 120.82 229.66 120.98 229.5 121.15 229.35 121.32 229.2 121.48 229.05 121.65 228.9 121.81 228.75 121.98 228.81 122.03 228.87 122.09 228.93 122.14 228.99 122.2 229.05 122.25 229.11 122.3 229.16 122.36 229.22 122.41 229.28 122.47 229.34 122.52 229.4 122.58 229.46 122.63 229.52 122.69 229.58 122.74 229.64 122.79 229.7 122.85 229.76 122.9 229.82 122.96 229.88 123.01 229.94 123.07 230 123.12 230.06 123.18 230.12 123.23 230.18 123.28 230.24 123.34 230.3 123.39 230.36 123.45 230.42 123.5 230.48 123.56 230.54 123.61 230.59 123.67 230.65 123.72 230.81 123.55 230.96 123.39 231.11 123.22 231.26 123.06 231.41 122.89 231.56 122.73 231.71 122.56 231.86 122.4 232.02 122.23 232.17 122.07 232.32 121.9 232.47 121.73 232.62 121.57 232.77 121.4 232.92 121.24 233.07 121.07 233.23 120.91 233.38 120.74 233.53 120.58 233.68 120.41 233.83 120.25 233.98 120.08 234.13 119.91 234.28 119.75 234.44 119.58 234.59 119.42 234.74 119.25 234.89 119.09 235.04 118.92 235.19 118.76 235.34 118.59 235.49 118.42 235.56 118.58 235.63 118.74 235.69 118.9 235.76 119.06 235.83 119.22 235.89 119.38 235.96 119.54 236.03 119.7 236.09 119.86 236.16 120.02 236.23 120.18 236.29 120.34 236.36 120.5 236.43 120.66 236.49 120.82 236.56 120.98 236.63 121.14 236.69 121.3 236.76 121.46 236.83 121.62 236.89 121.78 236.96 121.94 237.03 122.1 237.09 122.26 237.16 122.42 237.23 122.58 237.29 122.74 237.36 122.9 237.43 123.06 237.49 123.22 237.56 123.38 237.63 123.54 237.77 123.1 237.91 122.65 238.05 122.2 238.19 121.75 238.33 121.31 238.48 120.86 238.62 120.41 238.76 119.96 238.9 119.52 239.04 119.07 239.18 118.62 239.33 118.17 239.47 117.72 239.61 117.28 239.75 116.83 239.89 116.38 240.03 115.93 240.18 115.49 240.32 115.04 240.46 114.59 240.6 114.14 240.74 113.69 240.89 113.25 241.03 112.8 241.17 112.35 241.31 111.9 241.45 111.46 241.59 111.01 241.74 110.56 241.88 110.11 242.02 109.66 242.16 109.22"/>
  <text class="cls-1" transform="translate(27.32 34.84)"><tspan x="0" y="0">G</tspan><tspan class="cls-14" x="16.94" y="0">ov</tspan><tspan class="cls-9" x="40.7" y="0">ernme</tspan><tspan class="cls-13" x="108.84" y="0">n</tspan><tspan x="121.68" y="0">t </tspan><tspan class="cls-11" x="136" y="0">T</tspan><tspan x="148.05" y="0">e</tspan><tspan class="cls-20" x="160.92" y="0">c</tspan><tspan class="cls-5" x="173.06" y="0">hno</tspan><tspan class="cls-17" x="212.35" y="0">l</tspan><tspan class="cls-19" x="219.02" y="0">o</tspan><tspan class="cls-21" x="231.7" y="0">g</tspan><tspan class="cls-19" x="245.96" y="0">y</tspan><tspan class="cls-5" x="258.37" y="0" xml:space="preserve"> P</tspan><tspan class="cls-18" x="277.96" y="0">l</tspan><tspan class="cls-12" x="285.19" y="0">a</tspan><tspan class="cls-16" x="297.43" y="0">t</tspan><tspan class="cls-20" x="306.07" y="0">f</tspan><tspan x="314.85" y="0">or</tspan><tspan class="cls-18" x="336.89" y="0">m</tspan><tspan class="cls-19" x="356.76" y="0">s</tspan></text>
  <g>
    <text class="cls-2" transform="translate(72.59 65.81)"><tspan x="0" y="0">Creating world-class digital experiences, platforms and solutions</tspan></text>
    <g class="cls-10">
      <path class="cls-4" d="M48.23,60.71v-5.91c0-1.42.34-2.74,1.01-3.95.67-1.21,1.54-2.14,2.61-2.77,1.07-.63,2.21-.83,3.42-.58v2.1l-.51.06c-.74.06-1.43.46-2.07,1.21s-.97,1.61-.97,2.57v.4l3.55.23v6.65h-7.05Z"/>
      <path class="cls-4" d="M58.1,60.71v-5.91c0-1.42.34-2.74,1.01-3.95.67-1.21,1.54-2.14,2.61-2.77,1.07-.63,2.21-.83,3.42-.58v2.1l-.51.06c-.74.06-1.43.46-2.07,1.21s-.97,1.61-.97,2.57v.4l3.55.23v6.65h-7.05Z"/>
    </g>
    <g class="cls-10">
      <path class="cls-4" d="M484.21,60.77v5.62c0,1.35-.32,2.6-.96,3.75-.64,1.15-1.47,2.03-2.48,2.63-1.02.6-2.1.79-3.25.55v-2l.49-.05c.7-.05,1.36-.44,1.97-1.15s.92-1.53.92-2.44v-.38l-3.38-.22v-6.32h6.7Z"/>
      <path class="cls-4" d="M474.84,60.77v5.62c0,1.35-.32,2.6-.96,3.75-.64,1.15-1.47,2.03-2.48,2.63-1.02.6-2.1.79-3.25.55v-2l.49-.05c.7-.05,1.36-.44,1.97-1.15s.92-1.53.92-2.44v-.38l-3.38-.22v-6.32h6.7Z"/>
    </g>
  </g>
</svg>