<?xml version="1.0" encoding="UTF-8"?>
<svg id="Layer_1" data-name="Layer 1" xmlns="http://www.w3.org/2000/svg" viewBox="0 0 400 90">
  <defs>
    <style>
      .cls-1 {
        fill: none;
        opacity: .6;
        stroke: #fff;
        stroke-width: .5px;
      }

      .cls-2 {
        fill: #fff;
      }

      .cls-3 {
        fill: #002664;
      }

      .cls-4 {
        fill: #d7153a;
      }

      .cls-5 {
        fill: #cbedfd;
      }

      .cls-6 {
        opacity: .4;
      }

      .cls-7 {
        fill: #146cfd;
      }
    </style>
  </defs>
  <g>
    <rect class="cls-3" x="-10.4" width="420.79" height="55.62"/>
    <rect class="cls-5" x="-10.4" y="55.62" width="420.79" height="34.38"/>
    <rect class="cls-7" x="-10.4" y="55.62" width="420.79" height="10"/>
  </g>
  <g>
    <path class="cls-3" d="M169.22,80.73c-.51,0-.92-.18-1.22-.53-.3-.35-.45-.86-.45-1.53,0-.41.06-.76.18-1.07.12-.3.3-.54.53-.71.24-.17.53-.25.88-.25.17,0,.33.02.47.06.14.04.26.1.36.17.1.07.19.14.26.22.07.08.12.15.16.22v-2.31h.82v5.65h-.61l-.09-.81c-.03.09-.07.18-.13.28-.06.1-.14.2-.24.29-.1.09-.23.17-.38.22s-.34.09-.56.09ZM169.38,80.12c.36,0,.63-.11.79-.34s.24-.61.24-1.13c0-.3-.04-.55-.11-.75-.07-.21-.18-.36-.33-.47-.15-.11-.34-.16-.58-.16-.3,0-.55.11-.74.33s-.29.57-.29,1.05.09.84.26,1.09c.17.25.42.38.75.38Z"/>
    <path class="cls-3" d="M172.33,75.97v-.8h.82v.8h-.82ZM172.35,80.66v-3.93h.78v3.93h-.78Z"/>
    <path class="cls-3" d="M175.96,81.96c-.64,0-1.13-.09-1.48-.27s-.52-.43-.52-.75c0-.14.03-.26.1-.36.07-.1.15-.18.24-.24.09-.06.18-.11.26-.15.08-.04.13-.06.15-.08-.04-.03-.1-.06-.17-.1-.07-.04-.13-.09-.18-.16-.05-.07-.08-.15-.08-.26,0-.13.06-.25.18-.36.12-.11.3-.19.54-.23-.24-.12-.42-.28-.55-.48-.13-.2-.2-.41-.2-.63,0-.26.07-.48.22-.66.14-.19.35-.33.61-.43.26-.1.57-.15.93-.15.26,0,.48.03.65.09.17.06.33.14.48.24.05-.02.12-.04.21-.08.09-.04.19-.08.29-.12s.21-.08.31-.12c.1-.04.18-.07.24-.1v.71s-.69.13-.69.13c.04.08.06.16.09.25.02.09.03.17.03.25,0,.23-.06.44-.19.63-.12.19-.31.34-.56.46-.25.11-.56.17-.93.17-.04,0-.08,0-.14,0-.06,0-.1,0-.14,0-.24,0-.4.03-.49.08-.09.05-.13.1-.13.15,0,.07.06.12.17.14.11.03.3.05.56.06.09,0,.21.02.36.02.15,0,.31.02.48.03.43.02.76.13.99.32.23.19.34.44.34.76,0,.36-.16.65-.49.88-.33.23-.82.34-1.49.34ZM176.1,81.46c.35,0,.61-.05.78-.15.18-.1.26-.25.26-.45,0-.15-.06-.27-.17-.36s-.28-.15-.51-.16l-1.05-.06c-.1,0-.21.01-.31.06-.1.05-.19.12-.25.21s-.1.19-.1.3c0,.2.11.35.33.45.22.11.56.16,1.01.16ZM175.95,78.67c.26,0,.48-.06.64-.19.16-.13.24-.31.24-.55s-.08-.44-.24-.58c-.16-.13-.37-.2-.64-.2s-.48.07-.64.21-.25.33-.25.57c0,.23.08.42.23.55s.37.2.66.2Z"/>
    <path class="cls-3" d="M179,75.97v-.8h.82v.8h-.82ZM179.01,80.66v-3.93h.78v3.93h-.78Z"/>
    <path class="cls-3" d="M182.42,80.68c-.29,0-.52-.04-.68-.12-.16-.08-.27-.19-.33-.34s-.09-.33-.09-.54v-2.38h-.64v-.58h.67l.2-1.16h.59v1.15h.88v.59h-.88v2.34c0,.13.02.22.04.28.03.06.07.1.14.11.06.02.15.02.26.02h.46v.53s-.12.04-.22.05c-.1.01-.23.02-.39.02Z"/>
    <path class="cls-3" d="M185.05,80.73c-.25,0-.48-.05-.67-.14-.2-.09-.35-.22-.46-.39-.11-.17-.17-.38-.17-.62,0-.44.15-.76.46-.98.31-.21.8-.33,1.48-.34l.65-.02v-.29c0-.23-.07-.4-.2-.53s-.34-.19-.62-.19c-.21,0-.39.05-.56.14-.16.1-.27.25-.32.48h-.7c.02-.26.09-.48.23-.66.14-.18.32-.31.56-.41.24-.09.52-.14.84-.14.36,0,.65.05.89.15.23.1.4.24.51.43s.17.42.17.68v2.75h-.69l-.06-.72c-.15.3-.33.51-.56.63-.23.12-.48.17-.76.17ZM185.3,80.17c.12,0,.25-.02.37-.07.12-.04.23-.11.33-.18s.18-.16.24-.26c.06-.1.09-.19.09-.3v-.65h-.54c-.27.01-.5.04-.69.09-.19.05-.33.13-.43.25-.1.11-.15.26-.15.44,0,.21.07.37.22.49.15.12.33.18.56.18Z"/>
    <path class="cls-3" d="M189.22,80.71c-.23,0-.42-.03-.56-.09s-.25-.14-.32-.25c-.07-.1-.12-.22-.15-.35-.02-.13-.04-.27-.04-.41v-4.61h.8v4.53c0,.18.04.32.11.42.07.1.18.15.33.16h.21v.52c-.06.02-.13.04-.2.05-.07.01-.13.02-.19.02Z"/>
    <path class="cls-3" d="M190.37,80.66v-.98h.94v.98h-.94Z"/>
    <path class="cls-3" d="M192.31,80.66v-3.93h.79v.57c.06-.11.15-.21.26-.3.11-.09.24-.17.4-.23.16-.06.34-.09.55-.09.25,0,.47.05.68.15s.38.25.5.46c.13.21.19.47.19.8v2.58h-.81v-2.49c0-.28-.08-.49-.23-.63-.15-.14-.35-.21-.58-.21-.16,0-.31.03-.46.08-.14.05-.26.13-.35.24-.09.11-.13.24-.13.41v2.6h-.81Z"/>
    <path class="cls-3" d="M198.2,80.73c-.27,0-.53-.04-.77-.13s-.44-.22-.6-.41c-.16-.18-.26-.42-.3-.71h.73c.03.15.1.27.19.37.09.1.2.17.33.22s.27.07.42.07c.25,0,.45-.04.6-.13s.23-.23.23-.42c0-.13-.04-.24-.12-.32-.08-.08-.21-.14-.39-.18l-.78-.19c-.32-.08-.58-.2-.78-.36-.19-.17-.29-.4-.3-.7,0-.23.06-.44.17-.62.12-.18.29-.32.52-.42.23-.1.51-.15.85-.15.44,0,.8.1,1.07.3.27.2.41.48.42.86h-.7c-.02-.18-.11-.32-.25-.42-.14-.1-.32-.15-.54-.15s-.42.05-.57.14c-.15.09-.22.23-.22.42,0,.13.06.23.17.31.11.07.27.14.49.18l.74.19c.19.05.35.12.48.2.12.08.22.17.29.27.07.1.12.2.15.31s.04.21.04.3c0,.25-.06.46-.19.64-.13.18-.3.31-.53.41-.23.09-.51.14-.83.14Z"/>
    <path class="cls-3" d="M201.48,80.66l-1.23-3.93h.74l.86,2.86h.05l.84-2.86h.6l.87,2.85h.05l.83-2.85h.75l-1.22,3.93h-.74l-.85-2.76-.82,2.76h-.73Z"/>
    <path class="cls-3" d="M206.42,80.66v-.98h.94v.98h-.94Z"/>
    <path class="cls-3" d="M210.07,81.96c-.64,0-1.13-.09-1.48-.27s-.52-.43-.52-.75c0-.14.03-.26.1-.36.07-.1.15-.18.24-.24.09-.06.18-.11.26-.15.08-.04.13-.06.15-.08-.04-.03-.1-.06-.17-.1-.07-.04-.13-.09-.18-.16-.05-.07-.08-.15-.08-.26,0-.13.06-.25.18-.36.12-.11.3-.19.54-.23-.24-.12-.42-.28-.55-.48-.13-.2-.2-.41-.2-.63,0-.26.07-.48.22-.66.14-.19.35-.33.61-.43.26-.1.57-.15.93-.15.26,0,.48.03.65.09.17.06.33.14.48.24.05-.02.12-.04.21-.08.09-.04.19-.08.29-.12s.21-.08.31-.12c.1-.04.18-.07.24-.1v.71s-.69.13-.69.13c.04.08.06.16.09.25.02.09.03.17.03.25,0,.23-.06.44-.19.63-.12.19-.31.34-.56.46-.25.11-.56.17-.93.17-.04,0-.08,0-.14,0-.06,0-.1,0-.14,0-.24,0-.4.03-.49.08-.09.05-.13.1-.13.15,0,.07.06.12.17.14.11.03.3.05.56.06.09,0,.21.02.36.02.15,0,.31.02.48.03.43.02.76.13.99.32.23.19.34.44.34.76,0,.36-.16.65-.49.88-.33.23-.82.34-1.49.34ZM210.21,81.46c.35,0,.61-.05.78-.15.18-.1.26-.25.26-.45,0-.15-.06-.27-.17-.36s-.28-.15-.51-.16l-1.05-.06c-.1,0-.21.01-.31.06-.1.05-.19.12-.25.21s-.1.19-.1.3c0,.2.11.35.33.45.22.11.56.16,1.01.16ZM210.07,78.67c.26,0,.48-.06.64-.19.16-.13.24-.31.24-.55s-.08-.44-.24-.58c-.16-.13-.37-.2-.64-.2s-.48.07-.64.21-.25.33-.25.57c0,.23.08.42.23.55s.37.2.66.2Z"/>
    <path class="cls-3" d="M214.72,80.73c-.37,0-.69-.08-.96-.24-.27-.16-.49-.39-.64-.69s-.23-.67-.23-1.09.07-.77.22-1.08c.14-.31.35-.55.62-.72s.6-.26.99-.26.69.08.96.24c.27.16.48.4.63.7s.22.68.22,1.11c0,.4-.07.75-.21,1.05-.14.3-.34.54-.61.71-.27.17-.6.26-1,.26ZM214.72,80.1c.23,0,.41-.06.56-.18.15-.12.26-.28.34-.5s.11-.46.11-.74c0-.26-.03-.5-.1-.71-.07-.21-.17-.38-.32-.51-.15-.13-.35-.19-.59-.19-.23,0-.41.06-.57.17s-.27.28-.34.49c-.08.21-.11.46-.11.75,0,.26.03.49.1.71.07.21.18.39.33.52s.35.19.59.19Z"/>
    <path class="cls-3" d="M218.47,80.66l-1.44-3.93h.75l1,2.9h.05l1-2.9h.75l-1.43,3.93h-.68Z"/>
    <path class="cls-3" d="M221.15,80.66v-.98h.94v.98h-.94Z"/>
    <path class="cls-3" d="M224.22,80.73c-.25,0-.48-.05-.67-.14-.2-.09-.35-.22-.46-.39-.11-.17-.17-.38-.17-.62,0-.44.15-.76.46-.98.31-.21.8-.33,1.48-.34l.65-.02v-.29c0-.23-.07-.4-.2-.53s-.34-.19-.62-.19c-.21,0-.39.05-.56.14-.16.1-.27.25-.32.48h-.7c.02-.26.09-.48.23-.66.14-.18.32-.31.56-.41.24-.09.52-.14.84-.14.36,0,.65.05.89.15.23.1.4.24.51.43s.17.42.17.68v2.75h-.69l-.06-.72c-.15.3-.33.51-.56.63-.23.12-.48.17-.76.17ZM224.47,80.17c.12,0,.25-.02.37-.07.12-.04.23-.11.33-.18s.18-.16.24-.26c.06-.1.09-.19.09-.3v-.65h-.54c-.27.01-.5.04-.69.09-.19.05-.33.13-.43.25-.1.11-.15.26-.15.44,0,.21.07.37.22.49.15.12.33.18.56.18Z"/>
    <path class="cls-3" d="M228.77,80.73c-.2,0-.39-.03-.57-.09-.18-.06-.34-.14-.48-.25s-.25-.25-.33-.41-.12-.35-.12-.57v-2.68h.82v2.59c0,.24.07.43.22.57.15.15.37.22.67.22.27,0,.48-.07.65-.21s.24-.35.24-.62v-2.56h.81v3.93h-.63l-.09-.76c-.05.21-.13.37-.25.49-.12.12-.26.21-.42.27-.16.05-.33.08-.51.08Z"/>
    <path class="cls-3" d="M231.32,80.91l1.91-5.75h.61l-1.91,5.75h-.61Z"/>
    <path class="cls-3" d="M235.94,80.73c-.51,0-.92-.18-1.22-.53-.3-.35-.45-.86-.45-1.53,0-.41.06-.76.18-1.07.12-.3.3-.54.53-.71.24-.17.53-.25.88-.25.17,0,.33.02.47.06.14.04.26.1.36.17.1.07.19.14.26.22.07.08.12.15.16.22v-2.31h.82v5.65h-.61l-.09-.81c-.03.09-.07.18-.13.28-.06.1-.14.2-.24.29-.1.09-.23.17-.38.22s-.34.09-.56.09ZM236.1,80.12c.36,0,.63-.11.79-.34s.24-.61.24-1.13c0-.3-.04-.55-.11-.75-.07-.21-.18-.36-.33-.47-.15-.11-.34-.16-.58-.16-.3,0-.55.11-.74.33s-.29.57-.29,1.05.09.84.26,1.09c.17.25.42.38.75.38Z"/>
    <path class="cls-3" d="M240.76,80.73c-.37,0-.7-.08-.98-.24-.28-.16-.5-.39-.66-.69-.16-.3-.24-.65-.24-1.07s.07-.77.22-1.08c.14-.31.35-.56.63-.74.27-.18.6-.27.99-.27s.7.08.96.24c.26.16.46.39.59.68.13.29.2.64.2,1.04v.27h-2.77c0,.24.04.45.11.63.08.19.2.33.35.44s.35.16.58.16.44-.05.61-.16c.17-.11.28-.26.33-.48h.76c-.05.27-.15.5-.32.68-.17.19-.37.33-.61.42-.24.09-.49.14-.75.14ZM239.69,78.35h1.99c0-.21-.04-.39-.11-.56-.07-.17-.18-.3-.33-.4-.15-.1-.33-.15-.55-.15s-.41.05-.56.16c-.15.11-.26.25-.34.42-.07.17-.11.34-.11.53Z"/>
    <path class="cls-3" d="M244.45,80.71c-.23,0-.42-.03-.56-.09s-.25-.14-.32-.25c-.07-.1-.12-.22-.15-.35-.02-.13-.04-.27-.04-.41v-4.61h.8v4.53c0,.18.04.32.11.42.07.1.18.15.33.16h.21v.52c-.06.02-.13.04-.2.05-.07.01-.13.02-.19.02Z"/>
    <path class="cls-3" d="M245.74,75.97v-.8h.82v.8h-.82ZM245.76,80.66v-3.93h.78v3.93h-.78Z"/>
    <path class="cls-3" d="M248.71,80.66l-1.44-3.93h.75l1,2.9h.05l1-2.9h.75l-1.43,3.93h-.68Z"/>
    <path class="cls-3" d="M253.23,80.73c-.37,0-.7-.08-.98-.24-.28-.16-.5-.39-.66-.69-.16-.3-.24-.65-.24-1.07s.07-.77.22-1.08c.14-.31.35-.56.63-.74.27-.18.6-.27.99-.27s.7.08.96.24c.26.16.46.39.59.68.13.29.2.64.2,1.04v.27h-2.77c0,.24.04.45.11.63.08.19.2.33.35.44s.35.16.58.16.44-.05.61-.16c.17-.11.28-.26.33-.48h.76c-.05.27-.15.5-.32.68-.17.19-.37.33-.61.42-.24.09-.49.14-.75.14ZM252.16,78.35h1.99c0-.21-.04-.39-.11-.56-.07-.17-.18-.3-.33-.4-.15-.1-.33-.15-.55-.15s-.41.05-.56.16c-.15.11-.26.25-.34.42-.07.17-.11.34-.11.53Z"/>
    <path class="cls-3" d="M255.86,80.66v-3.93h.78v.81c.07-.19.16-.35.28-.48.12-.13.26-.23.41-.3.16-.07.32-.1.5-.1.05,0,.1,0,.15,0,.05,0,.09.02.11.03v.78s-.08-.03-.13-.03c-.05,0-.1,0-.13-.01-.17-.01-.33,0-.47.03s-.26.08-.37.15c-.1.07-.18.16-.24.28-.05.11-.08.25-.08.4v2.36h-.81Z"/>
    <path class="cls-3" d="M259.32,81.91c-.24,0-.45-.04-.64-.11v-.52h.4c.15.02.28,0,.38-.02.1-.02.18-.06.23-.1.06-.04.1-.09.13-.14.03-.05.05-.1.07-.14l.12-.33-1.53-3.82h.81l1.1,2.9,1.1-2.9h.79l-1.64,4.15c-.11.27-.23.49-.37.63s-.28.25-.44.31c-.16.06-.33.09-.52.09Z"/>
    <path class="cls-3" d="M262.54,80.91l1.91-5.75h.61l-1.91,5.75h-.61Z"/>
    <path class="cls-3" d="M267.43,81.96c-.64,0-1.13-.09-1.48-.27s-.52-.43-.52-.75c0-.14.03-.26.1-.36.07-.1.15-.18.24-.24.09-.06.18-.11.26-.15.08-.04.13-.06.15-.08-.04-.03-.1-.06-.17-.1-.07-.04-.13-.09-.18-.16-.05-.07-.08-.15-.08-.26,0-.13.06-.25.18-.36.12-.11.3-.19.54-.23-.24-.12-.42-.28-.55-.48-.13-.2-.2-.41-.2-.63,0-.26.07-.48.22-.66.14-.19.35-.33.61-.43.26-.1.57-.15.93-.15.26,0,.48.03.65.09.17.06.33.14.48.24.05-.02.12-.04.21-.08.09-.04.19-.08.29-.12s.21-.08.31-.12c.1-.04.18-.07.24-.1v.71s-.69.13-.69.13c.04.08.06.16.09.25.02.09.03.17.03.25,0,.23-.06.44-.19.63-.12.19-.31.34-.56.46-.25.11-.56.17-.93.17-.04,0-.08,0-.14,0-.06,0-.1,0-.14,0-.24,0-.4.03-.49.08-.09.05-.13.1-.13.15,0,.07.06.12.17.14.11.03.3.05.56.06.09,0,.21.02.36.02.15,0,.31.02.48.03.43.02.76.13.99.32.23.19.34.44.34.76,0,.36-.16.65-.49.88-.33.23-.82.34-1.49.34ZM267.57,81.46c.35,0,.61-.05.78-.15.18-.1.26-.25.26-.45,0-.15-.06-.27-.17-.36s-.28-.15-.51-.16l-1.05-.06c-.1,0-.21.01-.31.06-.1.05-.19.12-.25.21s-.1.19-.1.3c0,.2.11.35.33.45.22.11.56.16,1.01.16ZM267.43,78.67c.26,0,.48-.06.64-.19.16-.13.24-.31.24-.55s-.08-.44-.24-.58c-.16-.13-.37-.2-.64-.2s-.48.07-.64.21-.25.33-.25.57c0,.23.08.42.23.55s.37.2.66.2Z"/>
    <path class="cls-3" d="M272.08,80.73c-.37,0-.69-.08-.96-.24-.27-.16-.49-.39-.64-.69s-.23-.67-.23-1.09.07-.77.22-1.08c.14-.31.35-.55.62-.72s.6-.26.99-.26.69.08.96.24c.27.16.48.4.63.7s.22.68.22,1.11c0,.4-.07.75-.21,1.05-.14.3-.34.54-.61.71-.27.17-.6.26-1,.26ZM272.08,80.1c.23,0,.41-.06.56-.18.15-.12.26-.28.34-.5s.11-.46.11-.74c0-.26-.03-.5-.1-.71-.07-.21-.17-.38-.32-.51-.15-.13-.35-.19-.59-.19-.23,0-.41.06-.57.17s-.27.28-.34.49c-.08.21-.11.46-.11.75,0,.26.03.49.1.71.07.21.18.39.33.52s.35.19.59.19Z"/>
    <path class="cls-3" d="M275.83,80.66l-1.44-3.93h.75l1,2.9h.05l1-2.9h.75l-1.43,3.93h-.68Z"/>
    <path class="cls-3" d="M280.35,80.73c-.37,0-.7-.08-.98-.24-.28-.16-.5-.39-.66-.69-.16-.3-.24-.65-.24-1.07s.07-.77.22-1.08c.14-.31.35-.56.63-.74.27-.18.6-.27.99-.27s.7.08.96.24c.26.16.46.39.59.68.13.29.2.64.2,1.04v.27h-2.77c0,.24.04.45.11.63.08.19.2.33.35.44s.35.16.58.16.44-.05.61-.16c.17-.11.28-.26.33-.48h.76c-.05.27-.15.5-.32.68-.17.19-.37.33-.61.42-.24.09-.49.14-.75.14ZM279.29,78.35h1.99c0-.21-.04-.39-.11-.56-.07-.17-.18-.3-.33-.4-.15-.1-.33-.15-.55-.15s-.41.05-.56.16c-.15.11-.26.25-.34.42-.07.17-.11.34-.11.53Z"/>
    <path class="cls-3" d="M282.98,80.66v-3.93h.78v.81c.07-.19.16-.35.28-.48.12-.13.26-.23.41-.3.16-.07.32-.1.5-.1.05,0,.1,0,.15,0,.05,0,.09.02.11.03v.78s-.08-.03-.13-.03c-.05,0-.1,0-.13-.01-.17-.01-.33,0-.47.03s-.26.08-.37.15c-.1.07-.18.16-.24.28-.05.11-.08.25-.08.4v2.36h-.81Z"/>
    <path class="cls-3" d="M285.99,80.66v-3.93h.79v.57c.06-.11.15-.21.26-.3.11-.09.24-.17.4-.23.16-.06.34-.09.55-.09.25,0,.47.05.68.15s.38.25.5.46c.13.21.19.47.19.8v2.58h-.81v-2.49c0-.28-.08-.49-.23-.63-.15-.14-.35-.21-.58-.21-.16,0-.31.03-.46.08-.14.05-.26.13-.35.24-.09.11-.13.24-.13.41v2.6h-.81Z"/>
    <path class="cls-3" d="M290.41,80.66v-3.93h.79v.57c.11-.17.26-.32.46-.45.19-.13.44-.19.75-.19.14,0,.29.02.43.07s.28.12.4.21.22.21.29.35c.12-.19.29-.34.5-.46.21-.12.44-.18.7-.18.14,0,.28.02.43.07.15.04.29.12.42.22s.23.25.31.43c.08.19.12.42.12.7v2.58h-.82v-2.49c0-.22-.04-.38-.11-.51-.07-.12-.17-.21-.28-.26-.12-.05-.24-.07-.37-.07-.12,0-.24.02-.36.07-.13.04-.23.12-.32.23-.09.11-.13.25-.13.43v2.6h-.81v-2.66c0-.14-.04-.27-.12-.37s-.17-.17-.29-.22c-.12-.05-.23-.07-.34-.07-.13,0-.25.03-.38.08-.13.05-.23.13-.32.24s-.13.25-.13.42v2.6h-.81Z"/>
    <path class="cls-3" d="M298.75,80.73c-.37,0-.7-.08-.98-.24-.28-.16-.5-.39-.66-.69-.16-.3-.24-.65-.24-1.07s.07-.77.22-1.08c.14-.31.35-.56.63-.74.27-.18.6-.27.99-.27s.7.08.96.24c.26.16.46.39.59.68.13.29.2.64.2,1.04v.27h-2.77c0,.24.04.45.11.63.08.19.2.33.35.44s.35.16.58.16.44-.05.61-.16c.17-.11.28-.26.33-.48h.76c-.05.27-.15.5-.32.68-.17.19-.37.33-.61.42-.24.09-.49.14-.75.14ZM297.68,78.35h1.99c0-.21-.04-.39-.11-.56-.07-.17-.18-.3-.33-.4-.15-.1-.33-.15-.55-.15s-.41.05-.56.16c-.15.11-.26.25-.34.42-.07.17-.11.34-.11.53Z"/>
    <path class="cls-3" d="M301.38,80.66v-3.93h.79v.57c.06-.11.15-.21.26-.3.11-.09.24-.17.4-.23.16-.06.34-.09.55-.09.25,0,.47.05.68.15s.38.25.5.46c.13.21.19.47.19.8v2.58h-.81v-2.49c0-.28-.08-.49-.23-.63-.15-.14-.35-.21-.58-.21-.16,0-.31.03-.46.08-.14.05-.26.13-.35.24-.09.11-.13.24-.13.41v2.6h-.81Z"/>
    <path class="cls-3" d="M307.31,80.68c-.29,0-.52-.04-.68-.12-.16-.08-.27-.19-.33-.34s-.09-.33-.09-.54v-2.38h-.64v-.58h.67l.2-1.16h.59v1.15h.88v.59h-.88v2.34c0,.13.02.22.04.28.03.06.07.1.14.11.06.02.15.02.26.02h.46v.53s-.12.04-.22.05c-.1.01-.23.02-.39.02Z"/>
    <path class="cls-3" d="M308.73,79.01v-.62h1.97s0,.62,0,.62h-1.97Z"/>
    <path class="cls-3" d="M313.22,80.68c-.29,0-.52-.04-.68-.12-.16-.08-.27-.19-.33-.34s-.09-.33-.09-.54v-2.38h-.64v-.58h.67l.2-1.16h.59v1.15h.88v.59h-.88v2.34c0,.13.02.22.04.28.03.06.07.1.14.11.06.02.15.02.26.02h.46v.53s-.12.04-.22.05c-.1.01-.23.02-.39.02Z"/>
    <path class="cls-3" d="M316.43,80.73c-.37,0-.7-.08-.98-.24-.28-.16-.5-.39-.66-.69-.16-.3-.24-.65-.24-1.07s.07-.77.22-1.08c.14-.31.35-.56.63-.74.27-.18.6-.27.99-.27s.7.08.96.24c.26.16.46.39.59.68.13.29.2.64.2,1.04v.27h-2.77c0,.24.04.45.11.63.08.19.2.33.35.44s.35.16.58.16.44-.05.61-.16c.17-.11.28-.26.33-.48h.76c-.05.27-.15.5-.32.68-.17.19-.37.33-.61.42-.24.09-.49.14-.75.14ZM315.36,78.35h1.99c0-.21-.04-.39-.11-.56-.07-.17-.18-.3-.33-.4-.15-.1-.33-.15-.55-.15s-.41.05-.56.16c-.15.11-.26.25-.34.42-.07.17-.11.34-.11.53Z"/>
    <path class="cls-3" d="M320.67,80.73c-.35,0-.67-.08-.95-.23-.28-.16-.49-.38-.65-.69-.16-.3-.24-.67-.24-1.1,0-.41.07-.77.22-1.08.15-.31.36-.55.63-.72.27-.17.6-.26.98-.26.3,0,.56.06.79.17s.41.28.56.48c.14.21.23.45.26.72h-.71c-.02-.13-.07-.25-.14-.36-.08-.11-.18-.2-.3-.27-.12-.07-.27-.1-.44-.1-.32,0-.57.12-.77.35s-.3.58-.3,1.06c0,.44.09.78.28,1.04s.45.39.8.39c.17,0,.32-.04.44-.11s.22-.16.3-.27.12-.23.14-.35h.69c-.03.26-.12.5-.26.7s-.33.36-.56.47-.49.17-.78.17Z"/>
    <path class="cls-3" d="M323.19,80.66v-5.65h.8v2.29c.06-.1.15-.2.26-.3s.24-.17.4-.23c.16-.06.34-.09.54-.09.26,0,.49.05.69.14s.37.23.49.41c.12.18.18.39.18.64v2.78h-.81v-2.63c0-.22-.08-.39-.23-.51-.15-.12-.35-.18-.59-.18-.16,0-.31.03-.45.08s-.26.14-.35.24c-.09.11-.13.24-.13.41v2.59h-.81Z"/>
    <path class="cls-3" d="M327.61,80.66v-3.93h.79v.57c.06-.11.15-.21.26-.3.11-.09.24-.17.4-.23.16-.06.34-.09.55-.09.25,0,.47.05.68.15s.38.25.5.46c.13.21.19.47.19.8v2.58h-.81v-2.49c0-.28-.08-.49-.23-.63-.15-.14-.35-.21-.58-.21-.16,0-.31.03-.46.08-.14.05-.26.13-.35.24-.09.11-.13.24-.13.41v2.6h-.81Z"/>
    <path class="cls-3" d="M333.64,80.73c-.37,0-.69-.08-.96-.24-.27-.16-.49-.39-.64-.69s-.23-.67-.23-1.09.07-.77.22-1.08c.14-.31.35-.55.62-.72s.6-.26.99-.26.69.08.96.24c.27.16.48.4.63.7s.22.68.22,1.11c0,.4-.07.75-.21,1.05-.14.3-.34.54-.61.71-.27.17-.6.26-1,.26ZM333.64,80.1c.23,0,.41-.06.56-.18.15-.12.26-.28.34-.5s.11-.46.11-.74c0-.26-.03-.5-.1-.71-.07-.21-.17-.38-.32-.51-.15-.13-.35-.19-.59-.19-.23,0-.41.06-.57.17s-.27.28-.34.49c-.08.21-.11.46-.11.75,0,.26.03.49.1.71.07.21.18.39.33.52s.35.19.59.19Z"/>
    <path class="cls-3" d="M337.41,80.71c-.23,0-.42-.03-.56-.09s-.25-.14-.32-.25c-.07-.1-.12-.22-.15-.35-.02-.13-.04-.27-.04-.41v-4.61h.8v4.53c0,.18.04.32.11.42.07.1.18.15.33.16h.21v.52c-.06.02-.13.04-.2.05-.07.01-.13.02-.19.02Z"/>
    <path class="cls-3" d="M340.31,80.73c-.37,0-.69-.08-.96-.24-.27-.16-.49-.39-.64-.69s-.23-.67-.23-1.09.07-.77.22-1.08c.14-.31.35-.55.62-.72s.6-.26.99-.26.69.08.96.24c.27.16.48.4.63.7s.22.68.22,1.11c0,.4-.07.75-.21,1.05-.14.3-.34.54-.61.71-.27.17-.6.26-1,.26ZM340.31,80.1c.23,0,.41-.06.56-.18.15-.12.26-.28.34-.5s.11-.46.11-.74c0-.26-.03-.5-.1-.71-.07-.21-.17-.38-.32-.51-.15-.13-.35-.19-.59-.19-.23,0-.41.06-.57.17s-.27.28-.34.49c-.08.21-.11.46-.11.75,0,.26.03.49.1.71.07.21.18.39.33.52s.35.19.59.19Z"/>
    <path class="cls-3" d="M344.72,81.96c-.64,0-1.13-.09-1.48-.27s-.52-.43-.52-.75c0-.14.03-.26.1-.36.07-.1.15-.18.24-.24.09-.06.18-.11.26-.15.08-.04.13-.06.15-.08-.04-.03-.1-.06-.17-.1-.07-.04-.13-.09-.18-.16-.05-.07-.08-.15-.08-.26,0-.13.06-.25.18-.36.12-.11.3-.19.54-.23-.24-.12-.42-.28-.55-.48-.13-.2-.2-.41-.2-.63,0-.26.07-.48.22-.66.14-.19.35-.33.61-.43.26-.1.57-.15.93-.15.26,0,.48.03.65.09.17.06.33.14.48.24.05-.02.12-.04.21-.08.09-.04.19-.08.29-.12s.21-.08.31-.12c.1-.04.18-.07.24-.1v.71s-.69.13-.69.13c.04.08.06.16.09.25.02.09.03.17.03.25,0,.23-.06.44-.19.63-.12.19-.31.34-.56.46-.25.11-.56.17-.93.17-.04,0-.08,0-.14,0-.06,0-.1,0-.14,0-.24,0-.4.03-.49.08-.09.05-.13.1-.13.15,0,.07.06.12.17.14.11.03.3.05.56.06.09,0,.21.02.36.02.15,0,.31.02.48.03.43.02.76.13.99.32.23.19.34.44.34.76,0,.36-.16.65-.49.88-.33.23-.82.34-1.49.34ZM344.86,81.46c.35,0,.61-.05.78-.15.18-.1.26-.25.26-.45,0-.15-.06-.27-.17-.36s-.28-.15-.51-.16l-1.05-.06c-.1,0-.21.01-.31.06-.1.05-.19.12-.25.21s-.1.19-.1.3c0,.2.11.35.33.45.22.11.56.16,1.01.16ZM344.72,78.67c.26,0,.48-.06.64-.19.16-.13.24-.31.24-.55s-.08-.44-.24-.58c-.16-.13-.37-.2-.64-.2s-.48.07-.64.21-.25.33-.25.57c0,.23.08.42.23.55s.37.2.66.2Z"/>
    <path class="cls-3" d="M348.21,81.91c-.24,0-.45-.04-.64-.11v-.52h.4c.15.02.28,0,.38-.02.1-.02.18-.06.23-.1.06-.04.1-.09.13-.14.03-.05.05-.1.07-.14l.12-.33-1.53-3.82h.81l1.1,2.9,1.1-2.9h.79l-1.64,4.15c-.11.27-.23.49-.37.63s-.28.25-.44.31c-.16.06-.33.09-.52.09Z"/>
    <path class="cls-3" d="M351.8,79.01v-.62h1.97s0,.62,0,.62h-1.97Z"/>
    <path class="cls-3" d="M354.78,81.88v-5.15h.81v.65c.06-.09.12-.17.19-.26s.17-.16.27-.24c.1-.07.23-.13.36-.17.14-.04.29-.06.45-.06.31,0,.58.07.82.21.24.14.42.36.56.66.13.29.2.67.2,1.12s-.07.84-.2,1.15c-.13.31-.32.54-.57.7-.25.16-.54.24-.87.24-.16,0-.31-.02-.44-.07-.13-.05-.24-.11-.34-.18-.1-.08-.18-.16-.25-.24-.07-.09-.13-.17-.17-.26v1.9h-.82ZM356.63,80.11c.3,0,.55-.12.74-.35s.29-.6.29-1.1c0-.43-.09-.77-.27-1.02-.18-.25-.43-.38-.77-.38s-.6.13-.78.39-.26.59-.26,1.01c0,.26.04.5.12.72.08.22.19.39.35.53.15.13.35.2.57.2Z"/>
    <path class="cls-3" d="M360.4,80.71c-.23,0-.42-.03-.56-.09s-.25-.14-.32-.25c-.07-.1-.12-.22-.15-.35-.02-.13-.04-.27-.04-.41v-4.61h.8v4.53c0,.18.04.32.11.42.07.1.18.15.33.16h.21v.52c-.06.02-.13.04-.2.05-.07.01-.13.02-.19.02Z"/>
    <path class="cls-3" d="M362.81,80.73c-.25,0-.48-.05-.67-.14-.2-.09-.35-.22-.46-.39-.11-.17-.17-.38-.17-.62,0-.44.15-.76.46-.98.31-.21.8-.33,1.48-.34l.65-.02v-.29c0-.23-.07-.4-.2-.53s-.34-.19-.62-.19c-.21,0-.39.05-.56.14-.16.1-.27.25-.32.48h-.7c.02-.26.09-.48.23-.66.14-.18.32-.31.56-.41.24-.09.52-.14.84-.14.36,0,.65.05.89.15.23.1.4.24.51.43s.17.42.17.68v2.75h-.69l-.06-.72c-.15.3-.33.51-.56.63-.23.12-.48.17-.76.17ZM363.06,80.17c.12,0,.25-.02.37-.07.12-.04.23-.11.33-.18s.18-.16.24-.26c.06-.1.09-.19.09-.3v-.65h-.54c-.27.01-.5.04-.69.09-.19.05-.33.13-.43.25-.1.11-.15.26-.15.44,0,.21.07.37.22.49.15.12.33.18.56.18Z"/>
    <path class="cls-3" d="M367.42,80.68c-.29,0-.52-.04-.68-.12-.16-.08-.27-.19-.33-.34s-.09-.33-.09-.54v-2.38h-.64v-.58h.67l.2-1.16h.59v1.15h.88v.59h-.88v2.34c0,.13.02.22.04.28.03.06.07.1.14.11.06.02.15.02.26.02h.46v.53s-.12.04-.22.05c-.1.01-.23.02-.39.02Z"/>
    <path class="cls-3" d="M369.43,80.66v-3.34h-.8v-.58h.8v-.6c0-.31.08-.55.25-.72.17-.17.41-.25.74-.25h.79v.57s-.57,0-.57,0c-.15,0-.26.04-.32.12s-.09.21-.09.38v.5h.94v.58h-.92v3.34h-.82Z"/>
    <path class="cls-3" d="M373.55,80.73c-.37,0-.69-.08-.96-.24-.27-.16-.49-.39-.64-.69s-.23-.67-.23-1.09.07-.77.22-1.08c.14-.31.35-.55.62-.72s.6-.26.99-.26.69.08.96.24c.27.16.48.4.63.7s.22.68.22,1.11c0,.4-.07.75-.21,1.05-.14.3-.34.54-.61.71-.27.17-.6.26-1,.26ZM373.55,80.1c.23,0,.41-.06.56-.18.15-.12.26-.28.34-.5s.11-.46.11-.74c0-.26-.03-.5-.1-.71-.07-.21-.17-.38-.32-.51-.15-.13-.35-.19-.59-.19-.23,0-.41.06-.57.17s-.27.28-.34.49c-.08.21-.11.46-.11.75,0,.26.03.49.1.71.07.21.18.39.33.52s.35.19.59.19Z"/>
    <path class="cls-3" d="M376.26,80.66v-3.93h.78v.81c.07-.19.16-.35.28-.48.12-.13.26-.23.41-.3.16-.07.32-.1.5-.1.05,0,.1,0,.15,0,.05,0,.09.02.11.03v.78s-.08-.03-.13-.03c-.05,0-.1,0-.13-.01-.17-.01-.33,0-.47.03s-.26.08-.37.15c-.1.07-.18.16-.24.28-.05.11-.08.25-.08.4v2.36h-.81Z"/>
    <path class="cls-3" d="M379.27,80.66v-3.93h.79v.57c.11-.17.26-.32.46-.45.19-.13.44-.19.75-.19.14,0,.29.02.43.07s.28.12.4.21.22.21.29.35c.12-.19.29-.34.5-.46.21-.12.44-.18.7-.18.14,0,.28.02.43.07.15.04.29.12.42.22s.23.25.31.43c.08.19.12.42.12.7v2.58h-.82v-2.49c0-.22-.04-.38-.11-.51-.07-.12-.17-.21-.28-.26-.12-.05-.24-.07-.37-.07-.12,0-.24.02-.36.07-.13.04-.23.12-.32.23-.09.11-.13.25-.13.43v2.6h-.81v-2.66c0-.14-.04-.27-.12-.37s-.17-.17-.29-.22c-.12-.05-.23-.07-.34-.07-.13,0-.25.03-.38.08-.13.05-.23.13-.32.24s-.13.25-.13.42v2.6h-.81Z"/>
    <path class="cls-3" d="M387.37,80.73c-.27,0-.53-.04-.77-.13s-.44-.22-.6-.41c-.16-.18-.26-.42-.3-.71h.73c.03.15.1.27.19.37.09.1.2.17.33.22s.27.07.42.07c.25,0,.45-.04.6-.13s.23-.23.23-.42c0-.13-.04-.24-.12-.32-.08-.08-.21-.14-.39-.18l-.78-.19c-.32-.08-.58-.2-.78-.36-.19-.17-.29-.4-.3-.7,0-.23.06-.44.17-.62.12-.18.29-.32.52-.42.23-.1.51-.15.85-.15.44,0,.8.1,1.07.3.27.2.41.48.42.86h-.7c-.02-.18-.11-.32-.25-.42-.14-.1-.32-.15-.54-.15s-.42.05-.57.14c-.15.09-.22.23-.22.42,0,.13.06.23.17.31.11.07.27.14.49.18l.74.19c.19.05.35.12.48.2.12.08.22.17.29.27.07.1.12.2.15.31s.04.21.04.3c0,.25-.06.46-.19.64-.13.18-.3.31-.53.41-.23.09-.51.14-.83.14Z"/>
  </g>
  <polygon class="cls-4" points="161.44 72.81 161.15 72.93 160.86 73.05 160.57 73.17 160.29 73.29 160 73.42 159.71 73.54 159.42 73.66 159.13 73.78 158.84 73.9 158.55 74.02 158.26 74.14 157.97 74.26 157.69 74.38 157.4 74.5 157.11 74.62 156.82 74.75 156.53 74.87 156.24 74.99 155.95 75.11 155.66 75.23 155.38 75.35 155.09 75.47 154.8 75.59 154.51 75.71 154.22 75.83 153.93 75.95 153.64 76.07 153.35 76.2 153.06 76.32 152.78 76.44 152.49 76.56 152.2 76.68 152.31 76.71 152.42 76.75 152.53 76.78 152.64 76.82 152.75 76.85 152.86 76.89 152.97 76.92 153.08 76.96 153.19 76.99 153.3 77.03 153.41 77.06 153.52 77.1 153.63 77.13 153.74 77.16 153.85 77.2 153.96 77.23 154.07 77.27 154.18 77.3 154.29 77.34 154.4 77.37 154.51 77.41 154.62 77.44 154.73 77.48 154.84 77.51 154.95 77.55 155.06 77.58 155.17 77.62 155.28 77.65 155.39 77.68 155.5 77.72 155.62 77.75 155.73 77.79 155.62 77.9 155.52 78.01 155.42 78.12 155.32 78.23 155.22 78.34 155.12 78.45 155.02 78.56 154.92 78.67 154.82 78.78 154.72 78.89 154.62 79 154.52 79.11 154.41 79.22 154.31 79.33 154.21 79.44 154.11 79.55 154.01 79.66 153.91 79.77 153.81 79.88 153.71 79.99 153.61 80.11 153.51 80.22 153.41 80.33 153.31 80.44 153.2 80.55 153.1 80.66 153 80.77 152.9 80.88 152.8 80.99 152.7 81.1 152.6 81.21 152.5 81.32 152.54 81.35 152.58 81.39 152.62 81.43 152.66 81.46 152.7 81.5 152.74 81.54 152.78 81.57 152.82 81.61 152.86 81.65 152.9 81.68 152.94 81.72 152.98 81.75 153.01 81.79 153.05 81.83 153.09 81.86 153.13 81.9 153.17 81.94 153.21 81.97 153.25 82.01 153.29 82.04 153.33 82.08 153.37 82.12 153.41 82.15 153.45 82.19 153.49 82.23 153.53 82.26 153.57 82.3 153.61 82.33 153.65 82.37 153.69 82.41 153.73 82.44 153.77 82.48 153.87 82.37 153.97 82.26 154.07 82.15 154.17 82.04 154.27 81.93 154.37 81.82 154.48 81.71 154.58 81.6 154.68 81.49 154.78 81.38 154.88 81.27 154.98 81.16 155.08 81.05 155.18 80.94 155.28 80.83 155.38 80.71 155.48 80.6 155.58 80.49 155.69 80.38 155.79 80.27 155.89 80.16 155.99 80.05 156.09 79.94 156.19 79.83 156.29 79.72 156.39 79.61 156.49 79.5 156.59 79.39 156.69 79.28 156.79 79.17 156.9 79.06 157 78.95 157.04 79.06 157.08 79.16 157.13 79.27 157.17 79.38 157.22 79.48 157.26 79.59 157.31 79.7 157.35 79.8 157.4 79.91 157.44 80.02 157.48 80.12 157.53 80.23 157.57 80.34 157.62 80.44 157.66 80.55 157.71 80.66 157.75 80.76 157.8 80.87 157.84 80.98 157.88 81.08 157.93 81.19 157.97 81.3 158.02 81.4 158.06 81.51 158.11 81.62 158.15 81.72 158.19 81.83 158.24 81.94 158.28 82.04 158.33 82.15 158.37 82.26 158.42 82.36 158.51 82.06 158.61 81.77 158.7 81.47 158.79 81.17 158.89 80.87 158.98 80.57 159.08 80.27 159.17 79.98 159.27 79.68 159.36 79.38 159.46 79.08 159.55 78.78 159.65 78.48 159.74 78.18 159.83 77.89 159.93 77.59 160.02 77.29 160.12 76.99 160.21 76.69 160.31 76.39 160.4 76.09 160.5 75.8 160.59 75.5 160.68 75.2 160.78 74.9 160.87 74.6 160.97 74.3 161.06 74.01 161.16 73.71 161.25 73.41 161.35 73.11 161.44 72.81"/>
  <g>
    <path class="cls-2" d="M23.77,23.38c-.99,0-1.84-.22-2.57-.67-.73-.45-1.29-1.08-1.68-1.91-.39-.82-.59-1.79-.59-2.92s.21-2.13.62-2.96c.41-.83.99-1.47,1.74-1.92.74-.45,1.61-.68,2.6-.68.64,0,1.22.1,1.75.3.53.2.98.48,1.37.83.39.35.69.75.92,1.19.22.44.34.9.36,1.38h-2.29c-.06-.34-.19-.65-.38-.94-.19-.28-.44-.51-.73-.68s-.64-.26-1.04-.26c-.48,0-.91.12-1.29.37-.39.25-.69.64-.91,1.17-.22.54-.33,1.24-.33,2.12,0,.71.07,1.3.22,1.77.15.47.34.84.59,1.12.25.28.53.47.85.58s.64.17.97.17.6-.05.85-.16.46-.24.64-.41c.18-.17.32-.35.42-.55.1-.2.17-.4.2-.59l.08-.65h-2.22v-1.5l4.5.02v5.62h-1.48v-1.41c-.18.24-.41.48-.68.72-.27.24-.6.44-1,.6-.4.16-.89.23-1.47.23Z"/>
    <path class="cls-2" d="M33.79,23.38c-.75,0-1.41-.16-1.97-.48-.56-.32-.99-.78-1.29-1.37-.31-.59-.46-1.29-.46-2.1s.15-1.51.46-2.12c.3-.6.74-1.08,1.29-1.41.56-.34,1.22-.51,1.98-.51s1.42.17,1.97.49c.56.33.98.8,1.29,1.4.3.61.45,1.32.45,2.14,0,.77-.15,1.46-.44,2.05-.3.59-.72,1.06-1.27,1.4-.55.34-1.22.51-2,.51ZM33.8,21.76c.38,0,.69-.11.92-.33.23-.22.4-.52.51-.88.1-.36.16-.76.16-1.19,0-.41-.05-.79-.14-1.15-.09-.36-.26-.65-.49-.88-.23-.22-.55-.33-.95-.33s-.69.11-.93.32c-.24.21-.41.5-.52.86-.11.36-.16.76-.16,1.19,0,.4.05.79.15,1.16.1.37.27.67.5.9.23.23.55.35.96.35Z"/>
    <path class="cls-2" d="M40.92,23.23l-2.89-7.69h1.96l1.68,4.9h.06l1.66-4.9h1.99l-2.89,7.69h-1.58Z"/>
    <path class="cls-2" d="M49.81,23.38c-.76,0-1.43-.16-2.01-.48-.58-.32-1.03-.77-1.35-1.36-.32-.58-.48-1.27-.48-2.07s.15-1.46.44-2.08c.29-.62.72-1.11,1.28-1.47.56-.36,1.23-.54,2.02-.54s1.44.17,1.97.49c.53.33.93.79,1.21,1.38.27.59.41,1.27.41,2.03v.59h-5.17c0,.39.06.73.19,1.02s.32.51.56.67c.25.16.54.23.89.23.37,0,.7-.08.97-.24.28-.16.47-.42.59-.78h1.96c-.09.55-.31,1.01-.65,1.4s-.77.68-1.26.88c-.5.2-1.01.31-1.55.31ZM48.12,18.58h3.14c0-.31-.06-.59-.17-.85-.12-.26-.29-.46-.52-.61-.23-.15-.52-.22-.87-.22s-.62.08-.85.24c-.24.16-.42.37-.54.63s-.19.53-.18.81Z"/>
    <path class="cls-2" d="M54.85,23.23v-7.69h2.09v1.82c.12-.39.3-.73.52-1.03.23-.29.5-.53.82-.69.32-.17.69-.25,1.09-.25.07,0,.14,0,.2.01.06,0,.11.02.14.03v2.07s-.1-.03-.16-.04-.12,0-.17-.01c-.43-.04-.79-.02-1.09.04-.3.06-.55.16-.74.3-.19.14-.33.32-.41.53-.08.21-.13.44-.13.7v4.21h-2.17Z"/>
    <path class="cls-2" d="M60.98,23.23v-7.69h2.14v1.09c.12-.19.27-.37.46-.55.19-.18.43-.32.73-.43s.64-.17,1.04-.17c.47,0,.91.09,1.32.27.41.18.74.47.99.87s.38.91.38,1.54v5.07h-2.17v-4.8c0-.42-.12-.73-.37-.94-.25-.21-.55-.31-.91-.31-.24,0-.47.04-.69.13-.22.08-.4.21-.54.38s-.21.38-.21.62v4.92h-2.17Z"/>
    <path class="cls-2" d="M69.81,23.23v-7.69h2.13v1.09c.23-.34.55-.63.94-.87.39-.24.89-.36,1.49-.36.26,0,.53.05.8.14.27.09.53.23.77.41.24.18.44.41.58.68.25-.35.57-.65.98-.88.4-.24.85-.35,1.35-.35.29,0,.58.05.87.14.29.09.57.25.81.46s.45.5.6.85c.15.35.23.79.23,1.31v5.07h-2.17v-4.8c0-.31-.06-.55-.18-.74-.12-.19-.28-.32-.46-.4-.19-.08-.38-.12-.59-.12-.19,0-.39.04-.59.12-.2.08-.37.2-.51.37-.14.17-.21.39-.21.66v4.92h-2.16v-5c0-.23-.06-.43-.19-.59-.12-.16-.28-.28-.46-.36-.19-.08-.38-.12-.57-.12s-.4.04-.59.12c-.2.08-.36.21-.5.38s-.2.39-.2.64v4.92h-2.17Z"/>
    <path class="cls-2" d="M86.66,23.38c-.76,0-1.43-.16-2.01-.48-.58-.32-1.03-.77-1.35-1.36-.32-.58-.48-1.27-.48-2.07s.15-1.46.44-2.08c.29-.62.72-1.11,1.28-1.47.56-.36,1.23-.54,2.02-.54s1.44.17,1.97.49c.53.33.93.79,1.21,1.38.27.59.41,1.27.41,2.03v.59h-5.17c0,.39.06.73.19,1.02s.32.51.56.67c.25.16.54.23.89.23.37,0,.7-.08.97-.24.28-.16.47-.42.59-.78h1.96c-.09.55-.31,1.01-.65,1.4s-.77.68-1.26.88c-.5.2-1.01.31-1.55.31ZM84.97,18.58h3.14c0-.31-.06-.59-.17-.85-.12-.26-.29-.46-.52-.61-.23-.15-.52-.22-.87-.22s-.62.08-.85.24c-.24.16-.42.37-.54.63s-.19.53-.18.81Z"/>
    <path class="cls-2" d="M91.71,23.23v-7.69h2.14v1.09c.12-.19.27-.37.46-.55.19-.18.43-.32.73-.43s.64-.17,1.04-.17c.47,0,.91.09,1.32.27.41.18.74.47.99.87s.38.91.38,1.54v5.07h-2.17v-4.8c0-.42-.12-.73-.37-.94-.25-.21-.55-.31-.91-.31-.24,0-.47.04-.69.13-.22.08-.4.21-.54.38s-.21.38-.21.62v4.92h-2.17Z"/>
    <path class="cls-2" d="M103.58,23.31c-.68,0-1.2-.09-1.57-.26-.37-.17-.62-.42-.77-.73-.14-.31-.21-.67-.21-1.09v-4.19h-1.25v-1.51h1.32l.55-2.32h1.55v2.31h1.71v1.52h-1.71v4.1c.01.19.04.33.09.42.05.09.12.15.22.18s.23.04.39.04h1.03v1.34c-.1.04-.26.09-.47.13-.21.04-.5.06-.88.06Z"/>
    <path class="cls-2" d="M112.41,23.23v-8.82h-3.25v-1.93h8.61v1.93h-3.18v8.82h-2.18Z"/>
    <path class="cls-2" d="M121.38,23.38c-.76,0-1.43-.16-2.01-.48-.58-.32-1.03-.77-1.35-1.36-.32-.58-.48-1.27-.48-2.07s.15-1.46.44-2.08c.29-.62.72-1.11,1.28-1.47.56-.36,1.23-.54,2.02-.54s1.44.17,1.97.49c.53.33.93.79,1.21,1.38.27.59.41,1.27.41,2.03v.59h-5.17c0,.39.06.73.19,1.02s.32.51.56.67c.25.16.54.23.89.23.37,0,.7-.08.97-.24.28-.16.47-.42.59-.78h1.96c-.09.55-.31,1.01-.65,1.4s-.77.68-1.26.88c-.5.2-1.01.31-1.55.31ZM119.68,18.58h3.14c0-.31-.06-.59-.17-.85-.12-.26-.29-.46-.52-.61-.23-.15-.52-.22-.87-.22s-.62.08-.85.24c-.24.16-.42.37-.54.63s-.19.53-.18.81Z"/>
    <path class="cls-2" d="M129.77,23.38c-.71,0-1.35-.16-1.91-.48-.56-.32-1-.77-1.32-1.37-.32-.59-.48-1.3-.48-2.12s.15-1.49.46-2.1c.31-.61.74-1.08,1.3-1.42.56-.34,1.21-.51,1.95-.51.64,0,1.2.13,1.67.39.47.26.84.62,1.11,1.06.27.45.42.94.46,1.5h-1.81c-.03-.2-.11-.41-.22-.61s-.26-.37-.46-.5c-.2-.13-.45-.2-.74-.2-.51,0-.92.19-1.23.58-.31.39-.47.98-.47,1.77,0,.75.15,1.34.46,1.78.31.44.74.66,1.29.66.29,0,.54-.07.73-.22s.35-.32.46-.52c.11-.2.18-.39.21-.56h1.76c-.03.53-.19,1.01-.46,1.44-.27.43-.64.77-1.11,1.02s-1.02.38-1.65.38Z"/>
    <path class="cls-2" d="M134.51,23.23v-11.05h2.16v4.47c.12-.18.28-.36.47-.53.19-.18.42-.32.71-.44s.63-.18,1.03-.18c.49,0,.94.1,1.34.29.4.19.73.47.97.83.25.36.37.8.37,1.32v5.3h-2.18v-4.98c0-.35-.13-.61-.38-.8-.25-.19-.55-.28-.91-.28-.23,0-.46.04-.68.13-.22.08-.4.21-.53.38-.14.17-.2.38-.2.64v4.91h-2.17Z"/>
    <path class="cls-2" d="M143.33,23.23v-7.69h2.14v1.09c.12-.19.27-.37.46-.55.19-.18.43-.32.73-.43s.64-.17,1.04-.17c.47,0,.91.09,1.32.27.41.18.74.47.99.87s.38.91.38,1.54v5.07h-2.17v-4.8c0-.42-.12-.73-.37-.94-.25-.21-.55-.31-.91-.31-.24,0-.47.04-.69.13-.22.08-.4.21-.54.38s-.21.38-.21.62v4.92h-2.17Z"/>
    <path class="cls-2" d="M155.51,23.38c-.75,0-1.41-.16-1.97-.48-.56-.32-.99-.78-1.29-1.37-.31-.59-.46-1.29-.46-2.1s.15-1.51.46-2.12c.3-.6.74-1.08,1.29-1.41.56-.34,1.22-.51,1.98-.51s1.42.17,1.97.49c.56.33.98.8,1.29,1.4.3.61.45,1.32.45,2.14,0,.77-.15,1.46-.44,2.05-.3.59-.72,1.06-1.27,1.4-.55.34-1.22.51-2,.51ZM155.51,21.76c.38,0,.69-.11.92-.33.23-.22.4-.52.51-.88.1-.36.16-.76.16-1.19,0-.41-.05-.79-.14-1.15-.09-.36-.26-.65-.49-.88-.23-.22-.55-.33-.95-.33s-.69.11-.93.32c-.24.21-.41.5-.52.86-.11.36-.16.76-.16,1.19,0,.4.05.79.15,1.16.1.37.27.67.5.9.23.23.55.35.96.35Z"/>
    <path class="cls-2" d="M163.17,23.36c-.57,0-1.01-.07-1.35-.2s-.58-.31-.74-.53-.26-.47-.31-.74c-.04-.27-.07-.54-.07-.82v-8.9h2.13v8.63c0,.28.06.51.18.69.12.18.35.28.69.32l.36.02v1.34c-.15.05-.3.09-.45.13s-.31.06-.45.06Z"/>
    <path class="cls-2" d="M168.51,23.38c-.75,0-1.41-.16-1.97-.48-.56-.32-.99-.78-1.29-1.37-.31-.59-.46-1.29-.46-2.1s.15-1.51.46-2.12c.3-.6.74-1.08,1.29-1.41.56-.34,1.22-.51,1.98-.51s1.42.17,1.97.49c.56.33.98.8,1.29,1.4.3.61.45,1.32.45,2.14,0,.77-.15,1.46-.44,2.05-.3.59-.72,1.06-1.27,1.4-.55.34-1.22.51-2,.51ZM168.52,21.76c.38,0,.69-.11.92-.33.23-.22.4-.52.51-.88.1-.36.16-.76.16-1.19,0-.41-.05-.79-.14-1.15-.09-.36-.26-.65-.49-.88-.23-.22-.55-.33-.95-.33s-.69.11-.93.32c-.24.21-.41.5-.52.86-.11.36-.16.76-.16,1.19,0,.4.05.79.15,1.16.1.37.27.67.5.9.23.23.55.35.96.35Z"/>
    <path class="cls-2" d="M177.18,25.77c-1.37,0-2.41-.17-3.12-.52-.71-.35-1.07-.8-1.07-1.37,0-.26.07-.48.2-.66.14-.18.3-.32.48-.43s.36-.19.51-.25c.16-.06.25-.09.29-.12-.08-.04-.19-.11-.35-.2-.15-.09-.29-.21-.41-.36s-.19-.35-.19-.59c0-.27.13-.53.39-.76.26-.23.66-.39,1.19-.48-.51-.24-.89-.56-1.16-.97-.27-.41-.4-.82-.4-1.25,0-.51.16-.94.48-1.3.32-.36.75-.64,1.3-.83s1.17-.28,1.87-.28c.53,0,.96.06,1.3.17.34.11.65.26.94.43.11-.04.26-.1.45-.17.19-.07.39-.15.61-.24.22-.09.44-.17.64-.26.21-.09.39-.17.56-.23v1.68s-1.34.22-1.34.22c.05.13.09.28.12.43.03.15.04.28.04.38,0,.45-.13.86-.39,1.25-.26.39-.65.7-1.16.94-.52.24-1.16.36-1.93.36-.09,0-.21,0-.37,0s-.29-.01-.39-.02c-.29.01-.49.05-.6.11-.11.06-.17.13-.17.21,0,.12.11.2.33.23s.56.07,1.01.1c.16.01.39.02.67.04.28.01.59.03.93.06.94.06,1.65.3,2.11.7.46.4.7.9.7,1.51,0,.72-.34,1.31-1.02,1.78-.68.47-1.71.7-3.08.7ZM177.53,24.56c.6,0,1.03-.07,1.29-.22.26-.15.39-.36.39-.64,0-.23-.1-.42-.3-.57-.2-.15-.49-.23-.87-.26l-1.76-.12c-.23,0-.44.02-.61.1-.17.08-.31.19-.41.33-.1.14-.15.29-.15.45,0,.32.2.56.59.71.39.15,1,.22,1.82.22ZM177.12,19.15c.41,0,.74-.11.99-.34.25-.23.37-.53.37-.92s-.12-.72-.37-.97c-.25-.24-.58-.37-.99-.37s-.74.12-1,.37c-.25.24-.38.56-.38.97s.12.69.37.92c.25.23.58.34,1.01.34Z"/>
    <path class="cls-2" d="M184.32,25.68c-.53,0-1.01-.09-1.44-.26v-1.38l.77.03c.33.02.6,0,.8-.05.2-.05.36-.12.46-.2.1-.08.18-.17.23-.26.05-.09.08-.17.1-.22l.14-.42-2.99-7.37h2.15l1.84,5.01,1.86-5.01h2.13l-3.12,7.74c-.27.65-.55,1.16-.85,1.5-.3.35-.62.58-.97.71s-.72.19-1.11.19Z"/>
    <path class="cls-2" d="M195.02,23.23v-10.76h3.96c.78,0,1.48.13,2.1.41.62.27,1.11.67,1.47,1.19.36.53.54,1.17.54,1.93,0,.71-.16,1.32-.48,1.83s-.76.89-1.33,1.16c-.57.27-1.25.4-2.02.4h-2.05v3.84h-2.19ZM197.18,17.71h2.02c.55,0,.99-.17,1.34-.52s.52-.78.52-1.3-.18-.96-.55-1.28c-.37-.32-.81-.47-1.34-.47h-1.99v3.57Z"/>
    <path class="cls-2" d="M206.91,23.36c-.57,0-1.01-.07-1.35-.2s-.58-.31-.74-.53-.26-.47-.31-.74c-.04-.27-.07-.54-.07-.82v-8.9h2.13v8.63c0,.28.06.51.18.69.12.18.35.28.69.32l.36.02v1.34c-.15.05-.3.09-.45.13s-.31.06-.45.06Z"/>
    <path class="cls-2" d="M211.56,23.38c-.49,0-.93-.09-1.32-.28-.39-.18-.71-.45-.93-.8s-.34-.77-.34-1.28c0-.84.31-1.48.94-1.92.63-.44,1.62-.67,2.98-.68l.97-.02v-.46c0-.35-.1-.62-.31-.81-.21-.19-.53-.28-.96-.28-.31,0-.61.08-.9.22s-.48.39-.59.75h-1.81c.03-.55.19-1.01.49-1.37.29-.36.69-.63,1.19-.8.5-.18,1.07-.26,1.72-.26.78,0,1.41.1,1.89.29.48.2.82.48,1.04.84.22.37.32.8.32,1.3v5.41h-1.81l-.18-1.32c-.26.56-.59.94-.99,1.15-.39.21-.86.32-1.4.32ZM212.29,21.95c.19,0,.38-.04.57-.11.19-.07.35-.17.5-.29.15-.12.27-.26.35-.41.09-.15.13-.31.14-.48v-1.14h-.78c-.36.02-.7.06-1.01.14-.31.08-.56.21-.75.4s-.29.43-.29.74c0,.36.12.64.37.84.25.2.55.3.9.3Z"/>
    <path class="cls-2" d="M220.75,23.31c-.68,0-1.2-.09-1.57-.26-.37-.17-.62-.42-.77-.73-.14-.31-.21-.67-.21-1.09v-4.19h-1.25v-1.51h1.32l.55-2.32h1.55v2.31h1.71v1.52h-1.71v4.1c.01.19.04.33.09.42.05.09.12.15.22.18s.23.04.39.04h1.03v1.34c-.1.04-.26.09-.47.13-.21.04-.5.06-.88.06Z"/>
    <path class="cls-2" d="M224.05,23.23v-6.18h-1.42v-1.51h1.42v-1.11c0-.62.18-1.1.55-1.44.37-.34.88-.51,1.55-.51h1.76v1.44s-1,0-1,0c-.27,0-.46.07-.56.2-.1.14-.16.36-.16.67v.74h1.67v1.51h-1.62v6.18h-2.18Z"/>
    <path class="cls-2" d="M232.4,23.38c-.75,0-1.41-.16-1.97-.48-.56-.32-.99-.78-1.29-1.37-.31-.59-.46-1.29-.46-2.1s.15-1.51.46-2.12c.3-.6.74-1.08,1.29-1.41.56-.34,1.22-.51,1.98-.51s1.42.17,1.97.49c.56.33.98.8,1.29,1.4.3.61.45,1.32.45,2.14,0,.77-.15,1.46-.44,2.05-.3.59-.72,1.06-1.27,1.4-.55.34-1.22.51-2,.51ZM232.41,21.76c.38,0,.69-.11.92-.33.23-.22.4-.52.51-.88.1-.36.16-.76.16-1.19,0-.41-.05-.79-.14-1.15-.09-.36-.26-.65-.49-.88-.23-.22-.55-.33-.95-.33s-.69.11-.93.32c-.24.21-.41.5-.52.86-.11.36-.16.76-.16,1.19,0,.4.05.79.15,1.16.1.37.27.67.5.9.23.23.55.35.96.35Z"/>
    <path class="cls-2" d="M237.6,23.23v-7.69h2.09v1.82c.12-.39.3-.73.52-1.03.23-.29.5-.53.82-.69.32-.17.69-.25,1.09-.25.07,0,.14,0,.2.01.06,0,.11.02.14.03v2.07s-.1-.03-.16-.04-.12,0-.17-.01c-.43-.04-.79-.02-1.09.04-.3.06-.55.16-.74.3-.19.14-.33.32-.41.53-.08.21-.13.44-.13.7v4.21h-2.17Z"/>
    <path class="cls-2" d="M243.73,23.23v-7.69h2.13v1.09c.23-.34.55-.63.94-.87.39-.24.89-.36,1.49-.36.26,0,.53.05.8.14.27.09.53.23.77.41.24.18.44.41.58.68.25-.35.57-.65.98-.88.4-.24.85-.35,1.35-.35.29,0,.58.05.87.14.29.09.57.25.81.46s.45.5.6.85c.15.35.23.79.23,1.31v5.07h-2.17v-4.8c0-.31-.06-.55-.18-.74-.12-.19-.28-.32-.46-.4-.19-.08-.38-.12-.59-.12-.19,0-.39.04-.59.12-.2.08-.37.2-.51.37-.14.17-.21.39-.21.66v4.92h-2.16v-5c0-.23-.06-.43-.19-.59-.12-.16-.28-.28-.46-.36-.19-.08-.38-.12-.57-.12s-.4.04-.59.12c-.2.08-.36.21-.5.38s-.2.39-.2.64v4.92h-2.17Z"/>
    <path class="cls-2" d="M260.08,23.38c-.54,0-1.05-.09-1.54-.26-.49-.18-.91-.45-1.26-.83-.34-.38-.56-.87-.65-1.48h1.87c.07.27.19.49.36.65.17.16.37.27.58.34.22.07.43.1.62.1.42,0,.75-.07,1.01-.2.26-.13.38-.33.38-.61,0-.21-.08-.38-.23-.5-.15-.12-.4-.22-.75-.28l-1.35-.28c-.68-.14-1.23-.39-1.64-.73s-.62-.83-.63-1.47c0-.46.12-.88.36-1.24.25-.37.61-.66,1.09-.87.48-.21,1.07-.32,1.77-.32.95,0,1.7.21,2.27.62.57.42.86,1,.87,1.76h-1.81c-.05-.3-.2-.53-.44-.69-.24-.16-.54-.24-.91-.24s-.68.07-.92.2c-.24.13-.36.34-.36.61,0,.2.1.36.3.48.2.12.51.22.92.3l1.25.28c.43.1.78.25,1.05.43.27.18.48.38.63.59.15.21.25.43.31.64.06.22.09.41.09.58,0,.51-.14.95-.41,1.3-.27.36-.65.63-1.14.82s-1.05.28-1.7.28Z"/>
  </g>
  <g>
    <g>
      <path class="cls-2" d="M51.46,43.96c-.55,0-1.02-.13-1.41-.38-.39-.25-.69-.62-.9-1.08-.21-.47-.31-1.03-.31-1.69s.1-1.21.31-1.67c.21-.46.51-.81.9-1.06.39-.24.86-.37,1.42-.37.44,0,.83.09,1.16.27.34.18.61.42.82.72.21.3.33.64.37,1h-.96c-.04-.23-.12-.44-.24-.62s-.28-.33-.47-.44c-.2-.11-.43-.16-.7-.16-.34,0-.64.08-.88.24-.24.16-.42.42-.55.76-.12.34-.19.79-.19,1.33,0,.82.14,1.42.42,1.8.28.38.68.57,1.2.57.27,0,.5-.06.7-.17s.35-.27.47-.47c.12-.19.2-.41.24-.64h.96c-.03.27-.1.52-.21.77-.11.25-.25.46-.44.66-.19.19-.42.34-.7.46-.28.11-.61.17-.99.17Z"/>
      <path class="cls-2" d="M54.86,43.88v-4.35h.86v.89c.07-.21.17-.39.3-.54s.28-.25.46-.33.36-.11.55-.11c.06,0,.11,0,.17.01.05,0,.1.02.13.04v.87s-.08-.03-.14-.03c-.06,0-.11,0-.15-.01-.19-.01-.36,0-.52.03-.16.03-.29.09-.41.17-.11.08-.2.18-.26.31-.06.13-.09.27-.09.45v2.62h-.9Z"/>
      <path class="cls-2" d="M60.08,43.96c-.41,0-.77-.09-1.09-.27-.31-.18-.56-.43-.73-.76-.17-.33-.26-.72-.26-1.18s.08-.85.24-1.2c.16-.35.39-.62.69-.81s.67-.29,1.09-.29.77.09,1.06.27c.29.18.51.43.66.75.15.32.22.71.22,1.15v.3h-3.06c0,.26.04.49.13.7s.22.37.39.49.39.18.65.18.49-.06.67-.18c.19-.12.31-.29.37-.53h.84c-.05.3-.17.55-.36.76-.19.21-.41.36-.68.47-.26.11-.54.16-.82.16ZM58.89,41.33h2.2c0-.23-.04-.43-.12-.62-.08-.19-.2-.33-.36-.44s-.36-.16-.61-.16-.46.06-.62.18c-.17.12-.29.27-.37.46-.08.19-.12.38-.12.58Z"/>
      <path class="cls-2" d="M64.22,43.96c-.28,0-.53-.05-.75-.15s-.39-.25-.51-.44-.19-.42-.19-.69c0-.48.17-.84.51-1.08.34-.24.89-.36,1.64-.38l.71-.02v-.32c0-.25-.07-.45-.22-.59-.15-.14-.38-.21-.69-.21-.23,0-.44.05-.62.16s-.3.28-.36.53h-.78c.02-.29.1-.53.25-.73.15-.2.36-.35.62-.45.26-.1.57-.15.93-.15.4,0,.72.05.98.16.25.11.44.27.57.47.12.21.19.46.19.76v3.04h-.77l-.07-.8c-.16.33-.37.56-.62.69s-.53.19-.84.19ZM64.5,43.33c.14,0,.27-.02.41-.07.13-.05.26-.12.37-.2.11-.08.2-.18.26-.29.07-.11.1-.22.1-.33v-.71h-.59c-.3.01-.55.04-.76.1-.21.06-.37.15-.48.27s-.17.29-.17.49c0,.23.08.41.24.54.16.13.37.2.62.2Z"/>
      <path class="cls-2" d="M69.33,43.91c-.32,0-.57-.04-.75-.13-.18-.09-.3-.21-.37-.38-.07-.16-.11-.36-.11-.59v-2.63h-.71v-.65h.74l.22-1.28h.66v1.27h.98v.65h-.98v2.59c0,.14.02.25.05.31.03.07.08.11.15.13.07.02.17.03.29.03h.5v.58c-.05.02-.14.04-.25.06-.11.02-.25.03-.43.03Z"/>
      <path class="cls-2" d="M70.99,38.69v-.89h.9v.89h-.9ZM71.02,43.88v-4.35h.87v4.35h-.87Z"/>
      <path class="cls-2" d="M73.12,43.88v-4.35h.88v.63c.07-.12.16-.23.28-.33.12-.1.27-.19.44-.25.18-.06.38-.1.61-.1.27,0,.52.05.75.16.23.11.42.28.56.5.14.23.21.52.21.88v2.85h-.9v-2.75c0-.31-.08-.54-.25-.69-.17-.15-.38-.23-.64-.23-.18,0-.34.03-.5.09-.16.06-.29.15-.39.27-.1.12-.15.27-.15.45v2.87h-.9Z"/>
      <path class="cls-2" d="M79.9,45.31c-.71,0-1.25-.1-1.64-.3-.39-.2-.58-.47-.58-.83,0-.15.04-.29.11-.39.07-.11.16-.2.27-.27.1-.07.2-.13.28-.17.09-.04.14-.07.17-.09-.05-.03-.11-.06-.18-.11-.07-.04-.14-.1-.2-.18s-.09-.17-.09-.29c0-.14.07-.27.2-.39s.33-.21.6-.26c-.26-.13-.47-.31-.61-.53-.14-.22-.22-.45-.22-.7,0-.28.08-.53.24-.73.16-.21.38-.36.67-.47s.63-.16,1.02-.16c.29,0,.53.03.72.1s.37.15.53.27c.05-.02.13-.05.23-.09.1-.04.21-.08.33-.13.12-.05.23-.09.34-.14.11-.04.2-.08.26-.11v.78s-.76.14-.76.14c.04.08.07.18.09.28.02.1.04.19.04.28,0,.25-.07.48-.21.7-.14.21-.34.38-.62.51-.27.13-.62.19-1.03.19-.04,0-.09,0-.15,0-.06,0-.11,0-.16-.01-.26,0-.44.04-.54.09-.1.05-.15.11-.15.17,0,.08.06.13.19.16.13.03.33.05.62.07.1,0,.24.02.4.02.16,0,.34.02.54.03.48.03.84.15,1.09.36s.38.49.38.84c0,.4-.18.72-.54.98-.36.25-.91.38-1.65.38ZM80.05,44.76c.38,0,.67-.06.87-.17s.29-.28.29-.49c0-.16-.06-.3-.19-.4-.12-.1-.31-.16-.57-.18l-1.16-.07c-.11,0-.23.02-.34.07-.11.06-.21.13-.28.23-.07.1-.11.21-.11.33,0,.22.12.39.36.5.24.12.62.17,1.12.17ZM79.89,41.67c.29,0,.53-.07.7-.21.18-.14.27-.34.27-.61s-.09-.49-.27-.64c-.18-.15-.41-.23-.7-.23s-.53.08-.71.23c-.18.15-.27.36-.27.63s.09.46.26.61.41.22.73.22Z"/>
      <path class="cls-2" d="M86.2,43.88l-1.36-4.35h.82l.95,3.17h.06l.93-3.17h.67l.96,3.16h.06l.92-3.16h.83l-1.35,4.35h-.82l-.94-3.05-.9,3.05h-.81Z"/>
      <path class="cls-2" d="M93.61,43.96c-.41,0-.76-.09-1.06-.26-.3-.18-.54-.43-.71-.76-.17-.33-.25-.74-.25-1.21s.08-.86.24-1.2c.16-.34.39-.61.69-.8.3-.19.67-.28,1.1-.28s.76.09,1.06.27c.3.18.53.44.7.78.17.34.25.75.25,1.23,0,.44-.08.83-.23,1.17-.15.34-.38.6-.68.79-.3.19-.67.28-1.1.28ZM93.62,43.27c.25,0,.46-.06.62-.2.17-.13.29-.31.37-.55.08-.24.13-.51.13-.82,0-.29-.04-.55-.11-.79-.07-.24-.19-.42-.36-.57-.16-.14-.38-.21-.65-.21-.25,0-.46.06-.63.19-.17.13-.3.31-.38.54-.08.23-.13.51-.13.83,0,.28.04.54.11.78s.2.43.36.57c.17.14.39.21.66.21Z"/>
      <path class="cls-2" d="M96.61,43.88v-4.35h.86v.89c.07-.21.17-.39.3-.54s.28-.25.46-.33.36-.11.55-.11c.06,0,.11,0,.17.01.05,0,.1.02.13.04v.87s-.08-.03-.14-.03c-.06,0-.11,0-.15-.01-.19-.01-.36,0-.52.03-.16.03-.29.09-.41.17-.11.08-.2.18-.26.31-.06.13-.09.27-.09.45v2.62h-.9Z"/>
      <path class="cls-2" d="M101.12,43.93c-.26,0-.46-.03-.62-.1-.16-.07-.27-.16-.35-.27-.08-.11-.14-.24-.16-.39-.03-.14-.04-.29-.04-.45v-5.1h.89v5.01c0,.2.04.36.12.46.08.11.2.17.37.18h.23v.58c-.07.02-.14.04-.22.05-.07.01-.14.02-.21.02Z"/>
      <path class="cls-2" d="M104.15,43.96c-.57,0-1.02-.2-1.35-.59-.33-.39-.49-.96-.49-1.69,0-.45.07-.84.2-1.18.13-.33.33-.59.59-.78.26-.18.59-.28.98-.28.19,0,.37.02.52.07.15.05.29.11.4.19.12.08.21.16.29.24.08.09.14.17.18.24v-2.56h.91v6.25h-.68l-.1-.89c-.03.1-.08.2-.14.31-.06.11-.15.22-.26.32-.11.1-.25.18-.42.25s-.38.1-.62.1ZM104.32,43.28c.4,0,.7-.13.87-.38s.27-.67.27-1.25c0-.33-.04-.61-.12-.83-.08-.23-.2-.4-.36-.52-.16-.12-.38-.17-.65-.17-.33,0-.61.12-.82.36-.21.24-.32.63-.32,1.16s.1.93.29,1.21c.19.28.47.42.83.42Z"/>
      <path class="cls-2" d="M107.5,42.06v-.69h2.18s0,.68,0,.68h-2.18Z"/>
      <path class="cls-2" d="M112.59,43.96c-.39,0-.74-.09-1.05-.26-.31-.17-.55-.43-.72-.76-.17-.33-.26-.74-.26-1.22,0-.45.08-.85.24-1.19s.39-.61.7-.8.67-.29,1.09-.29c.33,0,.62.06.87.19.25.13.46.3.62.53.16.23.25.49.29.79h-.78c-.02-.14-.08-.28-.16-.4-.08-.12-.19-.22-.33-.3-.14-.07-.3-.11-.49-.11-.35,0-.63.13-.85.38-.22.26-.33.65-.33,1.17,0,.48.1.87.31,1.15s.5.43.89.43c.19,0,.35-.04.49-.12.14-.08.25-.18.33-.3.08-.12.14-.25.16-.38h.77c-.03.29-.13.55-.29.77-.16.22-.36.39-.62.52-.25.12-.54.19-.86.19Z"/>
      <path class="cls-2" d="M116.56,43.93c-.26,0-.46-.03-.62-.1-.16-.07-.27-.16-.35-.27-.08-.11-.14-.24-.16-.39-.03-.14-.04-.29-.04-.45v-5.1h.89v5.01c0,.2.04.36.12.46.08.11.2.17.37.18h.23v.58c-.07.02-.14.04-.22.05-.07.01-.14.02-.21.02Z"/>
      <path class="cls-2" d="M119.23,43.96c-.28,0-.53-.05-.75-.15s-.39-.25-.51-.44-.19-.42-.19-.69c0-.48.17-.84.51-1.08.34-.24.89-.36,1.64-.38l.71-.02v-.32c0-.25-.07-.45-.22-.59-.15-.14-.38-.21-.69-.21-.23,0-.44.05-.62.16s-.3.28-.36.53h-.78c.02-.29.1-.53.25-.73.15-.2.36-.35.62-.45.26-.1.57-.15.93-.15.4,0,.72.05.98.16.25.11.44.27.57.47.12.21.19.46.19.76v3.04h-.77l-.07-.8c-.16.33-.37.56-.62.69s-.53.19-.84.19ZM119.51,43.33c.14,0,.27-.02.41-.07.13-.05.26-.12.37-.2.11-.08.2-.18.26-.29.07-.11.1-.22.1-.33v-.71h-.59c-.3.01-.55.04-.76.1-.21.06-.37.15-.48.27s-.17.29-.17.49c0,.23.08.41.24.54.16.13.37.2.62.2Z"/>
      <path class="cls-2" d="M124.28,43.96c-.3,0-.59-.05-.85-.14-.27-.09-.49-.25-.66-.45-.18-.21-.29-.47-.33-.79h.8c.04.17.11.3.21.41.1.11.23.19.37.24.14.05.3.08.46.08.27,0,.5-.05.67-.15.17-.1.25-.25.25-.46,0-.15-.05-.27-.14-.36-.09-.09-.23-.16-.43-.2l-.87-.21c-.36-.08-.65-.22-.86-.4s-.33-.44-.33-.77c0-.25.06-.48.19-.68.13-.2.32-.35.57-.47.25-.11.57-.17.94-.17.49,0,.89.11,1.18.33s.45.54.46.95h-.78c-.03-.2-.12-.36-.27-.47s-.35-.17-.6-.17-.47.05-.63.15c-.17.1-.25.26-.25.47,0,.14.06.26.18.34.12.08.3.15.54.2l.82.21c.21.06.39.13.53.22.14.09.25.19.32.3.08.11.13.22.17.34.03.12.05.23.05.33,0,.27-.07.51-.21.7-.14.19-.34.34-.59.45-.26.11-.56.16-.92.16Z"/>
      <path class="cls-2" d="M128.58,43.96c-.3,0-.59-.05-.85-.14-.27-.09-.49-.25-.66-.45-.18-.21-.29-.47-.33-.79h.8c.04.17.11.3.21.41.1.11.23.19.37.24.14.05.3.08.46.08.27,0,.5-.05.67-.15.17-.1.25-.25.25-.46,0-.15-.05-.27-.14-.36-.09-.09-.23-.16-.43-.2l-.87-.21c-.36-.08-.65-.22-.86-.4s-.33-.44-.33-.77c0-.25.06-.48.19-.68.13-.2.32-.35.57-.47.25-.11.57-.17.94-.17.49,0,.89.11,1.18.33s.45.54.46.95h-.78c-.03-.2-.12-.36-.27-.47s-.35-.17-.6-.17-.47.05-.63.15c-.17.1-.25.26-.25.47,0,.14.06.26.18.34.12.08.3.15.54.2l.82.21c.21.06.39.13.53.22.14.09.25.19.32.3.08.11.13.22.17.34.03.12.05.23.05.33,0,.27-.07.51-.21.7-.14.19-.34.34-.59.45-.26.11-.56.16-.92.16Z"/>
      <path class="cls-2" d="M134.87,43.96c-.57,0-1.02-.2-1.35-.59-.33-.39-.49-.96-.49-1.69,0-.45.07-.84.2-1.18.13-.33.33-.59.59-.78.26-.18.59-.28.98-.28.19,0,.37.02.52.07.15.05.29.11.4.19.12.08.21.16.29.24.08.09.14.17.18.24v-2.56h.91v6.25h-.68l-.1-.89c-.03.1-.08.2-.14.31-.06.11-.15.22-.26.32-.11.1-.25.18-.42.25s-.38.1-.62.1ZM135.04,43.28c.4,0,.7-.13.87-.38s.27-.67.27-1.25c0-.33-.04-.61-.12-.83-.08-.23-.2-.4-.36-.52-.16-.12-.38-.17-.65-.17-.33,0-.61.12-.82.36-.21.24-.32.63-.32,1.16s.1.93.29,1.21c.19.28.47.42.83.42Z"/>
      <path class="cls-2" d="M138.31,38.69v-.89h.9v.89h-.9ZM138.33,43.88v-4.35h.87v4.35h-.87Z"/>
      <path class="cls-2" d="M142.32,45.31c-.71,0-1.25-.1-1.64-.3-.39-.2-.58-.47-.58-.83,0-.15.04-.29.11-.39.07-.11.16-.2.27-.27.1-.07.2-.13.28-.17.09-.04.14-.07.17-.09-.05-.03-.11-.06-.18-.11-.07-.04-.14-.1-.2-.18s-.09-.17-.09-.29c0-.14.07-.27.2-.39s.33-.21.6-.26c-.26-.13-.47-.31-.61-.53-.14-.22-.22-.45-.22-.7,0-.28.08-.53.24-.73.16-.21.38-.36.67-.47s.63-.16,1.02-.16c.29,0,.53.03.72.1s.37.15.53.27c.05-.02.13-.05.23-.09.1-.04.21-.08.33-.13.12-.05.23-.09.34-.14.11-.04.2-.08.26-.11v.78s-.76.14-.76.14c.04.08.07.18.09.28.02.1.04.19.04.28,0,.25-.07.48-.21.7-.14.21-.34.38-.62.51-.27.13-.62.19-1.03.19-.04,0-.09,0-.15,0-.06,0-.11,0-.16-.01-.26,0-.44.04-.54.09-.1.05-.15.11-.15.17,0,.08.06.13.19.16.13.03.33.05.62.07.1,0,.24.02.4.02.16,0,.34.02.54.03.48.03.84.15,1.09.36s.38.49.38.84c0,.4-.18.72-.54.98-.36.25-.91.38-1.65.38ZM142.48,44.76c.38,0,.67-.06.87-.17s.29-.28.29-.49c0-.16-.06-.3-.19-.4-.12-.1-.31-.16-.57-.18l-1.16-.07c-.11,0-.23.02-.34.07-.11.06-.21.13-.28.23-.07.1-.11.21-.11.33,0,.22.12.39.36.5.24.12.62.17,1.12.17ZM142.32,41.67c.29,0,.53-.07.7-.21.18-.14.27-.34.27-.61s-.09-.49-.27-.64c-.18-.15-.41-.23-.7-.23s-.53.08-.71.23c-.18.15-.27.36-.27.63s.09.46.26.61.41.22.73.22Z"/>
      <path class="cls-2" d="M145.68,38.69v-.89h.9v.89h-.9ZM145.71,43.88v-4.35h.87v4.35h-.87Z"/>
      <path class="cls-2" d="M149.48,43.91c-.32,0-.57-.04-.75-.13-.18-.09-.3-.21-.37-.38-.07-.16-.11-.36-.11-.59v-2.63h-.71v-.65h.74l.22-1.28h.66v1.27h.98v.65h-.98v2.59c0,.14.02.25.05.31.03.07.08.11.15.13.07.02.17.03.29.03h.5v.58c-.05.02-.14.04-.25.06-.11.02-.25.03-.43.03Z"/>
      <path class="cls-2" d="M152.38,43.96c-.28,0-.53-.05-.75-.15s-.39-.25-.51-.44-.19-.42-.19-.69c0-.48.17-.84.51-1.08.34-.24.89-.36,1.64-.38l.71-.02v-.32c0-.25-.07-.45-.22-.59-.15-.14-.38-.21-.69-.21-.23,0-.44.05-.62.16s-.3.28-.36.53h-.78c.02-.29.1-.53.25-.73.15-.2.36-.35.62-.45.26-.1.57-.15.93-.15.4,0,.72.05.98.16.25.11.44.27.57.47.12.21.19.46.19.76v3.04h-.77l-.07-.8c-.16.33-.37.56-.62.69s-.53.19-.84.19ZM152.66,43.33c.14,0,.27-.02.41-.07.13-.05.26-.12.37-.2.11-.08.2-.18.26-.29.07-.11.1-.22.1-.33v-.71h-.59c-.3.01-.55.04-.76.1-.21.06-.37.15-.48.27s-.17.29-.17.49c0,.23.08.41.24.54.16.13.37.2.62.2Z"/>
      <path class="cls-2" d="M157,43.93c-.26,0-.46-.03-.62-.1-.16-.07-.27-.16-.35-.27-.08-.11-.14-.24-.16-.39-.03-.14-.04-.29-.04-.45v-5.1h.89v5.01c0,.2.04.36.12.46.08.11.2.17.37.18h.23v.58c-.07.02-.14.04-.22.05-.07.01-.14.02-.21.02Z"/>
      <path class="cls-2" d="M162.31,43.96c-.41,0-.77-.09-1.09-.27-.31-.18-.56-.43-.73-.76-.17-.33-.26-.72-.26-1.18s.08-.85.24-1.2c.16-.35.39-.62.69-.81s.67-.29,1.09-.29.77.09,1.06.27c.29.18.51.43.66.75.15.32.22.71.22,1.15v.3h-3.06c0,.26.04.49.13.7s.22.37.39.49.39.18.65.18.49-.06.67-.18c.19-.12.31-.29.37-.53h.84c-.05.3-.17.55-.36.76-.19.21-.41.36-.68.47-.26.11-.54.16-.82.16ZM161.13,41.33h2.2c0-.23-.04-.43-.12-.62-.08-.19-.2-.33-.36-.44s-.36-.16-.61-.16-.46.06-.62.18c-.17.12-.29.27-.37.46-.08.19-.12.38-.12.58Z"/>
      <path class="cls-2" d="M164.84,43.88l1.67-2.26-1.53-2.09h.97l1.07,1.44,1.06-1.44h.97l-1.55,2.09,1.68,2.26h-.97l-1.2-1.62-1.2,1.62h-.97Z"/>
      <path class="cls-2" d="M170.02,45.23v-5.7h.9v.72c.06-.1.13-.19.21-.28.08-.09.18-.18.3-.26s.25-.14.4-.19.32-.07.5-.07c.34,0,.64.08.91.24s.47.4.61.73.22.74.22,1.24-.07.93-.22,1.27c-.15.34-.36.6-.63.78-.27.17-.59.26-.97.26-.18,0-.34-.03-.48-.08-.14-.05-.27-.12-.38-.2s-.2-.17-.28-.27c-.08-.1-.14-.19-.19-.29v2.1h-.9ZM172.07,43.27c.33,0,.61-.13.82-.39.21-.26.32-.66.32-1.21,0-.48-.1-.85-.3-1.13s-.48-.41-.85-.41-.66.14-.86.43-.29.66-.29,1.11c0,.29.04.56.13.8s.21.44.38.58c.17.15.38.22.63.22Z"/>
      <path class="cls-2" d="M176.93,43.96c-.41,0-.77-.09-1.09-.27-.31-.18-.56-.43-.73-.76-.17-.33-.26-.72-.26-1.18s.08-.85.24-1.2c.16-.35.39-.62.69-.81s.67-.29,1.09-.29.77.09,1.06.27c.29.18.51.43.66.75.15.32.22.71.22,1.15v.3h-3.06c0,.26.04.49.13.7s.22.37.39.49.39.18.65.18.49-.06.67-.18c.19-.12.31-.29.37-.53h.84c-.05.3-.17.55-.36.76-.19.21-.41.36-.68.47-.26.11-.54.16-.82.16ZM175.75,41.33h2.2c0-.23-.04-.43-.12-.62-.08-.19-.2-.33-.36-.44s-.36-.16-.61-.16-.46.06-.62.18c-.17.12-.29.27-.37.46-.08.19-.12.38-.12.58Z"/>
      <path class="cls-2" d="M179.84,43.88v-4.35h.86v.89c.07-.21.17-.39.3-.54s.28-.25.46-.33.36-.11.55-.11c.06,0,.11,0,.17.01.05,0,.1.02.13.04v.87s-.08-.03-.14-.03c-.06,0-.11,0-.15-.01-.19-.01-.36,0-.52.03-.16.03-.29.09-.41.17-.11.08-.2.18-.26.31-.06.13-.09.27-.09.45v2.62h-.9Z"/>
      <path class="cls-2" d="M183.17,38.69v-.89h.9v.89h-.9ZM183.19,43.88v-4.35h.87v4.35h-.87Z"/>
      <path class="cls-2" d="M187.18,43.96c-.41,0-.77-.09-1.09-.27-.31-.18-.56-.43-.73-.76-.17-.33-.26-.72-.26-1.18s.08-.85.24-1.2c.16-.35.39-.62.69-.81s.67-.29,1.09-.29.77.09,1.06.27c.29.18.51.43.66.75.15.32.22.71.22,1.15v.3h-3.06c0,.26.04.49.13.7s.22.37.39.49.39.18.65.18.49-.06.67-.18c.19-.12.31-.29.37-.53h.84c-.05.3-.17.55-.36.76-.19.21-.41.36-.68.47-.26.11-.54.16-.82.16ZM186,41.33h2.2c0-.23-.04-.43-.12-.62-.08-.19-.2-.33-.36-.44s-.36-.16-.61-.16-.46.06-.62.18c-.17.12-.29.27-.37.46-.08.19-.12.38-.12.58Z"/>
      <path class="cls-2" d="M190.09,43.88v-4.35h.88v.63c.07-.12.16-.23.28-.33.12-.1.27-.19.44-.25.18-.06.38-.1.61-.1.27,0,.52.05.75.16.23.11.42.28.56.5.14.23.21.52.21.88v2.85h-.9v-2.75c0-.31-.08-.54-.25-.69-.17-.15-.38-.23-.64-.23-.18,0-.34.03-.5.09-.16.06-.29.15-.39.27-.1.12-.15.27-.15.45v2.87h-.9Z"/>
      <path class="cls-2" d="M196.76,43.96c-.39,0-.74-.09-1.05-.26-.31-.17-.55-.43-.72-.76-.17-.33-.26-.74-.26-1.22,0-.45.08-.85.24-1.19s.39-.61.7-.8.67-.29,1.09-.29c.33,0,.62.06.87.19.25.13.46.3.62.53.16.23.25.49.29.79h-.78c-.02-.14-.08-.28-.16-.4-.08-.12-.19-.22-.33-.3-.14-.07-.3-.11-.49-.11-.35,0-.63.13-.85.38-.22.26-.33.65-.33,1.17,0,.48.1.87.31,1.15s.5.43.89.43c.19,0,.35-.04.49-.12.14-.08.25-.18.33-.3.08-.12.14-.25.16-.38h.77c-.03.29-.13.55-.29.77-.16.22-.36.39-.62.52-.25.12-.54.19-.86.19Z"/>
      <path class="cls-2" d="M201.44,43.96c-.41,0-.77-.09-1.09-.27-.31-.18-.56-.43-.73-.76-.17-.33-.26-.72-.26-1.18s.08-.85.24-1.2c.16-.35.39-.62.69-.81s.67-.29,1.09-.29.77.09,1.06.27c.29.18.51.43.66.75.15.32.22.71.22,1.15v.3h-3.06c0,.26.04.49.13.7s.22.37.39.49.39.18.65.18.49-.06.67-.18c.19-.12.31-.29.37-.53h.84c-.05.3-.17.55-.36.76-.19.21-.41.36-.68.47-.26.11-.54.16-.82.16ZM200.26,41.33h2.2c0-.23-.04-.43-.12-.62-.08-.19-.2-.33-.36-.44s-.36-.16-.61-.16-.46.06-.62.18c-.17.12-.29.27-.37.46-.08.19-.12.38-.12.58Z"/>
      <path class="cls-2" d="M205.96,43.96c-.3,0-.59-.05-.85-.14-.27-.09-.49-.25-.66-.45-.18-.21-.29-.47-.33-.79h.8c.04.17.11.3.21.41.1.11.23.19.37.24.14.05.3.08.46.08.27,0,.5-.05.67-.15.17-.1.25-.25.25-.46,0-.15-.05-.27-.14-.36-.09-.09-.23-.16-.43-.2l-.87-.21c-.36-.08-.65-.22-.86-.4s-.33-.44-.33-.77c0-.25.06-.48.19-.68.13-.2.32-.35.57-.47.25-.11.57-.17.94-.17.49,0,.89.11,1.18.33s.45.54.46.95h-.78c-.03-.2-.12-.36-.27-.47s-.35-.17-.6-.17-.47.05-.63.15c-.17.1-.25.26-.25.47,0,.14.06.26.18.34.12.08.3.15.54.2l.82.21c.21.06.39.13.53.22.14.09.25.19.32.3.08.11.13.22.17.34.03.12.05.23.05.33,0,.27-.07.51-.21.7-.14.19-.34.34-.59.45-.26.11-.56.16-.92.16Z"/>
      <path class="cls-2" d="M208.41,44.96l.48-1.07-.38-.03v-1h1.04v.87l-.75,1.22h-.39Z"/>
      <path class="cls-2" d="M212.75,45.23v-5.7h.9v.72c.06-.1.13-.19.21-.28.08-.09.18-.18.3-.26s.25-.14.4-.19.32-.07.5-.07c.34,0,.64.08.91.24s.47.4.61.73.22.74.22,1.24-.07.93-.22,1.27c-.15.34-.36.6-.63.78-.27.17-.59.26-.97.26-.18,0-.34-.03-.48-.08-.14-.05-.27-.12-.38-.2s-.2-.17-.28-.27c-.08-.1-.14-.19-.19-.29v2.1h-.9ZM214.8,43.27c.33,0,.61-.13.82-.39.21-.26.32-.66.32-1.21,0-.48-.1-.85-.3-1.13s-.48-.41-.85-.41-.66.14-.86.43-.29.66-.29,1.11c0,.29.04.56.13.8s.21.44.38.58c.17.15.38.22.63.22Z"/>
      <path class="cls-2" d="M218.96,43.93c-.26,0-.46-.03-.62-.1-.16-.07-.27-.16-.35-.27-.08-.11-.14-.24-.16-.39-.03-.14-.04-.29-.04-.45v-5.1h.89v5.01c0,.2.04.36.12.46.08.11.2.17.37.18h.23v.58c-.07.02-.14.04-.22.05-.07.01-.14.02-.21.02Z"/>
      <path class="cls-2" d="M221.63,43.96c-.28,0-.53-.05-.75-.15s-.39-.25-.51-.44-.19-.42-.19-.69c0-.48.17-.84.51-1.08.34-.24.89-.36,1.64-.38l.71-.02v-.32c0-.25-.07-.45-.22-.59-.15-.14-.38-.21-.69-.21-.23,0-.44.05-.62.16s-.3.28-.36.53h-.78c.02-.29.1-.53.25-.73.15-.2.36-.35.62-.45.26-.1.57-.15.93-.15.4,0,.72.05.98.16.25.11.44.27.57.47.12.21.19.46.19.76v3.04h-.77l-.07-.8c-.16.33-.37.56-.62.69s-.53.19-.84.19ZM221.92,43.33c.14,0,.27-.02.41-.07.13-.05.26-.12.37-.2.11-.08.2-.18.26-.29.07-.11.1-.22.1-.33v-.71h-.59c-.3.01-.55.04-.76.1-.21.06-.37.15-.48.27s-.17.29-.17.49c0,.23.08.41.24.54.16.13.37.2.62.2Z"/>
      <path class="cls-2" d="M226.74,43.91c-.32,0-.57-.04-.75-.13-.18-.09-.3-.21-.37-.38-.07-.16-.11-.36-.11-.59v-2.63h-.71v-.65h.74l.22-1.28h.66v1.27h.98v.65h-.98v2.59c0,.14.02.25.05.31.03.07.08.11.15.13.07.02.17.03.29.03h.5v.58c-.05.02-.14.04-.25.06-.11.02-.25.03-.43.03Z"/>
      <path class="cls-2" d="M228.96,43.88v-3.7h-.89v-.65h.89v-.66c0-.35.09-.61.28-.8s.45-.28.81-.28h.87v.63s-.63,0-.63,0c-.17,0-.29.04-.35.13-.06.09-.09.23-.09.42v.55h1.03v.65h-1.02v3.7h-.9Z"/>
      <path class="cls-2" d="M233.52,43.96c-.41,0-.76-.09-1.06-.26-.3-.18-.54-.43-.71-.76-.17-.33-.25-.74-.25-1.21s.08-.86.24-1.2c.16-.34.39-.61.69-.8.3-.19.67-.28,1.1-.28s.76.09,1.06.27c.3.18.53.44.7.78.17.34.25.75.25,1.23,0,.44-.08.83-.23,1.17-.15.34-.38.6-.68.79-.3.19-.67.28-1.1.28ZM233.52,43.27c.25,0,.46-.06.62-.2.17-.13.29-.31.37-.55.08-.24.13-.51.13-.82,0-.29-.04-.55-.11-.79-.07-.24-.19-.42-.36-.57-.16-.14-.38-.21-.65-.21-.25,0-.46.06-.63.19-.17.13-.3.31-.38.54-.08.23-.13.51-.13.83,0,.28.04.54.11.78s.2.43.36.57c.17.14.39.21.66.21Z"/>
      <path class="cls-2" d="M236.51,43.88v-4.35h.86v.89c.07-.21.17-.39.3-.54s.28-.25.46-.33.36-.11.55-.11c.06,0,.11,0,.17.01.05,0,.1.02.13.04v.87s-.08-.03-.14-.03c-.06,0-.11,0-.15-.01-.19-.01-.36,0-.52.03-.16.03-.29.09-.41.17-.11.08-.2.18-.26.31-.06.13-.09.27-.09.45v2.62h-.9Z"/>
      <path class="cls-2" d="M239.85,43.88v-4.35h.87v.63c.12-.19.29-.36.5-.5.21-.14.49-.21.82-.21.16,0,.32.03.48.08.16.05.31.13.45.24.14.11.24.23.32.39.14-.21.32-.38.55-.51s.49-.2.77-.2c.15,0,.31.02.48.07.17.05.32.13.46.25s.26.28.34.48c.09.21.13.46.13.78v2.85h-.9v-2.75c0-.24-.04-.42-.12-.56-.08-.13-.18-.23-.31-.28-.13-.05-.26-.08-.41-.08-.13,0-.26.02-.4.08s-.26.13-.36.25c-.1.12-.15.28-.15.48v2.87h-.9v-2.95c0-.16-.04-.29-.13-.4-.09-.11-.19-.19-.32-.25s-.25-.08-.38-.08c-.14,0-.28.03-.42.08-.14.06-.26.14-.35.26-.09.12-.14.27-.14.46v2.87h-.9Z"/>
      <path class="cls-2" d="M248.81,43.96c-.3,0-.59-.05-.85-.14-.27-.09-.49-.25-.66-.45-.18-.21-.29-.47-.33-.79h.8c.04.17.11.3.21.41.1.11.23.19.37.24.14.05.3.08.46.08.27,0,.5-.05.67-.15.17-.1.25-.25.25-.46,0-.15-.05-.27-.14-.36-.09-.09-.23-.16-.43-.2l-.87-.21c-.36-.08-.65-.22-.86-.4s-.33-.44-.33-.77c0-.25.06-.48.19-.68.13-.2.32-.35.57-.47.25-.11.57-.17.94-.17.49,0,.89.11,1.18.33s.45.54.46.95h-.78c-.03-.2-.12-.36-.27-.47s-.35-.17-.6-.17-.47.05-.63.15c-.17.1-.25.26-.25.47,0,.14.06.26.18.34.12.08.3.15.54.2l.82.21c.21.06.39.13.53.22.14.09.25.19.32.3.08.11.13.22.17.34.03.12.05.23.05.33,0,.27-.07.51-.21.7-.14.19-.34.34-.59.45-.26.11-.56.16-.92.16Z"/>
      <path class="cls-2" d="M254.73,43.96c-.28,0-.53-.05-.75-.15s-.39-.25-.51-.44-.19-.42-.19-.69c0-.48.17-.84.51-1.08.34-.24.89-.36,1.64-.38l.71-.02v-.32c0-.25-.07-.45-.22-.59-.15-.14-.38-.21-.69-.21-.23,0-.44.05-.62.16s-.3.28-.36.53h-.78c.02-.29.1-.53.25-.73.15-.2.36-.35.62-.45.26-.1.57-.15.93-.15.4,0,.72.05.98.16.25.11.44.27.57.47.12.21.19.46.19.76v3.04h-.77l-.07-.8c-.16.33-.37.56-.62.69s-.53.19-.84.19ZM255.01,43.33c.14,0,.27-.02.41-.07.13-.05.26-.12.37-.2.11-.08.2-.18.26-.29.07-.11.1-.22.1-.33v-.71h-.59c-.3.01-.55.04-.76.1-.21.06-.37.15-.48.27s-.17.29-.17.49c0,.23.08.41.24.54.16.13.37.2.62.2Z"/>
      <path class="cls-2" d="M258.17,43.88v-4.35h.88v.63c.07-.12.16-.23.28-.33.12-.1.27-.19.44-.25.18-.06.38-.1.61-.1.27,0,.52.05.75.16.23.11.42.28.56.5.14.23.21.52.21.88v2.85h-.9v-2.75c0-.31-.08-.54-.25-.69-.17-.15-.38-.23-.64-.23-.18,0-.34.03-.5.09-.16.06-.29.15-.39.27-.1.12-.15.27-.15.45v2.87h-.9Z"/>
      <path class="cls-2" d="M264.66,43.96c-.57,0-1.02-.2-1.35-.59-.33-.39-.49-.96-.49-1.69,0-.45.07-.84.2-1.18.13-.33.33-.59.59-.78.26-.18.59-.28.98-.28.19,0,.37.02.52.07.15.05.29.11.4.19.12.08.21.16.29.24.08.09.14.17.18.24v-2.56h.91v6.25h-.68l-.1-.89c-.03.1-.08.2-.14.31-.06.11-.15.22-.26.32-.11.1-.25.18-.42.25s-.38.1-.62.1ZM264.83,43.28c.4,0,.7-.13.87-.38s.27-.67.27-1.25c0-.33-.04-.61-.12-.83-.08-.23-.2-.4-.36-.52-.16-.12-.38-.17-.65-.17-.33,0-.61.12-.82.36-.21.24-.32.63-.32,1.16s.1.93.29,1.21c.19.28.47.42.83.42Z"/>
      <path class="cls-2" d="M271.72,43.96c-.3,0-.59-.05-.85-.14-.27-.09-.49-.25-.66-.45-.18-.21-.29-.47-.33-.79h.8c.04.17.11.3.21.41.1.11.23.19.37.24.14.05.3.08.46.08.27,0,.5-.05.67-.15.17-.1.25-.25.25-.46,0-.15-.05-.27-.14-.36-.09-.09-.23-.16-.43-.2l-.87-.21c-.36-.08-.65-.22-.86-.4s-.33-.44-.33-.77c0-.25.06-.48.19-.68.13-.2.32-.35.57-.47.25-.11.57-.17.94-.17.49,0,.89.11,1.18.33s.45.54.46.95h-.78c-.03-.2-.12-.36-.27-.47s-.35-.17-.6-.17-.47.05-.63.15c-.17.1-.25.26-.25.47,0,.14.06.26.18.34.12.08.3.15.54.2l.82.21c.21.06.39.13.53.22.14.09.25.19.32.3.08.11.13.22.17.34.03.12.05.23.05.33,0,.27-.07.51-.21.7-.14.19-.34.34-.59.45-.26.11-.56.16-.92.16Z"/>
      <path class="cls-2" d="M276.19,43.96c-.41,0-.76-.09-1.06-.26-.3-.18-.54-.43-.71-.76-.17-.33-.25-.74-.25-1.21s.08-.86.24-1.2c.16-.34.39-.61.69-.8.3-.19.67-.28,1.1-.28s.76.09,1.06.27c.3.18.53.44.7.78.17.34.25.75.25,1.23,0,.44-.08.83-.23,1.17-.15.34-.38.6-.68.79-.3.19-.67.28-1.1.28ZM276.19,43.27c.25,0,.46-.06.62-.2.17-.13.29-.31.37-.55.08-.24.13-.51.13-.82,0-.29-.04-.55-.11-.79-.07-.24-.19-.42-.36-.57-.16-.14-.38-.21-.65-.21-.25,0-.46.06-.63.19-.17.13-.3.31-.38.54-.08.23-.13.51-.13.83,0,.28.04.54.11.78s.2.43.36.57c.17.14.39.21.66.21Z"/>
      <path class="cls-2" d="M280.36,43.93c-.26,0-.46-.03-.62-.1-.16-.07-.27-.16-.35-.27-.08-.11-.14-.24-.16-.39-.03-.14-.04-.29-.04-.45v-5.1h.89v5.01c0,.2.04.36.12.46.08.11.2.17.37.18h.23v.58c-.07.02-.14.04-.22.05-.07.01-.14.02-.21.02Z"/>
      <path class="cls-2" d="M283.39,43.96c-.22,0-.43-.04-.63-.1-.2-.06-.38-.15-.53-.28-.16-.12-.28-.28-.37-.46-.09-.18-.14-.39-.14-.63v-2.97h.9v2.87c0,.26.08.47.24.63.16.16.41.24.74.24.3,0,.54-.08.71-.23s.27-.38.27-.68v-2.83h.9v4.35h-.7l-.1-.84c-.05.23-.14.41-.27.54s-.28.23-.46.29c-.18.06-.37.09-.57.09Z"/>
      <path class="cls-2" d="M288.37,43.91c-.32,0-.57-.04-.75-.13-.18-.09-.3-.21-.37-.38-.07-.16-.11-.36-.11-.59v-2.63h-.71v-.65h.74l.22-1.28h.66v1.27h.98v.65h-.98v2.59c0,.14.02.25.05.31.03.07.08.11.15.13.07.02.17.03.29.03h.5v.58c-.05.02-.14.04-.25.06-.11.02-.25.03-.43.03Z"/>
      <path class="cls-2" d="M290.04,38.69v-.89h.9v.89h-.9ZM290.06,43.88v-4.35h.87v4.35h-.87Z"/>
      <path class="cls-2" d="M293.94,43.96c-.41,0-.76-.09-1.06-.26-.3-.18-.54-.43-.71-.76-.17-.33-.25-.74-.25-1.21s.08-.86.24-1.2c.16-.34.39-.61.69-.8.3-.19.67-.28,1.1-.28s.76.09,1.06.27c.3.18.53.44.7.78.17.34.25.75.25,1.23,0,.44-.08.83-.23,1.17-.15.34-.38.6-.68.79-.3.19-.67.28-1.1.28ZM293.95,43.27c.25,0,.46-.06.62-.2.17-.13.29-.31.37-.55.08-.24.13-.51.13-.82,0-.29-.04-.55-.11-.79-.07-.24-.19-.42-.36-.57-.16-.14-.38-.21-.65-.21-.25,0-.46.06-.63.19-.17.13-.3.31-.38.54-.08.23-.13.51-.13.83,0,.28.04.54.11.78s.2.43.36.57c.17.14.39.21.66.21Z"/>
      <path class="cls-2" d="M296.94,43.88v-4.35h.88v.63c.07-.12.16-.23.28-.33.12-.1.27-.19.44-.25.18-.06.38-.1.61-.1.27,0,.52.05.75.16.23.11.42.28.56.5.14.23.21.52.21.88v2.85h-.9v-2.75c0-.31-.08-.54-.25-.69-.17-.15-.38-.23-.64-.23-.18,0-.34.03-.5.09-.16.06-.29.15-.39.27-.1.12-.15.27-.15.45v2.87h-.9Z"/>
      <path class="cls-2" d="M303.45,43.96c-.3,0-.59-.05-.85-.14-.27-.09-.49-.25-.66-.45-.18-.21-.29-.47-.33-.79h.8c.04.17.11.3.21.41.1.11.23.19.37.24.14.05.3.08.46.08.27,0,.5-.05.67-.15.17-.1.25-.25.25-.46,0-.15-.05-.27-.14-.36-.09-.09-.23-.16-.43-.2l-.87-.21c-.36-.08-.65-.22-.86-.4s-.33-.44-.33-.77c0-.25.06-.48.19-.68.13-.2.32-.35.57-.47.25-.11.57-.17.94-.17.49,0,.89.11,1.18.33s.45.54.46.95h-.78c-.03-.2-.12-.36-.27-.47s-.35-.17-.6-.17-.47.05-.63.15c-.17.1-.25.26-.25.47,0,.14.06.26.18.34.12.08.3.15.54.2l.82.21c.21.06.39.13.53.22.14.09.25.19.32.3.08.11.13.22.17.34.03.12.05.23.05.33,0,.27-.07.51-.21.7-.14.19-.34.34-.59.45-.26.11-.56.16-.92.16Z"/>
    </g>
    <g class="cls-6">
      <path class="cls-1" d="M32.15,40.48v-3.94c0-.95.22-1.83.67-2.63.45-.81,1.03-1.42,1.74-1.85.71-.42,1.47-.55,2.28-.39v1.4l-.34.04c-.49.04-.95.31-1.38.81s-.64,1.07-.64,1.71v.26l2.37.15v4.43h-4.7Z"/>
      <path class="cls-1" d="M38.73,40.48v-3.94c0-.95.22-1.83.67-2.63.45-.81,1.03-1.42,1.74-1.85.71-.42,1.47-.55,2.28-.39v1.4l-.34.04c-.49.04-.95.31-1.38.81s-.64,1.07-.64,1.71v.26l2.37.15v4.43h-4.7Z"/>
    </g>
    <g class="cls-6">
      <path class="cls-1" d="M322.81,40.51v3.75c0,.9-.21,1.73-.64,2.5-.43.77-.98,1.35-1.66,1.76-.68.4-1.4.53-2.17.37v-1.33l.32-.04c.47-.04.91-.29,1.31-.77s.61-1.02.61-1.63v-.25l-2.25-.14v-4.21h4.46Z"/>
      <path class="cls-1" d="M316.56,40.51v3.75c0,.9-.21,1.73-.64,2.5-.43.77-.98,1.35-1.66,1.76-.68.4-1.4.53-2.17.37v-1.33l.32-.04c.47-.04.91-.29,1.31-.77s.61-1.02.61-1.63v-.25l-2.25-.14v-4.21h4.46Z"/>
    </g>
  </g>
</svg>